{
.appVersion = "3134";
.formatVersion = 3;
DisplayStrings = (
"Aa Bb Cc Dd Ee Ff Gg Hh Ii Jj Kk Ll Mm Nn Oo Pp Qq Rr Ss Tt Uu Vv Ww Xx Yy Zz
0123456789
@#"
);
customParameters = (
{
name = vendorID;
value = ITFO;
},
{
name = panose;
value = (
0,
0,
5,
0,
0,
0,
0,
0,
0,
0
);
},
{
name = unicodeRanges;
value = (
0,
1,
2,
15
);
},
{
name = codePageRanges;
value = (
"1252",
"1250",
"1254",
"1257",
"bit 29"
);
},
{
name = fsType;
value = (
);
},
{
name = glyphOrder;
value = (
.notdef,
NULL,
CR,
space,
dvA,
dvAA,
dvI,
dvII,
dvU,
dvUU,
dvvR,
dvvRR,
dvvL,
dvvLL,
dvE,
dvAI,
dvO,
dvAU,
dvEcandra,
dvAcandra,
dvOcandra,
dvmAA,
dvmI,
dvmII,
dvmU,
dvmUU,
dvmvR,
dvmvRR,
dvmvL,
dvmvLL,
dvmE,
dvmAI,
dvmO,
dvmAU,
dvmEcandra,
dvmOcandra,
dvKA,
dvKHA,
dvGA,
dvGHA,
dvNGA,
dvCA,
dvCHA,
dvJA,
dvJHA,
dvNYA,
dvTTA,
dvTTHA,
dvDDA,
dvDDHA,
dvNNA,
dvTA,
dvTHA,
dvDA,
dvDHA,
dvNA,
dvPA,
dvPHA,
dvBA,
dvBHA,
dvMA,
dvYA,
dvRA,
dvLA,
dvVA,
dvSHA,
dvSSA,
dvSA,
dvHA,
dvLLA,
dvK_SSA,
dvJ_NYA,
dvKxA,
dvKHxA,
dvGxA,
dvJxA,
dvDDxA,
dvDDHxA,
dvPHxA,
dvRxA,
dvK,
dvKH,
dvG,
dvGH,
dvNG,
dvC,
dvCH,
dvJ,
dvJH,
dvNY,
dvTT,
dvTTH,
dvDD,
dvDDH,
dvNN,
dvT,
dvTH,
dvD,
dvDH,
dvN,
dvP,
dvPH,
dvB,
dvBH,
dvM,
dvY,
dvR,
dvL,
dvV,
dvSH,
dvSS,
dvS,
dvH,
dvLL,
dvK_SS,
dvJ_NY,
dvKx,
dvKHx,
dvGx,
dvJx,
dvPHx,
dvAnusvara,
dvCandrabindu,
dvVisarga,
dvAvagraha,
dvVirama,
dvNukta,
dvZero,
dvOne,
dvTwo,
dvThree,
dvFour,
dvFive,
dvSix,
dvSeven,
dvEight,
dvNine,
dvOm,
dvAbbreviationsign,
danda,
doubledanda,
rupee,
indianrupee,
zerowidthnonjoiner,
zerowidthjoiner,
dottedcircle,
dvReph,
dvEyelash,
dvRashtrasign,
dvK_RA,
dvKH_RA,
dvG_RA,
dvGH_RA,
dvNG_RA,
dvC_RA,
dvCH_RA,
dvJ_RA,
dvJH_RA,
dvNY_RA,
dvTT_RA,
dvTTH_RA,
dvDD_RA,
dvDDH_RA,
dvNN_RA,
dvT_RA,
dvTH_RA,
dvD_RA,
dvDH_RA,
dvN_RA,
dvP_RA,
dvPH_RA,
dvB_RA,
dvBH_RA,
dvM_RA,
dvY_RA,
dvL_RA,
dvV_RA,
dvSH_RA,
dvSS_RA,
dvS_RA,
dvH_RA,
dvLL_RA,
dvKx_RA,
dvKHx_RA,
dvGx_RA,
dvJx_RA,
dvPHx_RA,
dvK_R,
dvKH_R,
dvG_R,
dvGH_R,
dvNG_R,
dvC_R,
dvCH_R,
dvJ_R,
dvJH_R,
dvNY_R,
dvTT_R,
dvTTH_R,

glyphs = (
{
glyphname = .notdef;
lastChange = "2022-10-20 15:33:47 +0000";
layers = (
{
layerId = m01;
shapes = (
{
closed = 1;
nodes = (
(-62,0,l),
(438,0,l),
(562,700,l),
(62,700,l)
);
},
{
closed = 1;
nodes = (
(258,395,l),
(133,650,l),
(473,650,l)
);
},
{
closed = 1;
nodes = (
(280,350,l),
(495,605,l),
(405,95,l)
);
},
{
closed = 1;
nodes = (
(27,50,l),
(242,305,l),
(367,50,l)
);
},
{
closed = 1;
nodes = (
(95,605,l),
(220,350,l),
(5,95,l)
);
}
);
width = 500;
}
);
note = ".notdef";
},
{
glyphname = exclam;
lastChange = "2022-10-20 15:33:47 +0000";
layers = (
{
layerId = m01;
shapes = (
{
closed = 1;
nodes = (
(84,207,ls),
(83,202,o),
(87,197,o),
(92,197,cs),
(148,197,ls),
(153,197,o),
(159,202,o),
(160,207,cs),
(255,687,ls),
(256,693,o),
(252,697,o),
(246,697,cs),
(170,697,ls),
(164,697,o),
(158,693,o),
(157,687,cs)
);
},
{
closed = 1;
nodes = (
(165,91,o),
(143,118,o),
(110,118,cs),
(75,118,o),
(43,91,o),
(37,56,cs),
(31,21,o),
(53,-6,o),
(88,-6,cs),
(121,-6,o),
(153,21,o),
(159,56,cs)
);
}
);
width = 298;
}
);
note = exclam;
unicode = 33;
},
{
glyphname = quotedbl;
lastChange = "2022-10-20 15:33:47 +0000";
layers = (
{
layerId = m01;
shapes = (
{
closed = 1;
nodes = (
(30,606,ls),
(29,601,o),
(33,597,o),
(38,597,cs),
(82,597,ls),
(87,597,o),
(94,601,o),
(95,606,cs),
(136,785,ls),
(137,792,o),
(134,796,o),
(128,796,cs),
(64,796,ls),
(58,796,o),
(53,792,o),
(52,785,cs)
);
},
{
closed = 1;
nodes = (
(165,606,ls),
(164,601,o),
(168,597,o),
(173,597,cs),
(217,597,ls),
(222,597,o),
(229,601,o),
(230,606,cs),
(271,785,ls),
(272,792,o),
(269,796,o),
(263,796,cs),
(199,796,ls),
(193,796,o),
(188,792,o),
(187,785,cs)
);
}
);
width = 292;
}
);
note = quotedbl;
unicode = 34;
},
{
glyphname = numbersign;
lastChange = "2022-10-20 15:33:47 +0000";
layers = (
{
layerId = m01;
shapes = (
{
closed = 1;
nodes = (
(492,288,ls),
(490,284,o),
(484,280,o),
(480,280,cs),
(291,280,ls),
(284,280,o),
(281,286,o),
(283,293,cs),
(344,452,ls),
(346,456,o),
(352,460,o),
(356,460,cs),
(544,460,ls),
(551,460,o),
(555,454,o),
(553,447,cs)
);
},
{
closed = 1;
nodes = (
(381,7,ls),
(379,4,o),
(383,0,o),
(386,0,cs),
(462,0,ls),
(464,0,o),
(467,2,o),
(467,4,cs),
(541,192,ls),
(542,196,o),
(548,200,o),
(552,200,cs),
(694,200,ls),
(697,200,o),
(699,202,o),
(700,205,cs),
(712,275,ls),
(713,278,o),
(711,280,o),
(708,280,cs),
(588,280,ls),
(581,280,o),
(578,286,o),
(580,293,cs),
(641,452,ls),
(643,456,o),
(649,460,o),
(653,460,cs),
(796,460,ls),
(799,460,o),
(801,462,o),
(802,465,cs),
(814,535,ls),
(815,538,o),
(813,540,o),
(810,540,cs),
(690,540,ls),
(683,540,o),
(679,546,o),
(681,553,cs),
(752,733,ls),
(754,736,o),
(750,740,o),
(747,740,cs),
(671,740,ls),
(669,740,o),
(666,738,o),
(666,736,cs),
(592,548,ls),
(591,544,o),
(585,540,o),
(581,540,cs),
(393,540,ls),
(386,540,o),
(382,546,o),
(384,553,cs),
(455,733,ls),
(457,736,o),
(453,740,o),
(450,740,cs),
(374,740,ls),
(372,740,o),
(369,738,o),
(369,736,cs),
(295,548,ls),
(294,544,o),
(288,540,o),
(284,540,cs),
(125,540,ls),
(122,540,o),
(120,538,o),
(119,535,cs),
(107,465,ls),
(106,462,o),
(108,460,o),
(111,460,cs),
(248,460,ls),
(255,460,o),
(258,454,o),
(256,447,cs),
(195,288,ls),
(193,284,o),
(187,280,o),
(183,280,cs),
(22,280,ls),
(19,280,o),
(17,278,o),
(16,275,cs),
(4,205,ls),
(3,202,o),
(5,200,o),
(8,200,cs),
(146,200,ls),
(153,200,o),
(157,194,o),
(155,187,cs),
(84,7,ls),
(82,4,o),
(86,0,o),
(89,0,cs),
(165,0,ls),
(167,0,o),
(170,2,o),
(170,4,cs),
(244,192,ls),
(245,196,o),
(251,200,o),
(255,200,cs),
(443,200,ls),
(450,200,o),
(454,194,o),
(452,187,cs)
);
}
);
width = 840;
}
);
note = numbersign;
unicode = 35;
},
{
glyphname = dollar;
lastChange = "2022-10-20 15:33:47 +0000";
layers = (
{
layerId = m01;
shapes = (
{
closed = 1;
nodes = (
(191,-82,ls),
(190,-85,o),
(192,-87,o),
(195,-87,cs),
(239,-87,ls),
(242,-87,o),
(244,-85,o),
(245,-82,cs),
(258,-6,l),
(396,3,o),
(482,98,o),
(499,191,cs),
(523,330,o),
(422,359,o),
(327,384,c),
(370,628,l),
(427,615,o),
(452,573,o),
(452,531,cs),
(453,529,o),
(454,527,o),
(456,527,cs),
(543,527,ls),
(546,527,o),
(550,530,o),
(549,533,cs),
(555,631,o),
(494,695,o),
(384,705,c),
(397,783,ls),
(398,786,o),
(396,788,o),
(393,788,cs),
(349,788,ls),
(346,788,o),
(344,786,o),
(343,783,cs),
(330,705,l),
(203,697,o),
(108,620,o),
(89,512,cs),
(64,374,o),
(166,345,o),
(261,319,c),
(217,69,l),
(150,80,o),
(125,126,o),
(127,177,cs),
(128,179,o),
(126,181,o),
(124,181,cs),
(36,181,ls),
(33,181,o),
(31,179,o),
(30,176,cs),
(17,73,o),
(88,5,o),
(204,-6,c)
);
},
{
closed = 1;
nodes = (
(396,126,o),
(347,76,o),
(271,68,c),
(313,304,l),
(373,285,o),
(419,257,o),
(407,186,cs)
);
},
{
closed = 1;
nodes = (
(195,588,o),
(248,624,o),
(316,630,c),
(276,399,l),
(215,419,o),
(170,446,o),
(182,517,cs)
);
}
);
width = 622;
}
);
note = dollar;
unicode = 36;
},
{
glyphname = percent;
lastChange = "2022-10-20 15:33:47 +0000";
layers = (
{
layerId = m01;
shapes = (
{
closed = 1;
nodes = (
(63,466,o),
(116,410,o),
(199,410,cs),
(283,410,o),
(355,466,o),
(371,560,cs),
(388,653,o),
(336,709,o),
(252,709,cs),
(169,709,o),
(96,653,o),
(79,560,cs)
);
},
{
closed = 1;
nodes = (
(286,653,o),
(310,623,o),
(299,560,cs),
(288,498,o),
(253,466,o),
(209,466,cs),
(165,466,o),
(141,498,o),
(152,560,cs),
(163,623,o),
(198,653,o),
(242,653,cs)
);
},
{
closed = 1;
nodes = (
(76,9,ls),
(73,5,o),
(75,0,o),
(80,0,cs),
(156,0,ls),
(157,0,o),
(159,0,o),
(161,2,cs),
(681,689,ls),
(684,693,o),
(682,698,o),
(677,698,cs),
(601,698,ls),
(600,698,o),
(598,698,o),
(596,696,cs)
);
},
{
closed = 1;
nodes = (
(371,45,o),
(423,-12,o),
(507,-12,cs),
(590,-12,o),
(662,45,o),
(679,138,cs),
(695,232,o),
(643,288,o),
(560,288,cs),
(476,288,o),
(404,232,o),
(388,138,cs)
);
},
{
closed = 1;
nodes = (
(593,231,o),
(618,201,o),
(607,138,cs),
(596,76,o),
(561,46,o),
(517,46,cs),
(473,46,o),
(448,76,o),
(459,138,cs),
(470,201,o),
(505,231,o),
(549,231,cs)
);
}
);
width = 759;
}
);
note = percent;
unicode = 37;
},
{
glyphname = ampersand;
lastChange = "2022-10-20 15:33:47 +0000";
layers = (
{
layerId = m01;
shapes = (
{
closed = 1;
nodes = (
(522,548,ls),
(527,548,o),
(533,552,o),
(534,558,cs),
(549,646,o),
(495,711,o),
(389,711,cs),
(276,711,o),
(193,645,o),
(177,556,cs),
(168,505,o),
(179,466,o),
(213,416,c),
(96,373,o),
(28,296,o),
(11,200,cs),
(-12,71,o),
(72,-12,o),
(217,-12,cs),
(315,-12,o),
(396,22,o),
(476,92,c),
(549,2,ls),
(549,1,o),
(551,0,o),
(553,0,cs),
(634,0,ls),
(648,0,o),
(657,15,o),
(649,25,cs),
(540,157,l),
(558,177,o),
(574,197,o),
(591,220,cs),
(684,343,ls),
(690,352,o),
(686,362,o),
(676,362,cs),
(605,362,ls),
(602,362,o),
(598,360,o),
(597,358,cs),
(512,248,ls),
(504,238,o),
(497,229,o),
(489,220,c),
(318,429,ls),
(278,481,o),
(261,515,o),
(268,556,cs),
(277,602,o),
(318,636,o),
(372,636,cs),
(418,636,o),
(449,609,o),
(443,558,cs),
(442,552,o),
(446,548,o),
(451,548,cs)
);
},
{
closed = 1;
nodes = (
(140,66,o),
(88,125,o),
(102,203,cs),
(114,273,o),
(165,325,o),
(258,358,c),
(426,152,l),
(364,94,o),
(303,66,o),
(231,66,cs)
);
}
);
width = 739;
}
);
note = ampersand;
unicode = 38;
},
{
glyphname = quotesingle;
lastChange = "2022-10-20 15:33:47 +0000";
layers = (
{
layerId = m01;
shapes = (
{
closed = 1;
nodes = (
(31,606,ls),
(30,601,o),
(34,597,o),
(39,597,cs),
(84,597,ls),
(89,597,o),
(95,601,o),
(96,606,cs),
(138,785,ls),
(139,792,o),
(136,796,o),
(130,796,cs),
(64,796,ls),
(58,796,o),
(53,792,o),
(52,785,cs)
);
}
);
width = 159;
}
);
note = quotesingle;
unicode = 39;
},
{
glyphname = parenleft;
lastChange = "2022-10-20 15:33:47 +0000";
layers = (
{
layerId = m01;
shapes = (
{
closed = 1;
nodes = (
(297,-186,ls),
(303,-186,o),
(308,-183,o),
(308,-180,cs),
(309,-178,o),
(308,-176,o),
(307,-175,cs),
(194,-32,o),
(159,164,o),
(195,366,cs),
(230,569,o),
(337,778,o),
(515,923,cs),
(517,924,o),
(519,927,o),
(519,929,cs),
(519,930,ls),
(519,932,o),
(516,934,o),
(510,934,cs),
(428,934,ls),
(426,934,o),
(424,933,o),
(422,932,cs),
(258,801,o),
(146,591,o),
(107,366,cs),
(67,142,o),
(107,-58,o),
(211,-184,cs),
(211,-185,o),
(213,-186,o),
(215,-186,cs)
);
}
);
width = 454;
}
);
note = parenleft;
unicode = 40;
},
{
glyphname = parenright;
lastChange = "2022-10-20 15:33:47 +0000";
layers = (
{
layerId = m01;
shapes = (
{
closed = 1;
nodes = (
(-41,-186,ls),
(-47,-186,o),
(-50,-183,o),
(-50,-180,cs),
(-49,-178,o),
(-48,-176,o),
(-47,-175,cs),
(116,-32,o),
(221,164,o),
(257,366,cs),
(292,569,o),
(259,778,o),
(133,923,cs),
(131,924,o),
(131,927,o),
(131,929,cs),
(131,930,ls),
(131,932,o),
(136,934,o),
(142,934,cs),
(224,934,ls),
(226,934,o),
(228,933,o),
(228,932,cs),
(346,801,o),
(384,591,o),
(345,366,cs),
(305,142,o),
(195,-58,o),
(47,-184,cs),
(45,-185,o),
(43,-186,o),
(41,-186,cs)
);
}
);
width = 454;
}
);
note = parenright;
unicode = 41;
},
{
glyphname = asterisk;
lastChange = "2022-10-20 15:33:47 +0000";
layers = (
{
layerId = m01;
shapes = (
{
closed = 1;
nodes = (
(313,728,ls),
(314,732,o),
(312,734,o),
(309,734,cs),
(245,734,ls),
(242,734,o),
(240,732,o),
(239,728,cs),
(231,613,ls),
(229,599,o),
(215,593,o),
(206,600,cs),
(124,668,ls),
(123,670,o),
(118,669,o),
(116,666,cs),
(75,609,ls),
(73,606,o),
(74,603,o),
(77,602,cs),
(169,561,ls),
(182,556,o),
(180,540,o),
(165,534,cs),
(57,492,ls),
(54,491,o),
(53,488,o),
(53,485,cs),
(76,427,ls),
(76,424,o),
(81,423,o),
(83,425,cs),
(186,492,ls),
(198,500,o),
(210,494,o),
(206,480,cs),
(175,366,ls),
(174,362,o),
(176,360,o),
(179,360,cs),
(242,360,ls),
(245,360,o),
(247,362,o),
(248,366,cs),
(256,480,ls),
(258,494,o),
(272,501,o),
(280,493,cs),
(360,427,ls),
(361,425,o),
(366,425,o),
(368,428,cs),
(410,485,ls),
(412,488,o),
(411,491,o),
(408,492,cs),
(314,534,ls),
(301,540,o),
(304,555,o),
(318,561,cs),
(428,603,ls),
(431,604,o),
(432,607,o),
(431,610,cs),
(411,665,ls),
(410,668,o),
(405,668,o),
(403,666,cs),
(300,600,ls),
(288,592,o),
(277,600,o),
(281,613,cs)
);
}
);
width = 486;
}
);
note = asterisk;
unicode = 42;
},
{
glyphname = plus;
lastChange = "2022-10-20 15:33:47 +0000";
layers = (
{
layerId = m01;
shapes = (
{
closed = 1;
nodes = (
(349,621,ls),
(346,621,o),
(344,619,o),
(343,616,cs),
(307,414,ls),
(306,408,o),
(302,404,o),
(296,404,cs),
(99,404,ls),
(96,404,o),
(93,402,o),
(93,399,cs),
(81,332,ls),
(80,329,o),
(82,327,o),
(85,327,cs),
(282,327,ls),
(288,327,o),
(291,323,o),
(290,317,cs),
(255,116,ls),
(254,113,o),
(256,111,o),
(259,111,cs),
(334,111,ls),
(337,111,o),
(339,113,o),
(340,116,cs),
(375,317,ls),
(376,323,o),
(381,327,o),
(387,327,cs),
(585,327,ls),
(588,327,o),
(590,329,o),
(591,332,cs),
(603,399,ls),
(603,402,o),
(602,404,o),
(599,404,cs),
(401,404,ls),
(395,404,o),
(391,408,o),
(392,414,cs),
(428,616,ls),
(429,619,o),
(427,621,o),
(424,621,cs)
);
}
);
width = 683;
}
);
note = plus;
unicode = 43;
},
{
glyphname = comma;
lastChange = "2022-10-20 15:33:47 +0000";
layers = (
{
layerId = m01;
shapes = (
{
closed = 1;
nodes = (
(-19,-129,ls),
(-23,-136,o),
(-18,-143,o),
(-11,-143,cs),
(29,-143,ls),
(32,-143,o),
(37,-141,o),
(38,-137,cs),
(185,110,ls),
(189,118,o),
(186,126,o),
(177,126,cs),
(102,126,ls),
(98,126,o),
(93,124,o),
(92,119,cs)
);
}
);
width = 198;
}
);
note = comma;
unicode = 44;
},
{
glyphname = hyphen;
lastChange = "2022-10-20 15:33:47 +0000";
layers = (
{
layerId = m01;
shapes = (
{
closed = 1;
nodes = (
(53,291,ls),
(52,285,o),
(55,281,o),
(61,281,cs),
(440,281,ls),
(446,281,o),
(451,285,o),
(452,291,cs),
(462,348,ls),
(463,354,o),
(460,358,o),
(454,358,cs),
(75,358,ls),
(69,358,o),
(64,354,o),
(63,348,cs)
);
}
);
width = 551;
}
);
note = hyphen;
unicode = 45;
},
{
glyphname = period;
lastChange = "2022-10-20 15:33:47 +0000";
layers = (
{
layerId = m01;
shapes = (
{
closed = 1;
nodes = (
(172,91,o),
(150,118,o),
(117,118,cs),
(82,118,o),
(50,91,o),
(44,56,cs),
(38,21,o),
(60,-6,o),
(95,-6,cs),
(128,-6,o),
(160,21,o),
(166,56,cs)
);
}
);
width = 210;
}
);
note = period;
unicode = 46;
},
{
glyphname = slash;
lastChange = "2022-10-20 15:33:47 +0000";
layers = (
{
layerId = m01;
shapes = (
{
closed = 1;
nodes = (
(-40,-156,ls),
(-43,-164,o),
(-38,-170,o),
(-31,-170,cs),
(38,-170,ls),
(42,-170,o),
(46,-168,o),
(48,-163,cs),
(510,928,ls),
(513,936,o),
(508,942,o),
(501,942,cs),
(431,942,ls),
(427,942,o),
(423,940,o),
(421,935,cs)
);
}
);
width = 476;
}
);
note = slash;
unicode = 47;
},
{
glyphname = zero;
lastChange = "2022-10-20 15:33:47 +0000";
layers = (
{
layerId = m01;
shapes = (
{
closed = 1;
nodes = (
(25,159,o),
(49,0,o),
(249,0,cs),
(448,0,o),
(528,159,o),
(565,369,cs),
(602,576,o),
(578,734,o),
(379,734,cs),
(179,734,o),
(99,576,o),
(62,369,cs)
);
},
{
closed = 1;
nodes = (
(448,213,o),
(406,83,o),
(264,83,cs),
(121,83,o),
(125,213,o),
(152,369,cs),
(179,519,o),
(221,651,o),
(364,651,cs),
(506,651,o),
(502,519,o),
(475,369,cs)
);
}
);
width = 628;
}
);
note = zero;
unicode = 48;
},
{
glyphname = one;
lastChange = "2022-10-20 15:33:47 +0000";
layers = (
{
layerId = m01;
shapes = (
{
closed = 1;
nodes = (
(72,10,ls),
(71,4,o),
(74,0,o),
(80,0,cs),
(152,0,ls),
(158,0,o),
(163,4,o),
(164,10,cs),
(284,688,ls),
(288,710,o),
(277,723,o),
(255,723,cs),
(136,723,l),
(87,640,l),
(148,640,ls),
(170,640,o),
(181,627,o),
(177,605,cs)
);
}
);
width = 320;
}
);
note = one;
unicode = 49;
},
{
glyphname = two;
lastChange = "2022-10-20 15:33:47 +0000";
layers = (
{
layerId = m01;
shapes = (
{
closed = 1;
nodes = (
(-11,18,ls),
(-13,12,o),
(-9,8,o),
(-3,8,cs),
(458,8,ls),
(464,8,o),
(468,12,o),
(470,18,cs),
(475,49,ls),
(479,71,o),
(468,84,o),
(446,84,cs),
(156,84,ls),
(147,84,o),
(146,90,o),
(154,96,cs),
(302,201,o),
(507,349,o),
(537,522,cs),
(561,656,o),
(487,736,o),
(351,736,cs),
(224,736,o),
(115,660,o),
(80,512,cs),
(78,506,o),
(81,502,o),
(87,502,cs),
(132,502,ls),
(154,502,o),
(167,513,o),
(175,535,cs),
(201,608,o),
(256,658,o),
(338,658,cs),
(436,658,o),
(461,598,o),
(447,518,cs),
(421,372,o),
(220,229,o),
(5,78,cs),
(0,74,o),
(-2,70,o),
(-3,65,cs)
);
}
);
width = 575;
}
);
note = two;
unicode = 50;
},
{
glyphname = three;
lastChange = "2022-10-20 15:33:47 +0000";
layers = (
{
layerId = m01;
shapes = (
{
closed = 1;
nodes = (
(149,541,ls),
(170,541,o),
(182,551,o),
(192,572,cs),
(220,625,o),
(274,659,o),
(346,659,cs),
(433,659,o),
(470,611,o),
(458,542,cs),
(443,458,o),
(372,421,o),
(251,420,cs),
(235,420,o),
(224,407,o),
(220,385,cs),
(219,379,ls),
(215,357,o),
(221,344,o),
(236,344,cs),
(366,344,o),
(430,305,o),
(412,203,cs),
(399,129,o),
(343,72,o),
(246,72,cs),
(163,72,o),
(118,116,o),
(110,177,cs),
(107,197,o),
(98,208,o),
(77,208,cs),
(32,208,ls),
(26,208,o),
(20,204,o),
(20,197,cs),
(12,64,o),
(100,-5,o),
(234,-5,cs),
(385,-5,o),
(478,83,o),
(498,195,cs),
(516,299,o),
(470,361,o),
(390,381,c),
(390,384,ls),
(390,385,o),
(401,387,o),
(421,395,cs),
(486,421,o),
(535,479,o),
(548,551,cs),
(566,655,o),
(503,737,o),
(362,737,cs),
(232,737,o),
(127,669,o),
(94,552,cs),
(92,545,o),
(96,541,o),
(102,541,cs)
);
}
);
width = 589;
}
);
note = three;
unicode = 51;
},
{
glyphname = four;
lastChange = "2022-10-20 15:33:47 +0000";
layers = (
{
layerId = m01;
shapes = (
{
closed = 1;
nodes = (
(349,10,ls),
(348,4,o),
(351,0,o),
(357,0,cs),
(427,0,ls),
(433,0,o),
(438,4,o),
(439,10,cs),
(463,151,ls),
(465,157,o),
(469,161,o),
(475,161,cs),
(555,161,ls),
(561,161,o),
(566,165,o),
(567,171,cs),
(577,230,ls),
(578,236,o),
(575,240,o),
(569,240,cs),
(514,240,ls),
(492,240,o),
(481,253,o),
(485,275,cs),
(561,706,ls),
(562,712,o),
(559,716,o),
(553,716,cs),
(462,716,ls),
(457,716,o),
(453,715,o),
(449,710,cs),
(22,236,ls),
(19,232,o),
(17,228,o),
(16,223,cs),
(7,171,ls),
(6,165,o),
(9,161,o),
(15,161,cs),
(365,161,ls),
(371,161,o),
(375,157,o),
(373,151,cs)
);
},
{
closed = 1;
nodes = (
(139,240,ls),
(131,240,o),
(129,246,o),
(135,252,cs),
(445,604,ls),
(452,612,o),
(458,609,o),
(457,600,cs),
(395,250,ls),
(394,244,o),
(389,240,o),
(383,240,cs)
);
}
);
width = 629;
}
);
note = four;
unicode = 52;
},
{
glyphname = five;
lastChange = "2022-10-20 15:33:47 +0000";
layers = (
{
layerId = m01;
shapes = (
{
closed = 1;
nodes = (
(162,724,ls),
(156,724,o),
(151,720,o),
(150,714,cs),
(82,326,ls),
(81,320,o),
(84,316,o),
(90,316,cs),
(158,316,ls),
(163,316,o),
(167,318,o),
(170,324,c),
(206,376,o),
(263,411,o),
(333,411,cs),
(438,411,o),
(480,351,o),
(462,248,cs),
(445,149,o),
(383,75,o),
(273,75,cs),
(191,75,o),
(141,117,o),
(133,187,c),
(133,193,o),
(130,196,o),
(124,196,cs),
(55,196,ls),
(48,196,o),
(44,192,o),
(44,185,cs),
(45,74,o),
(118,-2,o),
(258,-2,cs),
(427,-2,o),
(525,110,o),
(549,250,cs),
(569,362,o),
(536,489,o),
(360,489,cs),
(297,489,o),
(235,464,o),
(196,430,cs),
(188,423,o),
(183,425,o),
(185,434,cs),
(220,634,ls),
(221,640,o),
(226,644,o),
(232,644,cs),
(538,644,ls),
(560,644,o),
(575,657,o),
(579,679,cs),
(587,724,l)
);
}
);
width = 628;
}
);
note = five;
unicode = 53;
},
{
glyphname = six;
lastChange = "2022-10-20 15:33:47 +0000";
layers = (
{
layerId = m01;
shapes = (
{
closed = 1;
nodes = (
(570,551,ls),
(576,551,o),
(582,555,o),
(582,562,cs),
(583,658,o),
(527,738,o),
(394,738,cs),
(211,738,o),
(114,598,o),
(74,371,cs),
(35,152,o),
(59,-2,o),
(273,-2,cs),
(431,-2,o),
(528,106,o),
(551,238,cs),
(578,390,o),
(503,479,o),
(368,479,cs),
(282,479,o),
(196,439,o),
(152,368,c),
(189,583,o),
(265,662,o),
(380,662,cs),
(450,662,o),
(485,633,o),
(495,581,cs),
(498,561,o),
(508,551,o),
(528,551,cs)
);
},
{
closed = 1;
nodes = (
(439,402,o),
(481,337,o),
(463,235,cs),
(445,137,o),
(375,74,o),
(281,74,cs),
(167,74,o),
(124,149,o),
(141,245,cs),
(160,353,o),
(252,402,o),
(335,402,cs)
);
}
);
width = 635;
}
);
note = six;
unicode = 54;
},
{
glyphname = seven;
lastChange = "2022-10-20 15:33:47 +0000";
layers = (
{
layerId = m01;
shapes = (
{
closed = 1;
nodes = (
(107,721,ls),
(101,721,o),
(96,717,o),
(95,711,cs),
(89,678,ls),
(85,656,o),
(96,643,o),
(118,643,cs),
(424,643,ls),
(450,643,o),
(459,627,o),
(444,602,cs),
(80,12,ls),
(76,5,o),
(79,0,o),
(86,0,cs),
(157,0,ls),
(162,0,o),
(167,2,o),
(170,8,cs),
(546,631,ls),
(554,646,o),
(560,658,o),
(562,674,cs),
(565,687,ls),
(569,709,o),
(558,721,o),
(536,721,cs)
);
}
);
width = 546;
}
);
note = seven;
unicode = 55;
},
{
glyphname = eight;
lastChange = "2022-10-20 15:33:47 +0000";
layers = (
{
layerId = m01;
shapes = (
{
closed = 1;
nodes = (
(112,352,o),
(47,286,o),
(31,195,cs),
(8,64,o),
(96,-20,o),
(248,-20,cs),
(401,-20,o),
(520,64,o),
(543,195,cs),
(559,285,o),
(518,351,o),
(440,376,c),
(516,404,o),
(572,464,o),
(586,542,cs),
(604,647,o),
(539,734,o),
(382,734,cs),
(225,734,o),
(129,648,o),
(111,542,cs),
(96,461,o),
(128,405,o),
(197,376,c)
);
},
{
closed = 1;
nodes = (
(236,406,o),
(183,455,o),
(197,530,cs),
(212,615,o),
(279,658,o),
(368,658,cs),
(459,658,o),
(510,614,o),
(496,531,cs),
(482,456,o),
(413,406,o),
(324,406,cs)
);
},
{
closed = 1;
nodes = (
(406,336,o),
(470,291,o),
(454,198,cs),
(439,114,o),
(365,56,o),
(262,56,cs),
(159,56,o),
(104,113,o),
(119,198,cs),
(136,294,o),
(218,336,o),
(311,336,cs)
);
}
);
width = 631;
}
);
note = eight;
unicode = 56;
},
{
glyphname = nine;
lastChange = "2022-10-20 15:33:47 +0000";
layers = (
{
layerId = m01;
shapes = (
{
closed = 1;
nodes = (
(75,194,ls),
(69,194,o),
(64,190,o),
(63,183,cs),
(60,82,o),
(115,-1,o),
(254,-1,cs),
(444,-1,o),
(523,134,o),
(565,375,cs),
(605,599,o),
(572,737,o),
(376,737,cs),
(220,737,o),
(120,637,o),
(96,499,cs),
(69,346,o),
(153,263,o),
(286,263,cs),
(364,263,o),
(443,298,o),
(482,359,c),
(448,147,o),
(378,75,o),
(272,75,cs),
(200,75,o),
(160,107,o),
(151,164,cs),
(148,184,o),
(138,194,o),
(117,194,cs)
);
},
{
closed = 1;
nodes = (
(207,340,o),
(167,408,o),
(183,501,cs),
(200,597,o),
(271,661,o),
(365,661,cs),
(469,661,o),
(513,592,o),
(495,494,cs),
(478,397,o),
(402,340,o),
(315,340,cs)
);
}
);
width = 630;
}
);
note = nine;
unicode = 57;
},
{
glyphname = colon;
lastChange = "2022-10-20 15:33:47 +0000";
layers = (
{
layerId = m01;
shapes = (
{
closed = 1;
nodes = (
(134,91,o),
(112,118,o),
(79,118,cs),
(44,118,o),
(12,91,o),
(6,56,cs),
(0,21,o),
(22,-6,o),
(57,-6,cs),
(90,-6,o),
(122,21,o),
(128,56,cs)
);
},
{
closed = 1;
nodes = (
(210,519,o),
(188,546,o),
(155,546,cs),
(120,546,o),
(88,519,o),
(82,484,cs),
(76,449,o),
(98,422,o),
(133,422,cs),
(166,422,o),
(198,449,o),
(204,484,cs)
);
}
);
width = 213;
}
);
note = colon;
unicode = 58;
},
{
glyphname = semicolon;
lastChange = "2022-10-20 15:33:47 +0000";
layers = (
{
layerId = m01;
shapes = (
{
closed = 1;
nodes = (
(246,520,o),
(224,547,o),
(191,547,cs),
(156,547,o),
(124,520,o),
(118,485,cs),
(112,450,o),
(134,423,o),
(169,423,cs),
(202,423,o),
(234,450,o),
(240,485,cs)
);
},
{
closed = 1;
nodes = (
(-31,-129,ls),
(-35,-136,o),
(-30,-143,o),
(-23,-143,cs),
(17,-143,ls),
(20,-143,o),
(24,-141,o),
(26,-137,cs),
(173,110,ls),
(177,118,o),
(174,126,o),
(165,126,cs),
(90,126,ls),
(86,126,o),
(81,124,o),
(79,119,cs)
);
}
);
width = 264;
}
);
note = semicolon;
unicode = 59;
},
{
glyphname = less;
lastChange = "2022-10-20 15:33:47 +0000";
layers = (
{
layerId = m01;
shapes = (
{
closed = 1;
nodes = (
(205,358,ls),
(201,363,o),
(202,369,o),
(208,374,cs),
(465,582,ls),
(471,587,o),
(470,595,o),
(463,595,cs),
(368,595,ls),
(367,595,o),
(365,594,o),
(364,594,cs),
(93,373,ls),
(87,368,o),
(87,363,o),
(91,358,cs),
(284,137,ls),
(285,137,o),
(285,136,o),
(286,136,cs),
(381,136,ls),
(388,136,o),
(393,144,o),
(389,149,cs)
);
}
);
width = 555;
}
);
note = less;
unicode = 60;
},
{
glyphname = equal;
lastChange = "2022-10-20 15:33:47 +0000";
layers = (
{
layerId = m01;
shapes = (
{
closed = 1;
nodes = (
(77,230,ls),
(76,224,o),
(79,220,o),
(85,220,cs),
(585,220,ls),
(591,220,o),
(596,224,o),
(597,230,cs),
(607,287,ls),
(608,293,o),
(605,297,o),
(599,297,cs),
(99,297,ls),
(93,297,o),
(88,293,o),
(87,287,cs)
);
},
{
closed = 1;
nodes = (
(115,445,ls),
(114,439,o),
(117,435,o),
(123,435,cs),
(623,435,ls),
(629,435,o),
(634,439,o),
(635,445,cs),
(645,502,ls),
(646,508,o),
(643,512,o),
(637,512,cs),
(137,512,ls),
(131,512,o),
(126,508,o),
(125,502,cs)
);
}
);
width = 723;
}
);
note = equal;
unicode = 61;
},
{
glyphname = greater;
lastChange = "2022-10-20 15:33:47 +0000";
layers = (
{
layerId = m01;
shapes = (
{
closed = 1;
nodes = (
(69,149,ls),
(63,144,o),
(64,136,o),
(71,136,cs),
(166,136,ls),
(167,136,o),
(170,137,o),
(170,137,cs),
(442,358,ls),
(448,363,o),
(449,369,o),
(445,374,cs),
(250,594,ls),
(250,594,o),
(249,595,o),
(248,595,cs),
(153,595,ls),
(146,595,o),
(141,587,o),
(145,582,cs),
(330,374,ls),
(334,369,o),
(333,363,o),
(327,358,cs)
);
}
);
width = 539;
}
);
note = greater;
unicode = 62;
},
{
glyphname = question;
lastChange = "2022-10-20 15:33:47 +0000";
layers = (
{
layerId = m01;
shapes = (
{
closed = 1;
nodes = (
(140,505,ls),
(145,505,o),
(151,509,o),
(152,515,cs),
(169,587,o),
(227,630,o),
(305,630,cs),
(386,630,o),
(430,580,o),
(415,500,cs),
(394,379,o),
(293,357,o),
(179,357,cs),
(150,357,l),
(128,209,ls),
(127,204,o),
(131,199,o),
(136,199,cs),
(195,199,ls),
(200,199,o),
(206,204,o),
(207,209,cs),
(225,294,l),
(365,294,o),
(477,354,o),
(502,500,cs),
(525,627,o),
(449,706,o),
(318,706,cs),
(191,706,o),
(91,631,o),
(66,515,cs),
(65,509,o),
(68,505,o),
(74,505,cs)
);
},
{
closed = 1;
nodes = (
(206,91,o),
(184,118,o),
(151,118,cs),
(116,118,o),
(84,91,o),
(78,56,cs),
(72,21,o),
(94,-6,o),
(129,-6,cs),
(162,-6,o),
(194,21,o),
(200,56,cs)
);
}
);
width = 524;
}
);
note = question;
unicode = 63;
},
{
glyphname = at;
lastChange = "2022-10-20 15:33:47 +0000";
layers = (
{
layerId = m01;
shapes = (
{
closed = 1;
nodes = (
(825,-12,o),
(933,151,o),
(960,307,cs),
(996,508,o),
(881,646,o),
(652,646,cs),
(355,646,o),
(102,421,o),
(51,133,cs),
(15,-73,o),
(137,-204,o),
(356,-204,cs),
(423,-204,o),
(492,-193,o),
(555,-169,cs),
(558,-168,o),
(561,-165,o),
(562,-162,cs),
(572,-122,o),
(547,-101,o),
(513,-111,cs),
(471,-124,o),
(427,-129,o),
(387,-129,cs),
(201,-129,o),
(107,-35,o),
(139,141,cs),
(182,384,o),
(388,572,o),
(628,572,cs),
(817,572,o),
(906,474,o),
(875,302,cs),
(857,198,o),
(791,60,o),
(709,60,cs),
(662,60,o),
(660,93,o),
(679,149,cs),
(765,394,ls),
(773,421,o),
(759,444,o),
(731,444,cs),
(701,444,ls),
(696,444,o),
(693,440,o),
(691,436,cs),
(675,392,l),
(657,433,o),
(619,454,o),
(560,454,cs),
(411,454,o),
(285,316,o),
(258,165,cs),
(239,59,o),
(289,-12,o),
(395,-12,cs),
(462,-12,o),
(534,20,o),
(586,73,c),
(586,22,o),
(616,-12,o),
(682,-12,cs)
);
},
{
closed = 1;
nodes = (
(603,146,o),
(522,69,o),
(436,69,cs),
(369,69,o),
(344,113,o),
(356,179,cs),
(373,277,o),
(449,374,o),
(546,374,cs),
(621,374,o),
(645,319,o),
(627,247,cs)
);
}
);
width = 1013;
}
);
note = at;
unicode = 64;
},
{
glyphname = A;
lastChange = "2022-10-20 15:33:47 +0000";
layers = (
{
layerId = m01;
shapes = (
{
closed = 1;
nodes = (
(479,28,ls),
(482,9,o),
(494,0,o),
(514,0,cs),
(568,0,ls),
(575,0,o),
(579,4,o),
(578,11,cs),
(456,665,ls),
(453,684,o),
(441,693,o),
(421,693,cs),
(376,693,ls),
(356,693,o),
(342,684,o),
(331,665,cs),
(-22,11,ls),
(-25,4,o),
(-23,0,o),
(-16,0,cs),
(38,0,ls),
(58,0,o),
(72,9,o),
(83,28,cs),
(147,147,ls),
(150,153,o),
(155,155,o),
(160,155,cs),
(446,155,ls),
(451,155,o),
(456,153,o),
(457,147,cs)
);
},
{
closed = 1;
nodes = (
(440,240,ls),
(441,233,o),
(437,229,o),
(430,229,cs),
(202,229,ls),
(195,229,o),
(193,233,o),
(196,240,cs),
(368,563,ls),
(373,571,o),
(381,571,o),
(382,563,cs)
);
}
);
width = 674;
}
);
note = A;
unicode = 65;
},
{
glyphname = B;
lastChange = "2022-10-20 15:33:47 +0000";
layers = (
{
layerId = m01;
shapes = (
{
closed = 1;
nodes = (
(433,120,o),
(371,75,o),
(281,75,cs),
(120,75,l),
(157,286,ls),
(161,308,o),
(176,321,o),
(198,321,cs),
(321,321,ls),
(410,321,o),
(460,273,o),
(446,196,cs)
);
},
{
closed = 1;
nodes = (
(471,438,o),
(414,396,o),
(329,396,cs),
(176,396,l),
(210,587,ls),
(214,609,o),
(229,622,o),
(251,622,cs),
(367,622,ls),
(456,622,o),
(496,578,o),
(483,509,cs)
);
},
{
closed = 1;
nodes = (
(551,273,o),
(502,346,o),
(428,359,c),
(499,381,o),
(563,432,o),
(578,520,cs),
(595,617,o),
(536,697,o),
(389,697,cs),
(149,697,ls),
(143,697,o),
(138,693,o),
(137,687,cs),
(17,10,ls),
(16,4,o),
(19,0,o),
(25,0,cs),
(275,0,ls),
(419,0,o),
(517,82,o),
(535,187,cs)
);
}
);
width = 613;
}
);
note = B;
unicode = 66;
},
{
glyphname = C;
lastChange = "2022-10-20 15:33:47 +0000";
layers = (
{
layerId = m01;
shapes = (
{
closed = 1;
nodes = (
(6,140,o),
(133,-6,o),
(328,-6,cs),
(475,-6,o),
(605,65,o),
(681,191,cs),
(685,198,o),
(682,203,o),
(675,203,cs),
(607,203,ls),
(588,203,o),
(575,195,o),
(562,178,cs),
(509,111,o),
(433,73,o),
(342,73,cs),
(196,73,o),
(106,179,o),
(136,349,cs),
(166,520,o),
(294,626,o),
(440,626,cs),
(531,626,o),
(593,588,o),
(622,520,cs),
(629,503,o),
(640,495,o),
(659,495,cs),
(727,495,ls),
(734,495,o),
(738,500,o),
(737,507,cs),
(705,634,o),
(601,706,o),
(454,706,cs),
(259,706,o),
(80,558,o),
(43,349,cs)
);
}
);
width = 772;
}
);
note = C;
unicode = 67;
},
{
glyphname = D;
lastChange = "2022-10-20 15:33:47 +0000";
layers = (
{
layerId = m01;
shapes = (
{
closed = 1;
nodes = (
(174,697,ls),
(152,697,o),
(136,684,o),
(132,662,cs),
(17,10,ls),
(16,4,o),
(19,0,o),
(25,0,cs),
(232,0,ls),
(461,0,o),
(626,131,o),
(664,347,cs),
(702,563,o),
(585,697,o),
(356,697,cs)
);
},
{
closed = 1;
nodes = (
(130,75,ls),
(124,75,o),
(120,79,o),
(121,85,cs),
(210,588,ls),
(214,610,o),
(229,623,o),
(251,623,cs),
(342,623,ls),
(524,623,o),
(601,517,o),
(571,347,cs),
(541,177,o),
(428,75,o),
(246,75,cs)
);
}
);
width = 707;
}
);
note = D;
unicode = 68;
},
{
glyphname = E;
lastChange = "2022-10-20 15:33:47 +0000";
layers = (
{
layerId = m01;
shapes = (
{
closed = 1;
nodes = (
(512,688,ls),
(513,694,o),
(510,698,o),
(504,698,cs),
(149,698,ls),
(143,698,o),
(138,694,o),
(137,688,cs),
(17,10,ls),
(16,4,o),
(19,0,o),
(25,0,cs),
(380,0,ls),
(386,0,o),
(391,4,o),
(392,10,cs),
(397,40,ls),
(401,62,o),
(391,75,o),
(369,75,cs),
(130,75,ls),
(124,75,o),
(120,79,o),
(121,85,cs),
(160,305,ls),
(161,311,o),
(166,315,o),
(172,315,cs),
(406,315,ls),
(412,315,o),
(417,319,o),
(418,325,cs),
(427,380,ls),
(429,386,o),
(425,390,o),
(419,390,cs),
(185,390,ls),
(179,390,o),
(176,394,o),
(177,400,cs),
(215,613,ls),
(216,619,o),
(220,623,o),
(226,623,cs),
(465,623,ls),
(487,623,o),
(503,636,o),
(507,658,cs)
);
}
);
width = 513;
}
);
note = E;
unicode = 69;
},
{
glyphname = F;
lastChange = "2022-10-20 15:33:47 +0000";
layers = (
{
layerId = m01;
shapes = (
{
closed = 1;
nodes = (
(17,10,ls),
(16,4,o),
(19,0,o),
(25,0,cs),
(96,0,ls),
(102,0,o),
(107,4,o),
(108,10,cs),
(160,304,ls),
(161,310,o),
(166,314,o),
(172,314,cs),
(398,314,ls),
(404,314,o),
(409,318,o),
(410,324,cs),
(419,378,ls),
(420,384,o),
(417,388,o),
(411,388,cs),
(185,388,ls),
(179,388,o),
(176,392,o),
(177,398,cs),
(210,588,ls),
(214,610,o),
(229,623,o),
(251,623,cs),
(484,623,ls),
(506,623,o),
(522,636,o),
(526,658,cs),
(531,687,ls),
(532,693,o),
(529,697,o),
(523,697,cs),
(174,697,ls),
(152,697,o),
(136,684,o),
(132,662,cs)
);
}
);
width = 504;
}
);
note = F;
unicode = 70;
},
{
glyphname = G;
lastChange = "2022-10-20 15:33:47 +0000";
layers = (
{
layerId = m01;
shapes = (
{
closed = 1;
nodes = (
(260,705,o),
(80,558,o),
(43,349,cs),
(6,140,o),
(134,-6,o),
(330,-6,cs),
(519,-6,o),
(681,133,o),
(727,306,c),
(738,366,ls),
(739,372,o),
(736,376,o),
(730,376,cs),
(400,376,ls),
(378,376,o),
(362,363,o),
(358,341,cs),
(353,312,ls),
(352,306,o),
(356,302,o),
(362,302,cs),
(619,302,ls),
(625,302,o),
(629,298,o),
(627,291,cs),
(585,159,o),
(478,76,o),
(345,76,cs),
(198,76,o),
(106,182,o),
(136,349,cs),
(166,517,o),
(294,623,o),
(441,623,cs),
(536,623,o),
(603,579,o),
(628,502,cs),
(630,497,o),
(634,495,o),
(639,495,cs),
(727,495,ls),
(734,495,o),
(739,500,o),
(737,507,cs),
(705,633,o),
(599,705,o),
(456,705,cs)
);
}
);
width = 778;
}
);
note = G;
unicode = 71;
},
{
glyphname = H;
lastChange = "2022-10-20 15:33:47 +0000";
layers = (
{
layerId = m01;
shapes = (
{
closed = 1;
nodes = (
(466,25,ls),
(463,9,o),
(470,0,o),
(486,0,cs),
(542,0,ls),
(548,0,o),
(553,4,o),
(554,10,cs),
(674,687,ls),
(675,693,o),
(672,697,o),
(666,697,cs),
(595,697,ls),
(589,697,o),
(584,693,o),
(583,687,cs),
(535,416,ls),
(532,400,o),
(522,391,o),
(506,391,cs),
(186,391,ls),
(180,391,o),
(176,395,o),
(177,401,cs),
(225,672,ls),
(228,688,o),
(221,697,o),
(205,697,cs),
(149,697,ls),
(143,697,o),
(138,693,o),
(137,687,cs),
(17,10,ls),
(16,4,o),
(19,0,o),
(25,0,cs),
(96,0,ls),
(102,0,o),
(107,4,o),
(108,10,cs),
(158,291,ls),
(161,307,o),
(171,316,o),
(187,316,cs),
(507,316,ls),
(513,316,o),
(517,312,o),
(515,306,cs)
);
}
);
width = 691;
}
);
note = H;
unicode = 72;
},
{
glyphname = I;
lastChange = "2022-10-20 15:33:47 +0000";
layers = (
{
layerId = m01;
shapes = (
{
closed = 1;
nodes = (
(15,0,l),
(106,0,l),
(230,697,l),
(139,697,l)
);
}
);
width = 246;
}
);
note = I;
unicode = 73;
},
{
glyphname = J;
lastChange = "2022-10-20 15:33:47 +0000";
layers = (
{
layerId = m01;
shapes = (
{
closed = 1;
nodes = (
(307,182,ls),
(297,124,o),
(259,74,o),
(187,74,cs),
(128,74,o),
(103,108,o),
(102,156,cs),
(102,178,o),
(93,189,o),
(71,189,cs),
(23,189,ls),
(17,189,o),
(13,185,o),
(12,179,cs),
(-5,63,o),
(60,-7,o),
(173,-7,cs),
(288,-7,o),
(379,66,o),
(399,182,cs),
(488,687,ls),
(489,693,o),
(486,697,o),
(480,697,cs),
(433,697,ls),
(411,697,o),
(396,684,o),
(392,662,cs)
);
}
);
width = 530;
}
);
note = J;
unicode = 74;
},
{
glyphname = K;
lastChange = "2022-10-20 15:33:47 +0000";
layers = (
{
layerId = m01;
shapes = (
{
closed = 1;
nodes = (
(389,5,ls),
(392,1,o),
(395,0,o),
(400,0,cs),
(495,0,ls),
(503,0,o),
(508,5,o),
(504,12,cs),
(260,341,ls),
(257,346,o),
(257,351,o),
(262,355,cs),
(619,685,ls),
(626,691,o),
(624,697,o),
(616,697,cs),
(544,697,ls),
(526,697,o),
(511,691,o),
(497,678,cs),
(187,388,ls),
(180,381,o),
(174,383,o),
(176,392,cs),
(223,662,ls),
(227,684,o),
(217,697,o),
(195,697,cs),
(149,697,ls),
(143,697,o),
(138,693,o),
(137,687,cs),
(22,35,ls),
(18,13,o),
(28,0,o),
(50,0,cs),
(96,0,ls),
(102,0,o),
(107,4,o),
(108,10,cs),
(159,300,ls),
(161,309,o),
(167,311,o),
(172,304,cs)
);
}
);
width = 599;
}
);
note = K;
unicode = 75;
},
{
glyphname = L;
lastChange = "2022-10-20 15:33:47 +0000";
layers = (
{
layerId = m01;
shapes = (
{
closed = 1;
nodes = (
(149,697,ls),
(143,697,o),
(138,693,o),
(137,687,cs),
(17,10,ls),
(16,4,o),
(19,0,o),
(25,0,cs),
(340,0,ls),
(346,0,o),
(351,4,o),
(352,10,cs),
(357,39,ls),
(361,61,o),
(351,74,o),
(329,74,cs),
(155,74,ls),
(133,74,o),
(122,87,o),
(126,109,cs),
(223,662,ls),
(227,684,o),
(217,697,o),
(195,697,cs)
);
}
);
width = 432;
}
);
note = L;
unicode = 76;
},
{
glyphname = M;
lastChange = "2022-10-20 15:33:47 +0000";
layers = (
{
layerId = m01;
shapes = (
{
closed = 1;
nodes = (
(18,10,ls),
(17,4,o),
(20,0,o),
(26,0,cs),
(72,0,ls),
(94,0,o),
(109,13,o),
(113,35,cs),
(198,517,l),
(331,26,ls),
(335,7,o),
(348,0,o),
(367,0,cs),
(373,0,ls),
(392,0,o),
(407,7,o),
(419,26,cs),
(723,516,l),
(638,35,ls),
(634,13,o),
(645,0,o),
(667,0,cs),
(713,0,ls),
(719,0,o),
(724,4,o),
(725,10,cs),
(843,682,ls),
(844,688,o),
(841,692,o),
(835,692,cs),
(777,692,ls),
(758,692,o),
(743,685,o),
(731,666,cs),
(424,173,ls),
(408,145,o),
(384,145,o),
(376,173,cs),
(243,666,ls),
(239,685,o),
(226,692,o),
(207,692,cs),
(148,692,ls),
(142,692,o),
(137,688,o),
(136,682,cs)
);
}
);
width = 861;
}
);
note = M;
unicode = 77;
},
{
glyphname = N;
lastChange = "2022-10-20 15:33:47 +0000";
layers = (
{
layerId = m01;
shapes = (
{
closed = 1;
nodes = (
(631,698,ls),
(609,698,o),
(593,685,o),
(589,663,cs),
(502,166,ls),
(500,157,o),
(493,154,o),
(489,162,cs),
(241,675,ls),
(233,691,o),
(222,698,o),
(203,698,cs),
(149,698,ls),
(143,698,o),
(138,694,o),
(137,688,cs),
(17,10,ls),
(16,4,o),
(19,0,o),
(25,0,cs),
(71,0,ls),
(93,0,o),
(109,13,o),
(113,35,cs),
(200,533,ls),
(202,542,o),
(210,545,o),
(213,537,cs),
(461,23,ls),
(469,7,o),
(480,0,o),
(499,0,cs),
(553,0,ls),
(559,0,o),
(564,4,o),
(565,10,cs),
(685,688,ls),
(686,694,o),
(683,698,o),
(677,698,cs)
);
}
);
width = 703;
}
);
note = N;
unicode = 78;
},
{
glyphname = O;
lastChange = "2022-10-20 15:33:47 +0000";
layers = (
{
layerId = m01;
shapes = (
{
closed = 1;
nodes = (
(780,558,o),
(653,705,o),
(456,705,cs),
(260,705,o),
(80,558,o),
(43,349,cs),
(6,140,o),
(134,-7,o),
(330,-7,cs),
(527,-7,o),
(706,140,o),
(743,349,cs)
);
},
{
closed = 1;
nodes = (
(166,520,o),
(295,626,o),
(442,626,cs),
(589,626,o),
(680,520,o),
(650,349,cs),
(620,179,o),
(491,72,o),
(344,72,cs),
(197,72,o),
(106,179,o),
(136,349,cs)
);
}
);
width = 786;
}
);
note = O;
unicode = 79;
},
{
glyphname = P;
lastChange = "2022-10-20 15:33:47 +0000";
layers = (
{
layerId = m01;
shapes = (
{
closed = 1;
nodes = (
(171,366,l),
(210,587,ls),
(214,609,o),
(229,622,o),
(251,622,cs),
(350,622,ls),
(454,622,o),
(490,574,o),
(476,493,cs),
(462,415,o),
(409,366,o),
(305,366,cs)
);
},
{
closed = 1;
nodes = (
(589,607,o),
(528,697,o),
(364,697,cs),
(174,697,ls),
(152,697,o),
(136,684,o),
(132,662,cs),
(17,10,ls),
(16,4,o),
(19,0,o),
(25,0,cs),
(71,0,ls),
(93,0,o),
(109,13,o),
(113,35,cs),
(158,291,l),
(292,291,ls),
(465,291,o),
(550,387,o),
(569,493,cs)
);
}
);
width = 579;
}
);
note = P;
unicode = 80;
},
{
glyphname = Q;
lastChange = "2022-10-20 15:33:47 +0000";
layers = (
{
layerId = m01;
shapes = (
{
closed = 1;
nodes = (
(177,520,o),
(306,626,o),
(453,626,cs),
(600,626,o),
(691,520,o),
(661,349,cs),
(631,179,o),
(502,72,o),
(355,72,cs),
(208,72,o),
(117,179,o),
(147,349,cs)
);
},
{
closed = 1;
nodes = (
(791,558,o),
(664,705,o),
(467,705,cs),
(271,705,o),
(91,558,o),
(54,349,cs),
(17,140,o),
(145,-7,o),
(341,-7,cs),
(374,-7,o),
(408,-3,o),
(439,5,cs),
(445,6,o),
(449,5,o),
(453,1,cs),
(547,-114,ls),
(557,-126,o),
(569,-132,o),
(587,-132,cs),
(663,-132,ls),
(672,-132,o),
(676,-127,o),
(670,-120,cs),
(542,35,ls),
(537,40,o),
(539,45,o),
(546,49,cs),
(651,110,o),
(731,217,o),
(754,349,cs)
);
}
);
width = 788;
}
);
note = Q;
unicode = 81;
},
{
glyphname = R;
lastChange = "2022-10-20 15:33:47 +0000";
layers = (
{
layerId = m01;
shapes = (
{
closed = 1;
nodes = (
(462,414,o),
(407,358,o),
(304,358,cs),
(180,358,ls),
(174,358,o),
(170,362,o),
(171,368,cs),
(210,587,ls),
(214,609,o),
(229,622,o),
(251,622,cs),
(350,622,ls),
(454,622,o),
(489,571,o),
(475,492,cs)
);
},
{
closed = 1;
nodes = (
(174,697,ls),
(152,697,o),
(136,684,o),
(132,662,cs),
(17,10,ls),
(16,4,o),
(19,0,o),
(25,0,cs),
(96,0,ls),
(102,0,o),
(107,4,o),
(108,10,cs),
(155,275,ls),
(156,281,o),
(161,285,o),
(167,285,cs),
(259,285,ls),
(264,285,o),
(267,282,o),
(270,278,cs),
(373,24,ls),
(380,8,o),
(391,0,o),
(410,0,cs),
(477,0,ls),
(485,0,o),
(489,5,o),
(487,12,cs),
(372,282,ls),
(369,289,o),
(373,293,o),
(381,295,cs),
(494,324,o),
(554,406,o),
(569,492,cs),
(589,606,o),
(528,697,o),
(364,697,cs)
);
}
);
width = 608;
}
);
note = R;
unicode = 82;
},
{
glyphname = S;
lastChange = "2022-10-20 15:33:47 +0000";
layers = (
{
layerId = m01;
shapes = (
{
closed = 1;
nodes = (
(547,448,o),
(152,336,o),
(183,516,cs),
(197,591,o),
(263,630,o),
(337,628,cs),
(405,627,o),
(440,593,o),
(451,556,cs),
(456,537,o),
(465,527,o),
(485,527,cs),
(543,527,ls),
(549,527,o),
(555,531,o),
(555,538,cs),
(557,638,o),
(484,706,o),
(355,706,cs),
(217,706,o),
(110,628,o),
(90,513,cs),
(44,254,o),
(442,374,o),
(409,186,cs),
(397,120,o),
(337,70,o),
(249,70,cs),
(169,70,o),
(134,109,o),
(127,155,cs),
(123,176,o),
(114,186,o),
(93,186,cs),
(38,186,ls),
(32,186,o),
(27,182,o),
(26,176,cs),
(15,66,o),
(99,-7,o),
(235,-7,cs),
(386,-7,o),
(484,91,o),
(502,190,cs)
);
}
);
width = 587;
}
);
note = S;
unicode = 83;
},
{
glyphname = T;
lastChange = "2022-10-20 15:33:47 +0000";
layers = (
{
layerId = m01;
shapes = (
{
closed = 1;
nodes = (
(84,633,ls),
(83,627,o),
(86,623,o),
(92,623,cs),
(238,623,ls),
(260,623,o),
(271,610,o),
(267,588,cs),
(165,10,ls),
(164,4,o),
(167,0,o),
(173,0,cs),
(244,0,ls),
(250,0,o),
(255,4,o),
(256,10,cs),
(358,588,ls),
(362,610,o),
(377,623,o),
(399,623,cs),
(544,623,ls),
(550,623,o),
(555,627,o),
(556,633,cs),
(566,687,ls),
(567,693,o),
(564,697,o),
(558,697,cs),
(106,697,ls),
(100,697,o),
(95,693,o),
(94,687,cs)
);
}
);
width = 541;
}
);
note = T;
unicode = 84;
},
{
glyphname = U;
lastChange = "2022-10-20 15:33:47 +0000";
layers = (
{
layerId = m01;
shapes = (
{
closed = 1;
nodes = (
(59,257,ls),
(28,76,o),
(131,-7,o),
(275,-7,cs),
(419,-7,o),
(553,76,o),
(584,257,cs),
(660,687,ls),
(661,693,o),
(658,697,o),
(652,697,cs),
(606,697,ls),
(584,697,o),
(569,684,o),
(565,662,cs),
(493,256,ls),
(471,128,o),
(393,73,o),
(290,73,cs),
(187,73,o),
(128,128,o),
(150,256,cs),
(222,662,ls),
(226,684,o),
(215,697,o),
(193,697,cs),
(147,697,ls),
(141,697,o),
(136,693,o),
(135,687,cs)
);
}
);
width = 675;
}
);
note = U;
unicode = 85;
},
{
glyphname = V;
lastChange = "2022-10-20 15:33:47 +0000";
layers = (
{
layerId = m01;
shapes = (
{
closed = 1;
nodes = (
(328,159,ls),
(311,129,o),
(287,129,o),
(282,159,cs),
(185,676,ls),
(182,690,o),
(172,697,o),
(158,697,cs),
(93,697,ls),
(87,697,o),
(84,693,o),
(85,688,cs),
(218,28,ls),
(222,9,o),
(233,0,o),
(253,0,cs),
(298,0,ls),
(318,0,o),
(333,9,o),
(343,28,cs),
(710,688,ls),
(713,693,o),
(712,697,o),
(706,697,cs),
(642,697,ls),
(628,697,o),
(614,690,o),
(607,676,cs)
);
}
);
width = 676;
}
);
note = V;
unicode = 86;
},
{
glyphname = W;
lastChange = "2022-10-20 15:33:47 +0000";
layers = (
{
layerId = m01;
shapes = (
{
closed = 1;
nodes = (
(154,29,ls),
(156,8,o),
(167,-1,o),
(187,-1,cs),
(228,0,ls),
(248,0,o),
(262,10,o),
(272,29,cs),
(488,486,ls),
(504,519,o),
(530,518,o),
(533,485,cs),
(584,29,ls),
(586,9,o),
(599,0,o),
(619,0,cs),
(659,0,ls),
(679,0,o),
(694,9,o),
(704,29,cs),
(1010,686,ls),
(1013,693,o),
(1010,697,o),
(1003,697,cs),
(948,697,ls),
(927,697,o),
(912,688,o),
(903,667,cs),
(695,190,ls),
(680,157,o),
(655,157,o),
(652,190,cs),
(606,667,ls),
(605,687,o),
(593,697,o),
(573,697,cs),
(533,697,ls),
(513,697,o),
(498,687,o),
(488,667,cs),
(266,186,ls),
(252,153,o),
(226,154,o),
(223,187,cs),
(184,667,ls),
(183,688,o),
(172,697,o),
(151,697,cs),
(97,697,ls),
(90,697,o),
(85,693,o),
(86,686,cs)
);
}
);
width = 976;
}
);
note = W;
unicode = 87;
},
{
glyphname = X;
lastChange = "2022-10-20 15:33:47 +0000";
layers = (
{
layerId = m01;
shapes = (
{
closed = 1;
nodes = (
(409,7,ls),
(411,3,o),
(414,0,o),
(419,0,cs),
(500,0,ls),
(508,0,o),
(512,5,o),
(510,12,cs),
(373,324,ls),
(365,340,o),
(368,356,o),
(381,372,cs),
(629,685,ls),
(635,692,o),
(633,697,o),
(625,697,cs),
(545,697,ls),
(540,697,o),
(535,694,o),
(531,690,cs),
(360,465,ls),
(342,442,o),
(320,441,o),
(310,464,cs),
(211,690,ls),
(209,694,o),
(206,697,o),
(201,697,cs),
(121,697,ls),
(113,697,o),
(109,692,o),
(111,685,cs),
(248,372,ls),
(255,356,o),
(252,340,o),
(240,324,cs),
(-6,12,ls),
(-12,5,o),
(-10,0,o),
(-2,0,cs),
(77,0,ls),
(82,0,o),
(87,3,o),
(91,7,cs),
(261,231,ls),
(279,254,o),
(300,255,o),
(310,232,cs)
);
}
);
width = 621;
}
);
note = X;
unicode = 88;
},
{
glyphname = Y;
lastChange = "2022-10-20 15:33:47 +0000";
layers = (
{
layerId = m01;
shapes = (
{
closed = 1;
nodes = (
(224,283,ls),
(230,269,o),
(231,256,o),
(228,240,cs),
(187,10,ls),
(186,4,o),
(189,0,o),
(195,0,cs),
(266,0,ls),
(272,0,o),
(277,4,o),
(278,10,cs),
(319,240,ls),
(322,256,o),
(327,269,o),
(337,283,cs),
(618,685,ls),
(623,692,o),
(621,697,o),
(614,697,cs),
(534,697,ls),
(529,697,o),
(523,695,o),
(520,690,cs),
(324,393,ls),
(306,367,o),
(284,367,o),
(276,393,cs),
(184,690,ls),
(183,695,o),
(179,697,o),
(174,697,cs),
(94,697,ls),
(87,697,o),
(83,692,o),
(84,685,cs)
);
}
);
width = 584;
}
);
note = Y;
unicode = 89;
},
{
glyphname = Z;
lastChange = "2022-10-20 15:33:47 +0000";
layers = (
{
layerId = m01;
shapes = (
{
closed = 1;
nodes = (
(552,687,ls),
(553,693,o),
(550,697,o),
(544,697,cs),
(122,697,ls),
(116,697,o),
(111,693,o),
(110,687,cs),
(104,653,ls),
(100,631,o),
(111,618,o),
(133,618,cs),
(418,618,ls),
(426,618,o),
(428,613,o),
(422,606,cs),
(2,78,ls),
(0,74,o),
(-3,69,o),
(-4,65,cs),
(-14,10,ls),
(-15,4,o),
(-12,0,o),
(-6,0,cs),
(432,0,l),
(440,44,ls),
(444,66,o),
(433,79,o),
(411,79,cs),
(120,79,ls),
(112,79,o),
(110,84,o),
(116,91,cs),
(536,619,ls),
(538,623,o),
(541,628,o),
(542,632,cs)
);
}
);
width = 541;
}
);
note = Z;
unicode = 90;
},
{
glyphname = bracketleft;
lastChange = "2022-10-20 15:33:47 +0000";
layers = (
{
layerId = m01;
shapes = (
{
closed = 1;
nodes = (
(36,-176,ls),
(35,-182,o),
(38,-186,o),
(44,-186,cs),
(204,-186,ls),
(210,-186,o),
(215,-182,o),
(216,-176,cs),
(226,-120,ls),
(227,-114,o),
(224,-110,o),
(218,-110,cs),
(169,-110,ls),
(149,-110,o),
(135,-94,o),
(139,-74,cs),
(297,823,ls),
(301,843,o),
(320,859,o),
(340,859,cs),
(389,859,ls),
(395,859,o),
(399,863,o),
(400,869,cs),
(410,924,ls),
(411,930,o),
(408,934,o),
(402,934,cs),
(242,934,ls),
(236,934,o),
(231,930,o),
(230,924,cs)
);
}
);
width = 423;
}
);
note = bracketleft;
unicode = 91;
},
{
glyphname = backslash;
lastChange = "2022-10-20 15:33:47 +0000";
layers = (
{
layerId = m01;
shapes = (
{
closed = 1;
nodes = (
(319,942,l),
(229,942,l),
(346,-170,l),
(436,-170,l)
);
}
);
width = 658;
}
);
note = backslash;
unicode = 92;
},
{
glyphname = bracketright;
lastChange = "2022-10-20 15:33:47 +0000";
layers = (
{
layerId = m01;
shapes = (
{
closed = 1;
nodes = (
(193,-176,ls),
(192,-182,o),
(187,-186,o),
(181,-186,cs),
(21,-186,ls),
(15,-186,o),
(12,-182,o),
(13,-176,cs),
(23,-120,ls),
(24,-114,o),
(29,-110,o),
(35,-110,cs),
(84,-110,ls),
(104,-110,o),
(122,-94,o),
(126,-74,cs),
(284,823,ls),
(288,843,o),
(275,859,o),
(255,859,cs),
(206,859,ls),
(200,859,o),
(196,863,o),
(197,869,cs),
(207,924,ls),
(208,930,o),
(213,934,o),
(219,934,cs),
(379,934,ls),
(385,934,o),
(388,930,o),
(387,924,cs)
);
}
);
width = 423;
}
);
note = bracketright;
unicode = 93;
},
{
glyphname = asciicircum;
lastChange = "2022-10-20 15:33:47 +0000";
layers = (
{
layerId = m01;
shapes = (
{
closed = 1;
nodes = (
(451,174,ls),
(451,171,o),
(455,169,o),
(458,169,cs),
(529,169,ls),
(538,169,o),
(544,178,o),
(542,186,cs),
(408,674,ls),
(405,685,o),
(395,693,o),
(383,693,cs),
(339,693,ls),
(327,693,o),
(314,685,o),
(307,674,cs),
(2,186,ls),
(-4,178,o),
(0,169,o),
(9,169,cs),
(79,169,ls),
(82,169,o),
(86,171,o),
(88,174,cs),
(280,481,ls),
(306,523,o),
(357,523,o),
(369,481,cs)
);
}
);
width = 629;
}
);
note = asciicircum;
unicode = 94;
},
{
glyphname = underscore;
lastChange = "2022-10-20 15:33:47 +0000";
layers = (
{
layerId = m01;
shapes = (
{
closed = 1;
nodes = (
(99,-112,ls),
(98,-118,o),
(102,-122,o),
(108,-122,cs),
(620,-122,ls),
(626,-122,o),
(630,-118,o),
(631,-112,cs),
(643,-48,ls),
(644,-42,o),
(640,-38,o),
(634,-38,cs),
(122,-38,ls),
(116,-38,o),
(112,-42,o),
(111,-48,cs)
);
}
);
width = 733;
}
);
note = underscore;
unicode = 95;
},
{
glyphname = grave;
lastChange = "2022-10-20 15:33:47 +0000";
layers = (
{
layerId = m01;
shapes = (
{
closed = 1;
nodes = (
(21,708,ls),
(20,705,o),
(22,701,o),
(25,700,cs),
(197,599,ls),
(205,594,o),
(215,600,o),
(217,610,cs),
(224,652,ls),
(225,655,o),
(223,659,o),
(222,660,cs),
(51,771,ls),
(43,777,o),
(32,770,o),
(30,760,cs)
);
}
);
width = 257;
}
);
note = grave;
unicode = 96;
},
{
glyphname = a;
lastChange = "2022-10-20 15:33:47 +0000";
layers = (
{
layerId = m01;
shapes = (
{
closed = 1;
nodes = (
(466,34,ls),
(462,12,o),
(472,-1,o),
(494,-1,cs),
(540,-1,ls),
(546,-1,o),
(551,3,o),
(552,9,cs),
(643,523,ls),
(647,545,o),
(636,558,o),
(614,558,cs),
(568,558,ls),
(562,558,o),
(557,554,o),
(556,548,cs),
(538,446,l),
(514,502,o),
(453,556,o),
(353,556,cs),
(206,556,o),
(72,441,o),
(42,271,cs),
(12,100,o),
(106,-10,o),
(253,-10,cs),
(353,-10,o),
(434,42,o),
(477,100,c)
);
},
{
closed = 1;
nodes = (
(151,395,o),
(246,469,o),
(343,469,cs),
(438,469,o),
(510,396,o),
(488,272,cs),
(466,150,o),
(369,76,o),
(274,76,cs),
(177,76,o),
(108,147,o),
(129,271,cs)
);
}
);
width = 676;
}
);
note = a;
unicode = 97;
},
{
glyphname = b;
lastChange = "2022-10-20 15:33:47 +0000";
layers = (
{
layerId = m01;
shapes = (
{
closed = 1;
nodes = (
(144,42,o),
(207,-10,o),
(307,-10,cs),
(454,-10,o),
(586,100,o),
(616,271,cs),
(646,441,o),
(554,556,o),
(407,556,cs),
(307,556,o),
(226,502,o),
(182,446,c),
(232,730,ls),
(233,736,o),
(230,740,o),
(224,740,cs),
(178,740,ls),
(156,740,o),
(141,727,o),
(137,705,cs),
(14,9,ls),
(13,3,o),
(16,-1,o),
(22,-1,cs),
(68,-1,ls),
(90,-1,o),
(106,12,o),
(110,34,cs),
(121,100,l)
);
},
{
closed = 1;
nodes = (
(508,147,o),
(413,76,o),
(316,76,cs),
(221,76,o),
(150,150,o),
(172,272,cs),
(193,396,o),
(290,469,o),
(385,469,cs),
(482,469,o),
(551,395,o),
(529,271,cs)
);
}
);
width = 676;
}
);
note = b;
unicode = 98;
},
{
glyphname = c;
lastChange = "2022-10-20 15:33:47 +0000";
layers = (
{
layerId = m01;
shapes = (
{
closed = 1;
nodes = (
(12,101,o),
(104,-9,o),
(260,-9,cs),
(391,-9,o),
(492,62,o),
(541,165,cs),
(544,172,o),
(541,176,o),
(534,176,cs),
(478,176,ls),
(458,176,o),
(444,167,o),
(432,148,cs),
(398,97,o),
(343,68,o),
(274,68,cs),
(174,68,o),
(112,139,o),
(136,275,cs),
(160,409,o),
(246,480,o),
(346,480,cs),
(415,480,o),
(460,449,o),
(476,400,cs),
(482,381,o),
(492,372,o),
(512,372,cs),
(568,372,ls),
(575,372,o),
(580,376,o),
(579,383,cs),
(567,492,o),
(492,557,o),
(360,557,cs),
(204,557,o),
(74,447,o),
(43,275,cs)
);
}
);
width = 607;
}
);
note = c;
unicode = 99;
},
{
glyphname = d;
lastChange = "2022-10-20 15:33:47 +0000";
layers = (
{
layerId = m01;
shapes = (
{
closed = 1;
nodes = (
(450,34,ls),
(446,12,o),
(456,-1,o),
(478,-1,cs),
(524,-1,ls),
(530,-1,o),
(535,3,o),
(536,9,cs),
(659,705,ls),
(663,727,o),
(652,740,o),
(630,740,cs),
(584,740,ls),
(578,740,o),
(573,736,o),
(572,730,cs),
(522,446,l),
(498,502,o),
(437,556,o),
(337,556,cs),
(190,556,o),
(56,441,o),
(26,271,cs),
(-4,100,o),
(90,-10,o),
(237,-10,cs),
(337,-10,o),
(418,42,o),
(461,100,c)
);
},
{
closed = 1;
nodes = (
(135,395,o),
(230,469,o),
(327,469,cs),
(422,469,o),
(493,396,o),
(472,272,cs),
(450,150,o),
(353,76,o),
(258,76,cs),
(161,76,o),
(92,147,o),
(113,271,cs)
);
}
);
width = 676;
}
);
note = d;
unicode = 100;
},
{
glyphname = e;
lastChange = "2022-10-20 15:33:47 +0000";
layers = (
{
layerId = m01;
shapes = (
{
closed = 1;
nodes = (
(437,480,o),
(505,425,o),
(492,325,cs),
(491,318,o),
(486,314,o),
(480,314,cs),
(155,314,ls),
(149,314,o),
(145,318,o),
(147,325,cs),
(179,425,o),
(260,480,o),
(346,480,cs)
);
},
{
closed = 1;
nodes = (
(478,169,ls),
(458,169,o),
(446,160,o),
(433,143,cs),
(400,98,o),
(347,68,o),
(278,68,cs),
(188,68,o),
(122,125,o),
(129,229,cs),
(129,236,o),
(134,240,o),
(140,240,cs),
(558,240,ls),
(564,240,o),
(569,243,o),
(571,249,cs),
(574,265,o),
(578,278,o),
(581,295,cs),
(607,445,o),
(523,557,o),
(364,557,cs),
(204,557,o),
(74,448,o),
(43,275,cs),
(12,101,o),
(108,-9,o),
(264,-9,cs),
(400,-9,o),
(502,69,o),
(547,169,c)
);
}
);
width = 620;
}
);
note = e;
unicode = 101;
},
{
glyphname = f;
lastChange = "2022-10-20 15:33:47 +0000";
layers = (
{
layerId = m01;
shapes = (
{
closed = 1;
nodes = (
(28,10,ls),
(27,4,o),
(31,0,o),
(37,0,cs),
(108,0,ls),
(114,0,o),
(118,4,o),
(119,10,cs),
(199,463,ls),
(200,469,o),
(205,473,o),
(211,473,cs),
(306,473,ls),
(312,473,o),
(317,477,o),
(318,483,cs),
(328,538,ls),
(329,544,o),
(325,548,o),
(319,548,cs),
(224,548,ls),
(218,548,o),
(215,552,o),
(216,558,cs),
(221,587,ls),
(232,647,o),
(256,678,o),
(313,686,cs),
(336,689,o),
(350,700,o),
(354,722,cs),
(360,754,ls),
(361,760,o),
(357,764,o),
(351,764,cs),
(218,761,o),
(151,706,o),
(130,587,cs),
(125,558,ls),
(124,552,o),
(119,548,o),
(113,548,cs),
(62,548,ls),
(56,548,o),
(52,544,o),
(51,538,cs),
(41,483,ls),
(40,477,o),
(43,473,o),
(49,473,cs),
(75,473,ls),
(97,473,o),
(108,460,o),
(104,438,cs)
);
}
);
width = 329;
}
);
note = f;
unicode = 102;
},
{
glyphname = g;
lastChange = "2022-10-20 15:33:47 +0000";
layers = (
{
layerId = m01;
shapes = (
{
closed = 1;
nodes = (
(546,-151,o),
(427,-258,o),
(266,-258,cs),
(122,-258,o),
(32,-185,o),
(35,-68,c),
(116,-68,ls),
(121,-68,o),
(125,-71,o),
(126,-76,cs),
(137,-138,o),
(194,-179,o),
(280,-179,cs),
(377,-179,o),
(461,-117,o),
(482,0,c),
(573,0,l)
);
},
{
closed = 1;
nodes = (
(572,513,ls),
(576,535,o),
(591,548,o),
(613,548,cs),
(659,548,ls),
(665,548,o),
(669,544,o),
(668,538,cs),
(573,0,ls),
(570,-17,o),
(479,-17,o),
(482,0,cs),
(499,101,l),
(456,45,o),
(375,-9,o),
(275,-9,cs),
(128,-9,o),
(35,106,o),
(65,276,cs),
(96,447,o),
(228,557,o),
(375,557,cs),
(475,557,o),
(538,505,o),
(561,447,c)
);
},
{
closed = 1;
nodes = (
(130,152,o),
(199,78,o),
(296,78,cs),
(391,78,o),
(488,151,o),
(510,275,cs),
(532,397,o),
(461,471,o),
(366,471,cs),
(269,471,o),
(174,400,o),
(152,276,cs)
);
}
);
width = 676;
}
);
note = g;
unicode = 103;
},
{
glyphname = h;
lastChange = "2022-10-20 15:33:47 +0000";
layers = (
{
layerId = m01;
shapes = (
{
closed = 1;
nodes = (
(417,25,ls),
(414,9,o),
(422,0,o),
(438,0,cs),
(493,0,ls),
(499,0,o),
(503,4,o),
(504,10,cs),
(560,323,ls),
(587,480,o),
(504,558,o),
(377,558,cs),
(303,558,o),
(232,527,o),
(186,470,c),
(229,715,ls),
(232,731,o),
(224,740,o),
(208,740,cs),
(152,740,ls),
(146,740,o),
(142,736,o),
(141,730,cs),
(13,10,ls),
(12,4,o),
(16,0,o),
(22,0,cs),
(93,0,ls),
(99,0,o),
(103,4,o),
(104,10,cs),
(156,303,ls),
(177,421,o),
(251,479,o),
(344,479,cs),
(436,479,o),
(487,422,o),
(467,310,cs)
);
}
);
width = 640;
}
);
note = h;
unicode = 104;
},
{
glyphname = i;
lastChange = "2022-10-20 15:33:47 +0000";
layers = (
{
layerId = m01;
shapes = (
{
closed = 1;
nodes = (
(17,25,ls),
(14,9,o),
(21,0,o),
(37,0,cs),
(93,0,ls),
(99,0,o),
(104,4,o),
(105,10,cs),
(195,523,ls),
(198,539,o),
(191,548,o),
(175,548,cs),
(119,548,ls),
(113,548,o),
(108,544,o),
(107,538,cs)
);
},
{
closed = 1;
nodes = (
(199,623,o),
(227,647,o),
(233,679,cs),
(239,711,o),
(219,735,o),
(189,735,cs),
(157,735,o),
(129,711,o),
(123,679,cs),
(117,647,o),
(137,623,o),
(169,623,cs)
);
}
);
width = 246;
}
);
note = i;
unicode = 105;
},
{
glyphname = j;
lastChange = "2022-10-20 15:33:47 +0000";
layers = (
{
layerId = m01;
shapes = (
{
closed = 1;
nodes = (
(145,548,ls),
(139,548,o),
(134,544,o),
(133,538,cs),
(18,-117,ls),
(8,-172,o),
(-19,-188,o),
(-85,-182,cs),
(-95,-181,o),
(-102,-186,o),
(-103,-196,cs),
(-115,-260,l),
(-62,-260,ls),
(31,-260,o),
(91,-218,o),
(108,-119,cs),
(220,513,ls),
(224,535,o),
(213,548,o),
(191,548,cs)
);
},
{
closed = 1;
nodes = (
(225,622,o),
(253,646,o),
(259,678,cs),
(264,710,o),
(245,734,o),
(215,734,cs),
(183,734,o),
(154,710,o),
(149,678,cs),
(143,646,o),
(163,622,o),
(195,622,cs)
);
}
);
width = 248;
}
);
note = j;
unicode = 106;
},
{
glyphname = k;
lastChange = "2022-10-20 15:33:47 +0000";
layers = (
{
layerId = m01;
shapes = (
{
closed = 1;
nodes = (
(18,35,ls),
(14,13,o),
(25,0,o),
(47,0,cs),
(93,0,ls),
(99,0,o),
(103,4,o),
(104,10,cs),
(142,223,ls),
(144,232,o),
(150,235,o),
(155,228,cs),
(314,6,ls),
(316,2,o),
(320,0,o),
(325,0,cs),
(425,0,ls),
(433,0,o),
(437,5,o),
(432,12,cs),
(237,268,ls),
(234,273,o),
(235,277,o),
(239,282,cs),
(517,536,ls),
(522,541,o),
(520,548,o),
(514,548,cs),
(436,548,ls),
(418,548,o),
(404,542,o),
(390,528,cs),
(171,319,ls),
(164,312,o),
(158,315,o),
(160,324,cs),
(227,705,ls),
(231,727,o),
(220,740,o),
(198,740,cs),
(152,740,ls),
(146,740,o),
(142,736,o),
(141,730,cs)
);
}
);
width = 515;
}
);
note = k;
unicode = 107;
},
{
glyphname = l;
lastChange = "2022-10-20 15:33:47 +0000";
layers = (
{
layerId = m01;
shapes = (
{
closed = 1;
nodes = (
(21,35,ls),
(17,13,o),
(28,0,o),
(50,0,cs),
(93,0,ls),
(99,0,o),
(103,4,o),
(104,10,cs),
(232,730,ls),
(233,736,o),
(229,740,o),
(223,740,cs),
(155,740,ls),
(149,740,o),
(145,736,o),
(144,730,cs)
);
}
);
width = 246;
}
);
note = l;
unicode = 108;
},
{
glyphname = m;
lastChange = "2022-10-20 15:33:47 +0000";
layers = (
{
layerId = m01;
shapes = (
{
closed = 1;
nodes = (
(433,25,ls),
(430,9,o),
(438,0,o),
(454,0,cs),
(509,0,ls),
(515,0,o),
(519,4,o),
(521,10,cs),
(576,323,ls),
(603,480,o),
(520,558,o),
(393,558,cs),
(319,558,o),
(248,527,o),
(202,470,c),
(209,513,ls),
(213,535,o),
(202,548,o),
(180,548,cs),
(134,548,ls),
(128,548,o),
(124,544,o),
(123,538,cs),
(30,10,ls),
(28,4,o),
(32,0,o),
(38,0,cs),
(109,0,ls),
(115,0,o),
(119,4,o),
(121,10,cs),
(172,303,ls),
(193,421,o),
(267,479,o),
(360,479,cs),
(452,479,o),
(503,422,o),
(483,310,cs)
);
},
{
closed = 1;
nodes = (
(824,25,ls),
(821,9,o),
(829,0,o),
(845,0,cs),
(900,0,ls),
(906,0,o),
(910,4,o),
(912,10,cs),
(967,323,ls),
(994,480,o),
(911,558,o),
(784,558,cs),
(710,558,o),
(646,548,o),
(565,466,c),
(571,297,l),
(592,415,o),
(658,479,o),
(751,479,cs),
(843,479,o),
(894,422,o),
(874,310,cs)
);
}
);
width = 1030;
}
);
note = m;
unicode = 109;
},
{
glyphname = n;
lastChange = "2022-10-20 15:33:47 +0000";
layers = (
{
layerId = m01;
shapes = (
{
closed = 1;
nodes = (
(435,36,ls),
(432,16,o),
(445,0,o),
(465,0,cs),
(509,0,ls),
(515,0,o),
(519,4,o),
(521,10,cs),
(576,323,ls),
(603,480,o),
(520,558,o),
(393,558,cs),
(319,558,o),
(248,527,o),
(202,470,c),
(209,512,ls),
(213,532,o),
(199,548,o),
(179,548,cs),
(134,548,ls),
(128,548,o),
(124,544,o),
(123,538,cs),
(30,10,ls),
(28,4,o),
(32,0,o),
(38,0,cs),
(109,0,ls),
(115,0,o),
(119,4,o),
(121,10,cs),
(172,303,ls),
(193,421,o),
(267,479,o),
(360,479,cs),
(452,479,o),
(503,422,o),
(483,310,cs)
);
}
);
width = 640;
}
);
note = n;
unicode = 110;
},
{
glyphname = o;
lastChange = "2022-10-20 15:33:47 +0000";
layers = (
{
layerId = m01;
shapes = (
{
closed = 1;
nodes = (
(628,448,o),
(526,557,o),
(370,557,cs),
(215,557,o),
(74,448,o),
(43,275,cs),
(12,101,o),
(111,-9,o),
(266,-9,cs),
(422,-9,o),
(566,101,o),
(597,275,cs)
);
},
{
closed = 1;
nodes = (
(161,413,o),
(259,478,o),
(355,478,cs),
(449,478,o),
(529,413,o),
(504,275,cs),
(480,136,o),
(375,71,o),
(280,71,cs),
(185,71,o),
(112,136,o),
(136,275,cs)
);
}
);
width = 640;
}
);
note = o;
unicode = 111;
},
{
glyphname = p;
lastChange = "2022-10-20 15:33:47 +0000";
layers = (
{
layerId = m01;
shapes = (
{
closed = 1;
nodes = (
(232,513,ls),
(236,535,o),
(226,548,o),
(204,548,cs),
(158,548,ls),
(152,548,o),
(147,544,o),
(146,538,cs),
(11,-225,ls),
(7,-247,o),
(18,-260,o),
(40,-260,cs),
(86,-260,ls),
(92,-260,o),
(97,-256,o),
(98,-250,cs),
(160,101,l),
(184,45,o),
(245,-9,o),
(345,-9,cs),
(492,-9,o),
(625,106,o),
(656,276,cs),
(686,447,o),
(592,557,o),
(445,557,cs),
(345,557,o),
(264,505,o),
(221,447,c)
);
},
{
closed = 1;
nodes = (
(547,152,o),
(452,78,o),
(355,78,cs),
(260,78,o),
(188,151,o),
(210,275,cs),
(232,397,o),
(329,471,o),
(424,471,cs),
(521,471,o),
(590,400,o),
(569,276,cs)
);
}
);
width = 676;
}
);
note = p;
unicode = 112;
},
{
glyphname = q;
lastChange = "2022-10-20 15:33:47 +0000";
layers = (
{
layerId = m01;
shapes = (
{
closed = 1;
nodes = (
(538,505,o),
(475,557,o),
(375,557,cs),
(228,557,o),
(96,447,o),
(66,276,cs),
(35,106,o),
(128,-9,o),
(275,-9,cs),
(375,-9,o),
(456,45,o),
(500,101,c),
(438,-250,ls),
(437,-256,o),
(440,-260,o),
(446,-260,cs),
(492,-260,ls),
(514,-260,o),
(529,-247,o),
(533,-225,cs),
(668,538,ls),
(669,544,o),
(666,548,o),
(660,548,cs),
(614,548,ls),
(592,548,o),
(576,535,o),
(572,513,cs),
(561,447,l)
);
},
{
closed = 1;
nodes = (
(174,400,o),
(269,471,o),
(366,471,cs),
(461,471,o),
(532,397,o),
(510,275,cs),
(488,151,o),
(392,78,o),
(297,78,cs),
(200,78,o),
(131,152,o),
(153,276,cs)
);
}
);
width = 676;
}
);
note = q;
unicode = 113;
},
{
glyphname = r;
lastChange = "2022-10-20 15:33:47 +0000";
layers = (
{
layerId = m01;
shapes = (
{
closed = 1;
nodes = (
(398,547,ls),
(401,554,o),
(398,558,o),
(391,558,cs),
(320,555,o),
(245,524,o),
(202,470,c),
(211,523,ls),
(214,539,o),
(206,548,o),
(190,548,cs),
(134,548,ls),
(128,548,o),
(124,544,o),
(123,538,cs),
(30,10,ls),
(28,4,o),
(32,0,o),
(38,0,cs),
(109,0,ls),
(115,0,o),
(119,4,o),
(121,10,cs),
(172,303,ls),
(191,408,o),
(259,458,o),
(338,468,cs),
(360,471,o),
(374,481,o),
(381,501,cs)
);
}
);
width = 373;
}
);
note = r;
unicode = 114;
},
{
glyphname = s;
lastChange = "2022-10-20 15:33:47 +0000";
layers = (
{
layerId = m01;
shapes = (
{
closed = 1;
nodes = (
(480,345,o),
(149,274,o),
(172,404,cs),
(180,448,o),
(225,480,o),
(292,480,cs),
(351,480,o),
(385,454,o),
(393,416,cs),
(398,396,o),
(405,385,o),
(426,385,cs),
(476,385,ls),
(482,385,o),
(486,389,o),
(486,395,cs),
(494,496,o),
(426,557,o),
(309,557,cs),
(187,557,o),
(96,488,o),
(81,404,cs),
(45,200,o),
(381,271,o),
(360,149,cs),
(352,104,o),
(306,68,o),
(234,68,cs),
(172,68,o),
(134,94,o),
(124,131,cs),
(118,151,o),
(110,161,o),
(90,161,cs),
(37,161,ls),
(31,161,o),
(26,157,o),
(26,151,cs),
(21,56,o),
(97,-9,o),
(221,-9,cs),
(342,-9,o),
(433,59,o),
(449,149,cs)
);
}
);
width = 522;
}
);
note = s;
unicode = 115;
},
{
glyphname = t;
lastChange = "2022-10-20 15:33:47 +0000";
layers = (
{
layerId = m01;
shapes = (
{
closed = 1;
nodes = (
(63,150,ls),
(44,40,o),
(91,0,o),
(188,0,cs),
(270,0,l),
(278,42,ls),
(282,64,o),
(271,77,o),
(249,77,cs),
(217,77,ls),
(161,77,o),
(144,96,o),
(154,150,cs),
(209,463,ls),
(210,469,o),
(215,473,o),
(221,473,cs),
(344,473,ls),
(350,473,o),
(355,477,o),
(356,483,cs),
(365,538,ls),
(366,544,o),
(363,548,o),
(357,548,cs),
(234,548,ls),
(228,548,o),
(225,552,o),
(226,558,cs),
(247,676,ls),
(248,682,o),
(245,686,o),
(239,686,cs),
(168,686,ls),
(162,686,o),
(157,682,o),
(156,676,cs),
(139,583,ls),
(135,561,o),
(120,548,o),
(98,548,cs),
(67,548,ls),
(64,548,o),
(62,546,o),
(61,543,cs),
(51,483,ls),
(50,477,o),
(53,473,o),
(59,473,cs),
(110,473,ls),
(116,473,o),
(119,469,o),
(118,463,cs)
);
}
);
width = 364;
}
);
note = t;
unicode = 116;
},
{
glyphname = u;
lastChange = "2022-10-20 15:33:47 +0000";
layers = (
{
layerId = m01;
shapes = (
{
closed = 1;
nodes = (
(212,534,ls),
(215,550,o),
(207,559,o),
(191,559,cs),
(136,559,ls),
(130,559,o),
(126,555,o),
(124,549,cs),
(69,236,ls),
(42,79,o),
(125,1,o),
(252,1,cs),
(326,1,o),
(397,32,o),
(443,89,c),
(436,46,ls),
(432,24,o),
(443,11,o),
(465,11,cs),
(511,11,ls),
(517,11,o),
(521,15,o),
(522,21,cs),
(615,549,ls),
(617,555,o),
(613,559,o),
(607,559,cs),
(536,559,ls),
(530,559,o),
(526,555,o),
(524,549,cs),
(473,256,ls),
(452,138,o),
(378,80,o),
(285,80,cs),
(193,80,o),
(142,137,o),
(162,249,cs)
);
}
);
width = 640;
}
);
note = u;
unicode = 117;
},
{
glyphname = v;
lastChange = "2022-10-20 15:33:47 +0000";
layers = (
{
layerId = m01;
shapes = (
{
closed = 1;
nodes = (
(72,548,ls),
(65,548,o),
(61,543,o),
(63,536,cs),
(172,27,ls),
(176,8,o),
(189,0,o),
(209,0,cs),
(255,0,ls),
(275,0,o),
(290,8,o),
(300,27,cs),
(589,536,ls),
(593,543,o),
(591,548,o),
(584,548,cs),
(529,548,ls),
(509,548,o),
(495,539,o),
(484,520,cs),
(281,146,ls),
(265,116,o),
(241,116,o),
(235,146,cs),
(163,520,ls),
(160,539,o),
(148,548,o),
(128,548,cs)
);
}
);
width = 561;
}
);
note = v;
unicode = 118;
},
{
glyphname = w;
lastChange = "2022-10-20 15:33:47 +0000";
layers = (
{
layerId = m01;
shapes = (
{
closed = 1;
nodes = (
(71,549,ls),
(63,549,o),
(56,546,o),
(57,536,cs),
(127,27,ls),
(130,9,o),
(141,-1,o),
(160,-1,cs),
(197,-1,ls),
(216,-1,o),
(232,9,o),
(240,27,cs),
(426,404,ls),
(429,412,o),
(441,412,o),
(442,404,cs),
(493,27,ls),
(496,9,o),
(507,-1,o),
(526,-1,cs),
(563,-1,ls),
(582,-1,o),
(598,9,o),
(606,27,cs),
(856,536,ls),
(862,547,o),
(855,549,o),
(849,549,cs),
(804,549,ls),
(785,549,o),
(771,538,o),
(761,520,cs),
(585,146,ls),
(571,117,o),
(562,117,o),
(558,146,cs),
(513,520,ls),
(511,537,o),
(502,548,o),
(486,549,cs),
(483,549,l),
(437,549,l),
(432,549,l),
(415,546,o),
(403,536,o),
(395,520,cs),
(219,146,ls),
(205,117,o),
(196,117,o),
(192,146,cs),
(147,520,ls),
(146,538,o),
(135,549,o),
(116,549,cs)
);
}
);
width = 820;
}
);
note = w;
unicode = 119;
},
{
glyphname = x;
lastChange = "2022-10-20 15:33:47 +0000";
layers = (
{
layerId = m01;
shapes = (
{
closed = 1;
nodes = (
(312,7,ls),
(314,3,o),
(318,0,o),
(323,0,cs),
(404,0,ls),
(412,0,o),
(415,5,o),
(412,12,cs),
(301,253,ls),
(294,269,o),
(296,285,o),
(310,301,cs),
(503,536,ls),
(508,543,o),
(507,548,o),
(499,548,cs),
(426,548,ls),
(421,548,o),
(417,545,o),
(413,541,cs),
(289,384,ls),
(271,361,o),
(251,362,o),
(240,384,cs),
(167,541,ls),
(165,545,o),
(161,548,o),
(156,548,cs),
(75,548,ls),
(67,548,o),
(64,543,o),
(67,536,cs),
(178,296,ls),
(186,280,o),
(183,264,o),
(169,248,cs),
(-25,12,ls),
(-30,5,o),
(-29,0,o),
(-21,0,cs),
(52,0,ls),
(57,0,o),
(61,3,o),
(65,7,cs),
(190,165,ls),
(208,188,o),
(229,188,o),
(239,165,cs)
);
}
);
width = 479;
}
);
note = x;
unicode = 120;
},
{
glyphname = y;
lastChange = "2022-10-20 15:33:47 +0000";
layers = (
{
layerId = m01;
shapes = (
{
closed = 1;
nodes = (
(298,140,ls),
(291,126,o),
(273,126,o),
(270,140,cs),
(185,542,ls),
(185,546,o),
(182,548,o),
(178,548,cs),
(100,548,ls),
(91,548,o),
(86,540,o),
(87,532,cs),
(208,6,l),
(64,-242,ls),
(59,-250,o),
(63,-258,o),
(72,-258,cs),
(142,-258,ls),
(145,-258,o),
(149,-256,o),
(151,-252,cs),
(610,532,ls),
(615,540,o),
(611,548,o),
(602,548,cs),
(532,548,ls),
(528,548,o),
(525,546,o),
(523,542,cs)
);
}
);
width = 563;
}
);
note = y;
unicode = 121;
},
{
glyphname = z;
lastChange = "2022-10-20 15:33:47 +0000";
layers = (
{
layerId = m01;
shapes = (
{
closed = 1;
nodes = (
(459,538,ls),
(460,544,o),
(456,548,o),
(450,548,cs),
(101,548,ls),
(95,548,o),
(91,544,o),
(90,538,cs),
(84,509,ls),
(81,487,o),
(91,474,o),
(113,474,cs),
(327,474,ls),
(335,474,o),
(337,468,o),
(332,462,cs),
(11,81,l),
(8,77,o),
(5,72,o),
(5,68,cs),
(-6,10,ls),
(-7,4,o),
(-3,0,o),
(3,0,cs),
(366,0,l),
(373,40,ls),
(377,62,o),
(366,75,o),
(344,75,cs),
(125,75,ls),
(117,75,o),
(115,81,o),
(120,87,cs),
(442,468,l),
(445,472,o),
(448,477,o),
(449,481,cs)
);
}
);
width = 455;
}
);
note = z;
unicode = 122;
},
{
glyphname = braceleft;
lastChange = "2022-10-20 15:33:47 +0000";
layers = (
{
layerId = m01;
shapes = (
{
closed = 1;
nodes = (
(168,155,o),
(129,46,o),
(114,-39,cs),
(97,-137,o),
(149,-187,o),
(237,-187,cs),
(285,-187,ls),
(291,-187,o),
(296,-183,o),
(297,-177,cs),
(307,-118,ls),
(308,-112,o),
(305,-108,o),
(299,-108,cs),
(268,-108,ls),
(218,-108,o),
(195,-87,o),
(204,-33,cs),
(218,43,o),
(256,153,o),
(271,236,cs),
(283,304,o),
(260,356,o),
(187,373,c),
(187,374,l),
(187,374,o),
(198,377,o),
(213,382,cs),
(275,403,o),
(309,451,o),
(319,511,cs),
(334,594,o),
(334,704,o),
(348,780,cs),
(357,834,o),
(388,855,o),
(438,855,cs),
(479,855,l),
(493,934,l),
(435,934,ls),
(347,934,o),
(277,884,o),
(260,786,cs),
(245,701,o),
(246,592,o),
(232,514,cs),
(224,470,o),
(197,433,o),
(137,415,cs),
(121,410,o),
(109,398,o),
(107,383,cs),
(103,364,ls),
(101,349,o),
(109,337,o),
(123,332,cs),
(175,314,o),
(190,277,o),
(182,233,cs)
);
}
);
width = 462;
}
);
note = braceleft;
unicode = 123;
},
{
glyphname = bar;
lastChange = "2022-10-20 15:33:47 +0000";
layers = (
{
layerId = m01;
shapes = (
{
closed = 1;
nodes = (
(180,795,l),
(20,-106,l),
(111,-106,l),
(271,795,l)
);
}
);
width = 291;
}
);
note = bar;
unicode = 124;
},
{
glyphname = braceright;
lastChange = "2022-10-20 15:33:47 +0000";
layers = (
{
layerId = m01;
shapes = (
{
closed = 1;
nodes = (
(216,155,o),
(217,46,o),
(202,-39,cs),
(185,-137,o),
(115,-187,o),
(27,-187,cs),
(-21,-187,ls),
(-27,-187,o),
(-30,-183,o),
(-29,-177,cs),
(-19,-118,ls),
(-18,-112,o),
(-13,-108,o),
(-7,-108,cs),
(24,-108,ls),
(74,-108,o),
(105,-87,o),
(114,-33,cs),
(128,43,o),
(128,153,o),
(143,236,cs),
(155,304,o),
(196,356,o),
(275,373,c),
(275,374,l),
(275,374,o),
(266,377,o),
(253,382,cs),
(197,403,o),
(181,451,o),
(191,511,cs),
(206,594,o),
(244,704,o),
(258,780,cs),
(267,834,o),
(244,855,o),
(194,855,cs),
(163,855,ls),
(157,855,o),
(154,859,o),
(155,865,cs),
(165,924,ls),
(166,930,o),
(171,934,o),
(177,934,cs),
(225,934,ls),
(313,934,o),
(365,884,o),
(348,786,cs),
(333,701,o),
(294,592,o),
(280,514,cs),
(272,470,o),
(287,433,o),
(339,415,cs),
(353,410,o),
(361,398,o),
(359,383,cs),
(355,364,ls),
(353,349,o),
(341,337,o),
(325,332,cs),
(265,314,o),
(238,277,o),
(230,233,cs)
);
}
);
width = 462;
}
);
note = braceright;
unicode = 125;
},
{
glyphname = asciitilde;
lastChange = "2022-10-20 15:33:47 +0000";
layers = (
{
layerId = m01;
shapes = (
{
closed = 1;
nodes = (
(83,248,ls),
(87,248,o),
(92,251,o),
(94,256,cs),
(109,291,o),
(138,313,o),
(171,313,cs),
(230,313,o),
(252,247,o),
(327,247,cs),
(398,247,o),
(454,288,o),
(491,380,cs),
(493,387,o),
(489,393,o),
(482,393,cs),
(435,393,ls),
(431,393,o),
(426,390,o),
(424,385,cs),
(409,349,o),
(380,328,o),
(348,328,cs),
(291,328,o),
(267,394,o),
(191,394,cs),
(121,394,o),
(66,352,o),
(29,261,cs),
(26,254,o),
(30,248,o),
(37,248,cs)
);
}
);
width = 519;
}
);
note = asciitilde;
unicode = 126;
},
{
glyphname = exclamdown;
lastChange = "2022-10-20 15:33:47 +0000";
layers = (
{
layerId = m01;
shapes = (
{
closed = 1;
nodes = (
(134,361,l),
(210,361,l),
(133,-139,l),
(35,-139,l)
);
},
{
closed = 1;
nodes = (
(255,467,o),
(223,440,o),
(190,440,cs),
(155,440,o),
(133,467,o),
(139,502,cs),
(145,537,o),
(177,564,o),
(212,564,cs),
(245,564,o),
(267,537,o),
(261,502,cs)
);
}
);
width = 298;
}
);
note = exclamdown;
unicode = 161;
},
{
glyphname = cent;
lastChange = "2022-10-20 15:33:47 +0000";
layers = (
{
layerId = m01;
shapes = (
{
closed = 1;
nodes = (
(457,184,l),
(431,120,o),
(373,80,o),
(290,80,cs),
(191,80,o),
(130,144,o),
(151,262,cs),
(172,380,o),
(255,445,o),
(354,445,cs),
(437,445,o),
(481,404,o),
(485,341,c),
(570,341,l),
(575,437,o),
(509,510,o),
(393,519,c),
(409,611,l),
(355,611,l),
(339,519,l),
(188,507,o),
(90,400,o),
(65,262,cs),
(41,124,o),
(102,17,o),
(248,5,c),
(231,-89,l),
(285,-89,l),
(302,5,l),
(421,14,o),
(513,87,o),
(542,184,c)
);
}
);
width = 665;
}
);
note = cent;
unicode = 162;
},
{
glyphname = sterling;
lastChange = "2022-10-20 15:33:47 +0000";
layers = (
{
layerId = m01;
shapes = (
{
closed = 1;
nodes = (
(125,452,o),
(130,410,o),
(137,372,c),
(46,372,l),
(35,308,l),
(148,308,l),
(150,288,o),
(150,268,o),
(146,246,cs),
(130,155,o),
(88,105,o),
(29,50,c),
(35,-2,l),
(481,-2,l),
(495,74,l),
(131,74,l),
(187,125,o),
(220,180,o),
(232,246,cs),
(236,267,o),
(236,288,o),
(234,308,c),
(408,308,l),
(419,372,l),
(225,372,l),
(219,413,o),
(212,455,o),
(221,504,cs),
(238,602,o),
(305,642,o),
(376,642,cs),
(464,642,o),
(496,586,o),
(485,511,c),
(569,511,l),
(584,623,o),
(534,719,o),
(390,719,cs),
(261,719,o),
(157,637,o),
(134,508,cs)
);
}
);
width = 620;
}
);
note = sterling;
unicode = 163;
},
{
glyphname = currency;
lastChange = "2022-10-20 15:33:47 +0000";
layers = (
{
layerId = m01;
shapes = (
{
closed = 1;
nodes = (
(355,300,o),
(298,259,o),
(246,259,cs),
(191,259,o),
(154,300,o),
(168,377,cs),
(181,454,o),
(234,496,o),
(288,496,cs),
(342,496,o),
(382,454,o),
(369,377,cs)
);
},
{
closed = 1;
nodes = (
(395,170,l),
(444,212,l),
(395,271,l),
(420,300,o),
(439,336,o),
(446,377,cs),
(453,419,o),
(448,456,o),
(432,484,c),
(502,544,l),
(469,586,l),
(397,525,l),
(371,544,o),
(338,554,o),
(299,554,cs),
(260,554,o),
(223,544,o),
(192,525,c),
(142,586,l),
(92,544,l),
(143,484,l),
(118,456,o),
(99,419,o),
(92,377,cs),
(84,335,o),
(89,300,o),
(103,271,c),
(34,212,l),
(68,170,l),
(138,229,l),
(162,210,o),
(196,200,o),
(236,200,cs),
(275,200,o),
(313,211,o),
(346,230,c)
);
}
);
width = 537;
}
);
note = currency;
unicode = 164;
},
{
glyphname = yen;
lastChange = "2022-10-20 15:33:47 +0000";
layers = (
{
layerId = m01;
shapes = (
{
closed = 1;
nodes = (
(238,263,l),
(231,224,l),
(31,224,l),
(19,157,l),
(219,157,l),
(191,0,l),
(282,0,l),
(310,157,l),
(510,157,l),
(522,224,l),
(322,224,l),
(329,263,l),
(365,315,l),
(538,317,l),
(550,383,l),
(413,383,l),
(633,697,l),
(531,697,l),
(297,345,l),
(189,697,l),
(87,697,l),
(196,383,l),
(59,383,l),
(47,317,l),
(219,315,l)
);
}
);
width = 595;
}
);
note = yen;
unicode = 165;
},
{
glyphname = brokenbar;
lastChange = "2022-10-20 15:33:47 +0000";
layers = (
{
layerId = m01;
shapes = (
{
closed = 1;
nodes = (
(87,273,l),
(20,-106,l),
(111,-106,l),
(178,273,l)
);
},
{
closed = 1;
nodes = (
(204,417,l),
(271,795,l),
(180,795,l),
(113,417,l)
);
}
);
width = 291;
}
);
note = brokenbar;
unicode = 166;
},
{
glyphname = section;
lastChange = "2022-10-20 15:33:47 +0000";
layers = (
{
layerId = m01;
shapes = (
{
closed = 1;
nodes = (
(116,487,o),
(158,449,o),
(213,420,c),
(117,394,o),
(59,331,o),
(46,258,cs),
(28,158,o),
(97,111,o),
(214,70,cs),
(332,29,o),
(363,4,o),
(354,-46,cs),
(344,-104,o),
(296,-132,o),
(226,-132,cs),
(146,-132,o),
(119,-87,o),
(124,-31,c),
(33,-31,l),
(17,-137,o),
(95,-196,o),
(215,-196,cs),
(343,-196,o),
(431,-125,o),
(447,-39,cs),
(459,29,o),
(418,67,o),
(362,95,c),
(459,124,o),
(516,185,o),
(529,258,cs),
(546,357,o),
(478,405,o),
(361,445,cs),
(243,486,o),
(212,512,o),
(221,563,cs),
(231,619,o),
(280,647,o),
(350,647,cs),
(430,647,o),
(456,600,o),
(451,546,c),
(542,546,l),
(558,652,o),
(481,712,o),
(361,712,cs),
(232,712,o),
(144,641,o),
(128,555,cs)
);
},
{
closed = 1;
nodes = (
(425,197,o),
(363,143,o),
(270,143,cs),
(176,143,o),
(128,194,o),
(139,258,cs),
(150,319,o),
(212,372,o),
(306,372,cs),
(399,372,o),
(447,323,o),
(436,258,cs)
);
}
);
width = 575;
}
);
note = section;
unicode = 167;
},
{
glyphname = dieresis;
lastChange = "2022-10-20 15:33:47 +0000";
layers = (
{
layerId = m01;
shapes = (
{
closed = 1;
nodes = (
(95,622,o),
(123,645,o),
(128,674,cs),
(133,703,o),
(113,727,o),
(85,727,cs),
(55,727,o),
(28,703,o),
(23,674,cs),
(18,645,o),
(37,622,o),
(67,622,cs)
);
},
{
closed = 1;
nodes = (
(258,622,o),
(286,645,o),
(291,674,cs),
(296,703,o),
(276,727,o),
(247,727,cs),
(217,727,o),
(191,703,o),
(186,674,cs),
(181,645,o),
(199,622,o),
(229,622,cs)
);
}
);
width = 314;
}
);
note = dieresis;
unicode = 168;
},
{
glyphname = copyright;
lastChange = "2022-10-20 15:33:47 +0000";
layers = (
{
layerId = m01;
shapes = (
{
closed = 1;
nodes = (
(12,141,o),
(128,-6,o),
(334,-6,cs),
(539,-6,o),
(706,141,o),
(743,349,cs),
(780,557,o),
(665,704,o),
(460,704,cs),
(254,704,o),
(86,557,o),
(49,349,cs)
);
},
{
closed = 1;
nodes = (
(667,162,o),
(527,33,o),
(341,33,cs),
(153,33,o),
(59,162,o),
(92,349,cs),
(125,537,o),
(265,664,o),
(453,664,cs),
(639,664,o),
(733,537,o),
(700,349,cs)
);
},
{
closed = 1;
nodes = (
(531,432,l),
(523,486,o),
(481,515,o),
(424,515,cs),
(348,515,o),
(278,459,o),
(259,349,cs),
(240,240,o),
(290,184,o),
(366,184,cs),
(428,184,o),
(473,214,o),
(502,267,c),
(586,267,l),
(544,177,o),
(455,118,o),
(354,118,cs),
(234,118,o),
(153,206,o),
(178,350,cs),
(204,494,o),
(316,581,o),
(436,581,cs),
(537,581,o),
(605,527,o),
(615,432,c)
);
}
);
width = 792;
}
);
note = copyright;
unicode = 169;
},
{
glyphname = ordfeminine;
lastChange = "2022-10-20 15:33:47 +0000";
layers = (
{
layerId = m01;
shapes = (
{
closed = 1;
nodes = (
(234,347,o),
(284,376,o),
(311,413,c),
(300,353,l),
(372,353,l),
(434,703,l),
(362,703,l),
(351,642,l),
(337,679,o),
(298,709,o),
(232,709,cs),
(138,709,o),
(52,636,o),
(33,530,cs),
(14,423,o),
(74,347,o),
(170,347,cs)
);
},
{
closed = 1;
nodes = (
(302,652,o),
(345,607,o),
(331,528,cs),
(317,449,o),
(258,404,o),
(197,404,cs),
(137,404,o),
(94,450,o),
(108,529,cs),
(122,608,o),
(181,652,o),
(241,652,cs)
);
}
);
width = 450;
}
);
note = ordfeminine;
unicode = 170;
},
{
glyphname = guillemotleft;
lastChange = "2022-10-20 15:33:47 +0000";
layers = (
{
layerId = m01;
shapes = (
{
closed = 1;
nodes = (
(131,295,l),
(261,470,l),
(172,470,l),
(45,295,l),
(110,120,l),
(199,120,l)
);
},
{
closed = 1;
nodes = (
(312,295,l),
(442,470,l),
(352,470,l),
(226,295,l),
(290,120,l),
(380,120,l)
);
}
);
width = 461;
}
);
note = guillemotleft;
unicode = 171;
},
{
glyphname = logicalnot;
lastChange = "2022-10-20 15:33:47 +0000";
layers = (
{
layerId = m01;
shapes = (
{
closed = 1;
nodes = (
(47,360,l),
(521,360,l),
(496,220,l),
(587,220,l),
(625,432,l),
(60,432,l)
);
}
);
width = 650;
}
);
note = logicalnot;
unicode = 172;
},
{
glyphname = uni00AD;
lastChange = "2022-10-20 15:33:47 +0000";
layers = (
{
layerId = m01;
shapes = (
{
closed = 1;
nodes = (
(51,328,l),
(450,328,l),
(464,405,l),
(65,405,l)
);
}
);
width = 551;
}
);
note = uni00AD;
unicode = 173;
},
{
glyphname = registered;
lastChange = "2022-10-20 15:33:47 +0000";
layers = (
{
layerId = m01;
shapes = (
{
closed = 1;
nodes = (
(381,667,o),
(433,599,o),
(416,502,cs),
(399,405,o),
(323,337,o),
(226,337,cs),
(128,337,o),
(78,405,o),
(95,502,cs),
(112,599,o),
(186,667,o),
(284,667,cs)
);
},
{
closed = 1;
nodes = (
(337,297,o),
(436,384,o),
(457,502,cs),
(478,620,o),
(409,706,o),
(291,706,cs),
(172,706,o),
(73,620,o),
(52,502,cs),
(31,384,o),
(100,297,o),
(219,297,cs)
);
},
{
closed = 1;
nodes = (
(360,585,o),
(334,611,o),
(289,611,cs),
(193,611,l),
(155,396,l),
(207,396,l),
(221,476,l),
(238,476,l),
(272,396,l),
(336,397,l),
(294,480,l),
(325,489,o),
(347,512,o),
(353,544,cs)
);
},
{
closed = 1;
nodes = (
(278,564,ls),
(292,564,o),
(303,558,o),
(300,542,cs),
(297,526,o),
(284,519,o),
(270,519,cs),
(229,519,l),
(237,564,l)
);
}
);
width = 509;
}
);
note = registered;
unicode = 174;
},
{
glyphname = macron;
lastChange = "2022-10-20 15:33:47 +0000";
layers = (
{
layerId = m01;
shapes = (
{
closed = 1;
nodes = (
(11,641,l),
(363,641,l),
(375,709,l),
(23,709,l)
);
}
);
width = 387;
}
);
note = macron;
unicode = 175;
},
{
glyphname = degree;
lastChange = "2022-10-20 15:33:47 +0000";
layers = (
{
layerId = m01;
shapes = (
{
closed = 1;
nodes = (
(9,417,o),
(69,347,o),
(172,347,cs),
(275,347,o),
(362,417,o),
(381,524,cs),
(400,631,o),
(338,699,o),
(236,699,cs),
(134,699,o),
(47,631,o),
(28,524,cs)
);
},
{
closed = 1;
nodes = (
(294,443,o),
(238,402,o),
(182,402,cs),
(125,402,o),
(87,443,o),
(101,524,cs),
(115,603,o),
(170,646,o),
(226,646,cs),
(283,646,o),
(322,603,o),
(308,524,cs)
);
}
);
width = 410;
}
);
note = degree;
unicode = 176;
},
{
glyphname = plusminus;
lastChange = "2022-10-20 15:33:47 +0000";
layers = (
{
layerId = m01;
shapes = (
{
closed = 1;
nodes = (
(346,624,l),
(316,454,l),
(103,454,l),
(89,377,l),
(302,377,l),
(270,195,l),
(57,195,l),
(43,118,l),
(552,118,l),
(566,195,l),
(355,195,l),
(387,377,l),
(598,377,l),
(612,454,l),
(401,454,l),
(431,624,l)
);
}
);
width = 686;
}
);
note = plusminus;
unicode = 177;
},
{
glyphname = twosuperior;
lastChange = "2022-10-20 15:33:47 +0000";
layers = (
{
layerId = m01;
shapes = (
{
closed = 1;
nodes = (
(116,603,l),
(125,635,o),
(147,654,o),
(179,654,cs),
(208,654,o),
(227,634,o),
(221,597,cs),
(213,555,o),
(179,524,o),
(134,492,cs),
(10,404,l),
(0,352,l),
(257,352,l),
(268,411,l),
(92,411,l),
(181,467,ls),
(251,512,o),
(288,547,o),
(297,600,cs),
(308,660,o),
(269,710,o),
(191,710,cs),
(110,710,o),
(56,664,o),
(43,603,c)
);
}
);
width = 330;
}
);
note = twosuperior;
unicode = 178;
},
{
glyphname = threesuperior;
lastChange = "2022-10-20 15:33:47 +0000";
layers = (
{
layerId = m01;
shapes = (
{
closed = 1;
nodes = (
(111,611,l),
(121,637,o),
(144,655,o),
(180,655,cs),
(217,655,o),
(237,634,o),
(231,603,cs),
(225,570,o),
(196,553,o),
(159,553,cs),
(118,553,l),
(110,505,l),
(153,505,ls),
(190,505,o),
(212,486,o),
(207,453,cs),
(201,421,o),
(173,401,o),
(136,401,cs),
(102,401,o),
(80,417,o),
(82,454,c),
(10,454,l),
(3,386,o),
(48,347,o),
(128,347,cs),
(211,347,o),
(274,391,o),
(283,444,cs),
(291,487,o),
(266,515,o),
(233,527,c),
(233,529,l),
(271,539,o),
(302,566,o),
(309,607,cs),
(319,665,o),
(269,710,o),
(195,710,cs),
(116,710,o),
(58,669,o),
(42,611,c)
);
}
);
width = 332;
}
);
note = threesuperior;
unicode = 179;
},
{
glyphname = acute;
lastChange = "2022-10-20 15:33:47 +0000";
layers = (
{
layerId = m01;
shapes = (
{
closed = 1;
nodes = (
(12,657,l),
(0,589,l),
(233,703,l),
(247,782,l)
);
}
);
width = 247;
}
);
note = acute;
unicode = 180;
},
{
glyphname = uni00B5;
lastChange = "2022-10-20 15:33:47 +0000";
layers = (
{
layerId = m01;
shapes = (
{
closed = 1;
nodes = (
(639,548,l),
(548,548,l),
(495,245,ls),
(474,128,o),
(402,69,o),
(310,69,cs),
(218,69,o),
(164,129,o),
(185,248,cs),
(238,548,l),
(148,548,l),
(6,-260,l),
(96,-260,l),
(151,54,l),
(172,8,o),
(218,-9,o),
(268,-9,cs),
(347,-9,o),
(421,27,o),
(469,100,c),
(452,0,l),
(543,0,l)
);
}
);
width = 645;
}
);
note = uni00B5;
unicode = 181;
},
{
glyphname = paragraph;
lastChange = "2022-10-20 15:33:47 +0000";
layers = (
{
layerId = m01;
shapes = (
{
closed = 1;
nodes = (
(329,692,ls),
(167,692,o),
(76,602,o),
(56,488,cs),
(36,375,o),
(94,286,o),
(257,286,cs),
(268,286,l),
(218,0,l),
(299,0,l),
(409,621,l),
(486,621,l),
(376,0,l),
(457,0,l),
(579,692,l)
);
}
);
width = 596;
}
);
note = paragraph;
unicode = 182;
},
{
glyphname = periodcentered;
lastChange = "2022-10-20 15:33:47 +0000";
layers = (
{
layerId = m01;
shapes = (
{
closed = 1;
nodes = (
(175,376,o),
(153,403,o),
(120,403,cs),
(85,403,o),
(53,376,o),
(47,341,cs),
(41,306,o),
(63,279,o),
(98,279,cs),
(131,279,o),
(163,306,o),
(169,341,cs)
);
}
);
width = 212;
}
);
note = periodcentered;
unicode = 183;
},
{
glyphname = cedilla;
lastChange = "2022-10-20 15:33:47 +0000";
layers = (
{
layerId = m01;
shapes = (
{
closed = 1;
nodes = (
(149,7,l),
(88,7,l),
(66,-114,l),
(116,-114,ls),
(159,-114,o),
(178,-126,o),
(173,-157,cs),
(167,-189,o),
(144,-201,o),
(101,-201,cs),
(4,-201,l),
(-7,-260,l),
(108,-260,ls),
(179,-260,o),
(237,-220,o),
(249,-157,cs),
(260,-91,o),
(214,-57,o),
(137,-58,c)
);
}
);
width = 272;
}
);
note = cedilla;
unicode = 184;
},
{
glyphname = onesuperior;
lastChange = "2022-10-20 15:33:47 +0000";
layers = (
{
layerId = m01;
shapes = (
{
closed = 1;
nodes = (
(48,352,l),
(120,352,l),
(182,704,l),
(56,704,l),
(46,648,l),
(100,648,l)
);
}
);
width = 196;
}
);
note = onesuperior;
unicode = 185;
},
{
glyphname = ordmasculine;
lastChange = "2022-10-20 15:33:47 +0000";
layers = (
{
layerId = m01;
shapes = (
{
closed = 1;
nodes = (
(14,419,o),
(79,346,o),
(185,346,cs),
(290,346,o),
(384,419,o),
(403,528,cs),
(423,638,o),
(356,709,o),
(250,709,cs),
(145,709,o),
(53,638,o),
(33,528,cs)
);
},
{
closed = 1;
nodes = (
(315,447,o),
(253,404,o),
(195,404,cs),
(135,404,o),
(94,447,o),
(108,527,cs),
(122,609,o),
(181,652,o),
(240,652,cs),
(298,652,o),
(343,609,o),
(329,527,cs)
);
}
);
width = 436;
}
);
note = ordmasculine;
unicode = 186;
},
{
glyphname = guillemotright;
lastChange = "2022-10-20 15:33:47 +0000";
layers = (
{
layerId = m01;
shapes = (
{
closed = 1;
nodes = (
(289,120,l),
(416,295,l),
(351,470,l),
(262,470,l),
(329,295,l),
(200,120,l)
);
},
{
closed = 1;
nodes = (
(108,120,l),
(235,295,l),
(170,470,l),
(81,470,l),
(149,295,l),
(19,120,l)
);
}
);
width = 461;
}
);
note = guillemotright;
unicode = 187;
},
{
glyphname = onequarter;
lastChange = "2022-10-20 15:33:47 +0000";
layers = (
{
layerId = m01;
shapes = (
{
closed = 1;
nodes = (
(0,0,l),
(86,0,l),
(583,698,l),
(497,698,l)
);
},
{
closed = 1;
nodes = (
(514,116,l),
(556,353,l),
(459,353,l),
(258,111,l),
(251,69,l),
(434,69,l),
(422,0,l),
(494,0,l),
(506,69,l),
(554,69,l),
(562,116,l)
);
},
{
closed = 1;
nodes = (
(333,116,l),
(475,291,l),
(444,116,l)
);
},
{
closed = 1;
nodes = (
(92,352,l),
(164,352,l),
(226,704,l),
(100,704,l),
(90,648,l),
(144,648,l)
);
}
);
width = 640;
}
);
note = onequarter;
unicode = 188;
},
{
glyphname = onehalf;
lastChange = "2022-10-20 15:33:47 +0000";
layers = (
{
layerId = m01;
shapes = (
{
closed = 1;
nodes = (
(-5,0,l),
(82,0,l),
(570,698,l),
(484,698,l)
);
},
{
closed = 1;
nodes = (
(90,352,l),
(162,352,l),
(224,704,l),
(98,704,l),
(88,648,l),
(142,648,l)
);
},
{
closed = 1;
nodes = (
(423,250,l),
(433,282,o),
(454,301,o),
(486,301,cs),
(515,301,o),
(535,281,o),
(528,244,cs),
(521,202,o),
(486,171,o),
(441,139,cs),
(317,51,l),
(308,-1,l),
(565,-1,l),
(575,58,l),
(399,58,l),
(488,114,ls),
(558,159,o),
(595,194,o),
(605,247,cs),
(615,307,o),
(576,357,o),
(498,357,cs),
(417,357,o),
(364,311,o),
(350,250,c)
);
}
);
width = 675;
}
);
note = onehalf;
unicode = 189;
},
{
glyphname = threequarters;
lastChange = "2022-10-20 15:33:47 +0000";
layers = (
{
layerId = m01;
shapes = (
{
closed = 1;
nodes = (
(80,0,l),
(165,0,l),
(678,698,l),
(592,698,l)
);
},
{
closed = 1;
nodes = (
(593,116,l),
(635,353,l),
(538,353,l),
(337,111,l),
(330,69,l),
(513,69,l),
(500,0,l),
(572,0,l),
(585,69,l),
(632,69,l),
(640,116,l)
);
},
{
closed = 1;
nodes = (
(411,116,l),
(553,291,l),
(522,116,l)
);
},
{
closed = 1;
nodes = (
(153,611,l),
(164,637,o),
(187,655,o),
(223,655,cs),
(260,655,o),
(279,634,o),
(274,603,cs),
(268,570,o),
(239,553,o),
(202,553,cs),
(161,553,l),
(152,505,l),
(195,505,ls),
(232,505,o),
(255,486,o),
(249,453,cs),
(244,421,o),
(216,401,o),
(179,401,cs),
(145,401,o),
(123,417,o),
(124,454,c),
(52,454,l),
(45,386,o),
(91,347,o),
(171,347,cs),
(254,347,o),
(316,391,o),
(326,444,cs),
(333,487,o),
(308,515,o),
(275,527,c),
(276,529,l),
(313,539,o),
(344,566,o),
(351,607,cs),
(362,665,o),
(312,710,o),
(238,710,cs),
(159,710,o),
(100,669,o),
(84,611,c)
);
}
);
width = 709;
}
);
note = threequarters;
unicode = 190;
},
{
glyphname = questiondown;
lastChange = "2022-10-20 15:33:47 +0000";
layers = (
{
layerId = m01;
shapes = (
{
closed = 1;
nodes = (
(372,45,l),
(358,-33,o),
(299,-80,o),
(217,-80,cs),
(136,-80,o),
(92,-30,o),
(107,50,cs),
(128,171,o),
(229,193,o),
(343,193,cs),
(372,193,l),
(396,351,l),
(317,351,l),
(297,256,l),
(157,256,o),
(45,196,o),
(20,50,cs),
(-3,-77,o),
(73,-156,o),
(204,-156,cs),
(335,-156,o),
(437,-76,o),
(458,45,c)
);
},
{
closed = 1;
nodes = (
(316,459,o),
(338,432,o),
(371,432,cs),
(406,432,o),
(438,459,o),
(444,494,cs),
(450,529,o),
(428,556,o),
(393,556,cs),
(360,556,o),
(328,529,o),
(322,494,cs)
);
}
);
width = 519;
}
);
note = questiondown;
unicode = 191;
},
{
glyphname = Agrave;
lastChange = "2022-10-20 15:33:47 +0000";
layers = (
{
layerId = m01;
shapes = (
{
closed = 1;
nodes = (
(463,0,l),
(559,0,l),
(431,693,l),
(326,693,l),
(-49,0,l),
(47,0,l),
(131,155,l),
(435,155,l)
);
},
{
closed = 1;
nodes = (
(290,848,l),
(483,734,l),
(495,802,l),
(304,927,l)
);
},
{
closed = 1;
nodes = (
(422,229,l),
(170,229,l),
(358,581,l)
);
}
);
width = 674;
}
);
note = Agrave;
unicode = 192;
},
{
glyphname = Aacute;
lastChange = "2022-10-20 15:33:47 +0000";
layers = (
{
layerId = m01;
shapes = (
{
closed = 1;
nodes = (
(463,0,l),
(559,0,l),
(431,693,l),
(326,693,l),
(-49,0,l),
(47,0,l),
(131,155,l),
(435,155,l)
);
},
{
closed = 1;
nodes = (
(282,802,l),
(270,734,l),
(503,848,l),
(517,927,l)
);
},
{
closed = 1;
nodes = (
(422,229,l),
(170,229,l),
(358,581,l)
);
}
);
width = 674;
}
);
note = Aacute;
unicode = 193;
},
{
glyphname = Acircumflex;
lastChange = "2022-10-20 15:33:47 +0000";
layers = (
{
layerId = m01;
shapes = (
{
closed = 1;
nodes = (
(466,0,l),
(562,0,l),
(433,693,l),
(328,693,l),
(-46,0,l),
(50,0,l),
(133,155,l),
(437,155,l)
);
},
{
closed = 1;
nodes = (
(541,814,l),
(417,897,l),
(264,814,l),
(251,742,l),
(405,827,l),
(528,742,l)
);
},
{
closed = 1;
nodes = (
(424,229,l),
(172,229,l),
(360,581,l)
);
}
);
width = 674;
}
);
note = Acircumflex;
unicode = 194;
},
{
glyphname = Atilde;
lastChange = "2022-10-20 15:33:47 +0000";
layers = (
{
layerId = m01;
shapes = (
{
closed = 1;
nodes = (
(469,0,l),
(565,0,l),
(437,693,l),
(332,693,l),
(-43,0,l),
(53,0,l),
(137,155,l),
(441,155,l)
);
},
{
closed = 1;
nodes = (
(300,752,l),
(309,782,o),
(329,796,o),
(351,796,cs),
(391,796,o),
(403,750,o),
(457,750,cs),
(509,750,o),
(555,786,o),
(575,854,c),
(523,854,l),
(514,825,o),
(494,811,o),
(472,811,cs),
(431,811,o),
(419,857,o),
(366,857,cs),
(314,857,o),
(269,821,o),
(247,752,c)
);
},
{
closed = 1;
nodes = (
(428,229,l),
(176,229,l),
(364,581,l)
);
}
);
width = 674;
}
);
note = Atilde;
unicode = 195;
},
{
glyphname = Adieresis;
lastChange = "2022-10-20 15:33:47 +0000";
layers = (
{
layerId = m01;
shapes = (
{
closed = 1;
nodes = (
(468,0,l),
(564,0,l),
(435,693,l),
(330,693,l),
(-44,0,l),
(52,0,l),
(135,155,l),
(439,155,l)
);
},
{
closed = 1;
nodes = (
(343,767,o),
(371,790,o),
(377,819,cs),
(382,848,o),
(362,872,o),
(334,872,cs),
(304,872,o),
(277,848,o),
(272,819,cs),
(266,790,o),
(285,767,o),
(315,767,cs)
);
},
{
closed = 1;
nodes = (
(506,767,o),
(534,790,o),
(540,819,cs),
(545,848,o),
(525,872,o),
(496,872,cs),
(466,872,o),
(440,848,o),
(435,819,cs),
(429,790,o),
(447,767,o),
(477,767,cs)
);
},
{
closed = 1;
nodes = (
(426,229,l),
(174,229,l),
(363,581,l)
);
}
);
width = 674;
}
);
note = Adieresis;
unicode = 196;
},
{
glyphname = Aring;
lastChange = "2022-10-20 15:33:47 +0000";
layers = (
{
layerId = m01;
shapes = (
{
closed = 1;
nodes = (
(460,0,l),
(556,0,l),
(427,693,l),
(322,693,l),
(-52,0,l),
(44,0,l),
(127,155,l),
(431,155,l)
);
},
{
closed = 1;
nodes = (
(364,801,o),
(345,824,o),
(351,858,cs),
(357,892,o),
(384,914,o),
(414,914,cs),
(444,914,o),
(465,892,o),
(459,858,cs),
(453,824,o),
(424,801,o),
(394,801,cs)
);
},
{
closed = 1;
nodes = (
(365,962,o),
(309,922,o),
(297,857,cs),
(286,792,o),
(328,752,o),
(386,752,cs),
(445,752,o),
(500,792,o),
(511,857,cs),
(523,922,o),
(482,962,o),
(423,962,cs)
);
},
{
closed = 1;
nodes = (
(419,229,l),
(167,229,l),
(355,581,l)
);
}
);
width = 674;
}
);
note = Aring;
unicode = 197;
},
{
glyphname = AE;
lastChange = "2022-10-20 15:33:47 +0000";
layers = (
{
layerId = m01;
shapes = (
{
closed = 1;
nodes = (
(514,629,l),
(443,226,l),
(216,226,l)
);
},
{
closed = 1;
nodes = (
(887,626,l),
(900,698,l),
(469,698,l),
(-50,0,l),
(49,0,l),
(164,155,l),
(431,155,l),
(403,0,l),
(776,0,l),
(789,72,l),
(507,72,l),
(550,317,l),
(802,317,l),
(815,387,l),
(563,387,l),
(605,626,l)
);
}
);
width = 900;
}
);
note = AE;
unicode = 198;
},
{
glyphname = Ccedilla;
lastChange = "2022-10-20 15:33:47 +0000";
layers = (
{
layerId = m01;
shapes = (
{
closed = 1;
nodes = (
(30,149,o),
(145,7,o),
(325,-5,c),
(306,-114,l),
(356,-114,ls),
(399,-114,o),
(417,-126,o),
(412,-157,cs),
(406,-189,o),
(383,-201,o),
(340,-201,cs),
(243,-201,l),
(233,-260,l),
(348,-260,ls),
(419,-260,o),
(477,-220,o),
(488,-157,cs),
(500,-91,o),
(454,-57,o),
(376,-58,c),
(386,-5,l),
(522,6,o),
(641,80,o),
(710,203,c),
(601,203,l),
(549,120,o),
(467,73,o),
(365,73,cs),
(219,73,o),
(128,179,o),
(158,349,cs),
(188,520,o),
(316,626,o),
(462,626,cs),
(564,626,o),
(630,579,o),
(653,495,c),
(762,495,l),
(734,630,o),
(627,706,o),
(476,706,cs),
(281,706,o),
(102,558,o),
(65,349,cs)
);
}
);
width = 772;
}
);
note = Ccedilla;
unicode = 199;
},
{
glyphname = Egrave;
lastChange = "2022-10-20 15:33:47 +0000";
layers = (
{
layerId = m01;
shapes = (
{
closed = 1;
nodes = (
(493,698,l),
(118,698,l),
(-5,0,l),
(370,0,l),
(383,75,l),
(99,75,l),
(142,315,l),
(396,315,l),
(409,390,l),
(155,390,l),
(196,623,l),
(480,623,l)
);
},
{
closed = 1;
nodes = (
(207,848,l),
(400,734,l),
(412,802,l),
(221,927,l)
);
}
);
width = 513;
}
);
note = Egrave;
unicode = 200;
},
{
glyphname = Eacute;
lastChange = "2022-10-20 15:33:47 +0000";
layers = (
{
layerId = m01;
shapes = (
{
closed = 1;
nodes = (
(493,698,l),
(118,698,l),
(-5,0,l),
(370,0,l),
(383,75,l),
(99,75,l),
(142,315,l),
(396,315,l),
(409,390,l),
(155,390,l),
(196,623,l),
(480,623,l)
);
},
{
closed = 1;
nodes = (
(199,802,l),
(187,734,l),
(420,848,l),
(434,927,l)
);
}
);
width = 513;
}
);
note = Eacute;
unicode = 201;
},
{
glyphname = Ecircumflex;
lastChange = "2022-10-20 15:33:47 +0000";
layers = (
{
layerId = m01;
shapes = (
{
closed = 1;
nodes = (
(496,698,l),
(121,698,l),
(-2,0,l),
(373,0,l),
(386,75,l),
(102,75,l),
(144,315,l),
(398,315,l),
(412,390,l),
(158,390,l),
(199,623,l),
(483,623,l)
);
},
{
closed = 1;
nodes = (
(458,814,l),
(334,897,l),
(181,814,l),
(168,742,l),
(322,827,l),
(445,742,l)
);
}
);
width = 513;
}
);
note = Ecircumflex;
unicode = 202;
},
{
glyphname = Edieresis;
lastChange = "2022-10-20 15:33:47 +0000";
layers = (
{
layerId = m01;
shapes = (
{
closed = 1;
nodes = (
(498,698,l),
(123,698,l),
(0,0,l),
(375,0,l),
(388,75,l),
(104,75,l),
(147,315,l),
(401,315,l),
(414,390,l),
(160,390,l),
(201,623,l),
(485,623,l)
);
},
{
closed = 1;
nodes = (
(260,767,o),
(288,790,o),
(294,819,cs),
(299,848,o),
(279,872,o),
(251,872,cs),
(221,872,o),
(194,848,o),
(189,819,cs),
(183,790,o),
(202,767,o),
(232,767,cs)
);
},
{
closed = 1;
nodes = (
(423,767,o),
(451,790,o),
(457,819,cs),
(462,848,o),
(442,872,o),
(413,872,cs),
(383,872,o),
(357,848,o),
(352,819,cs),
(346,790,o),
(364,767,o),
(394,767,cs)
);
}
);
width = 513;
}
);
note = Edieresis;
unicode = 203;
},
{
glyphname = Igrave;
lastChange = "2022-10-20 15:33:47 +0000";
layers = (
{
layerId = m01;
shapes = (
{
closed = 1;
nodes = (
(-5,0,l),
(86,0,l),
(209,697,l),
(118,697,l)
);
},
{
closed = 1;
nodes = (
(75,848,l),
(268,734,l),
(280,802,l),
(89,927,l)
);
}
);
width = 246;
}
);
note = Igrave;
unicode = 204;
},
{
glyphname = Iacute;
lastChange = "2022-10-20 15:33:47 +0000";
layers = (
{
layerId = m01;
shapes = (
{
closed = 1;
nodes = (
(-5,0,l),
(86,0,l),
(209,697,l),
(118,697,l)
);
},
{
closed = 1;
nodes = (
(67,802,l),
(55,734,l),
(288,848,l),
(302,927,l)
);
}
);
width = 246;
}
);
note = Iacute;
unicode = 205;
},
{
glyphname = Icircumflex;
lastChange = "2022-10-20 15:33:47 +0000";
layers = (
{
layerId = m01;
shapes = (
{
closed = 1;
nodes = (
(-2,0,l),
(89,0,l),
(212,697,l),
(121,697,l)
);
},
{
closed = 1;
nodes = (
(326,814,l),
(202,897,l),
(49,814,l),
(36,742,l),
(190,827,l),
(313,742,l)
);
}
);
width = 246;
}
);
note = Icircumflex;
unicode = 206;
},
{
glyphname = Idieresis;
lastChange = "2022-10-20 15:33:47 +0000";
layers = (
{
layerId = m01;
shapes = (
{
closed = 1;
nodes = (
(0,0,l),
(91,0,l),
(214,697,l),
(123,697,l)
);
},
{
closed = 1;
nodes = (
(128,767,o),
(156,790,o),
(162,819,cs),
(167,848,o),
(147,872,o),
(119,872,cs),
(89,872,o),
(62,848,o),
(57,819,cs),
(51,790,o),
(70,767,o),
(100,767,cs)
);
},
{
closed = 1;
nodes = (
(291,767,o),
(319,790,o),
(325,819,cs),
(330,848,o),
(310,872,o),
(281,872,cs),
(251,872,o),
(225,848,o),
(220,819,cs),
(214,790,o),
(232,767,o),
(262,767,cs)
);
}
);
width = 246;
}
);
note = Idieresis;
unicode = 207;
},
{
glyphname = Eth;
lastChange = "2022-10-20 15:33:47 +0000";
layers = (
{
layerId = m01;
shapes = (
{
closed = 1;
nodes = (
(158,697,l),
(103,389,l),
(16,389,l),
(1,305,l),
(88,305,l),
(34,0,l),
(251,0,ls),
(479,0,o),
(644,131,o),
(682,347,cs),
(720,563,o),
(603,697,o),
(375,697,cs)
);
},
{
closed = 1;
nodes = (
(138,70,l),
(179,305,l),
(371,305,l),
(386,389,l),
(194,389,l),
(235,623,l),
(361,623,ls),
(542,623,o),
(619,517,o),
(589,347,cs),
(559,177,o),
(445,70,o),
(264,70,cs)
);
}
);
width = 725;
}
);
note = Eth;
unicode = 208;
},
{
glyphname = Ntilde;
lastChange = "2022-10-20 15:33:47 +0000";
layers = (
{
layerId = m01;
shapes = (
{
closed = 1;
nodes = (
(582,698,l),
(484,144,l),
(216,698,l),
(125,698,l),
(1,0,l),
(92,0,l),
(190,555,l),
(458,0,l),
(549,0,l),
(673,698,l)
);
},
{
closed = 1;
nodes = (
(315,752,l),
(324,782,o),
(344,796,o),
(366,796,cs),
(406,796,o),
(418,750,o),
(472,750,cs),
(524,750,o),
(570,786,o),
(590,854,c),
(538,854,l),
(529,825,o),
(509,811,o),
(487,811,cs),
(446,811,o),
(434,857,o),
(381,857,cs),
(329,857,o),
(284,821,o),
(262,752,c)
);
}
);
width = 703;
}
);
note = Ntilde;
unicode = 209;
},
{
glyphname = Ograve;
lastChange = "2022-10-20 15:33:47 +0000";
layers = (
{
layerId = m01;
shapes = (
{
closed = 1;
nodes = (
(760,558,o),
(633,705,o),
(436,705,cs),
(240,705,o),
(60,558,o),
(23,349,cs),
(-13,140,o),
(115,-7,o),
(311,-7,cs),
(508,-7,o),
(687,140,o),
(723,349,cs)
);
},
{
closed = 1;
nodes = (
(147,520,o),
(275,626,o),
(422,626,cs),
(569,626,o),
(661,520,o),
(630,349,cs),
(600,179,o),
(472,72,o),
(325,72,cs),
(178,72,o),
(86,179,o),
(116,349,cs)
);
},
{
closed = 1;
nodes = (
(348,848,l),
(541,734,l),
(553,802,l),
(362,927,l)
);
}
);
width = 786;
}
);
note = Ograve;
unicode = 210;
},
{
glyphname = Oacute;
lastChange = "2022-10-20 15:33:47 +0000";
layers = (
{
layerId = m01;
shapes = (
{
closed = 1;
nodes = (
(760,558,o),
(633,705,o),
(436,705,cs),
(240,705,o),
(60,558,o),
(23,349,cs),
(-13,140,o),
(115,-7,o),
(311,-7,cs),
(508,-7,o),
(687,140,o),
(723,349,cs)
);
},
{
closed = 1;
nodes = (
(147,520,o),
(275,626,o),
(422,626,cs),
(569,626,o),
(661,520,o),
(630,349,cs),
(600,179,o),
(472,72,o),
(325,72,cs),
(178,72,o),
(86,179,o),
(116,349,cs)
);
},
{
closed = 1;
nodes = (
(340,802,l),
(328,734,l),
(561,848,l),
(575,927,l)
);
}
);
width = 786;
}
);
note = Oacute;
unicode = 211;
},
{
glyphname = Ocircumflex;
lastChange = "2022-10-20 15:33:47 +0000";
layers = (
{
layerId = m01;
shapes = (
{
closed = 1;
nodes = (
(763,558,o),
(636,705,o),
(439,705,cs),
(243,705,o),
(63,558,o),
(26,349,cs),
(-11,140,o),
(117,-7,o),
(313,-7,cs),
(510,-7,o),
(689,140,o),
(726,349,cs)
);
},
{
closed = 1;
nodes = (
(149,520,o),
(278,626,o),
(425,626,cs),
(572,626,o),
(663,520,o),
(633,349,cs),
(603,179,o),
(474,72,o),
(327,72,cs),
(180,72,o),
(89,179,o),
(119,349,cs)
);
},
{
closed = 1;
nodes = (
(599,814,l),
(476,897,l),
(322,814,l),
(309,742,l),
(463,827,l),
(586,742,l)
);
}
);
width = 786;
}
);
note = Ocircumflex;
unicode = 212;
},
{
glyphname = Otilde;
lastChange = "2022-10-20 15:33:47 +0000";
layers = (
{
layerId = m01;
shapes = (
{
closed = 1;
nodes = (
(766,558,o),
(639,705,o),
(442,705,cs),
(246,705,o),
(66,558,o),
(30,349,cs),
(-7,140,o),
(121,-7,o),
(317,-7,cs),
(514,-7,o),
(693,140,o),
(730,349,cs)
);
},
{
closed = 1;
nodes = (
(153,520,o),
(281,626,o),
(428,626,cs),
(575,626,o),
(667,520,o),
(637,349,cs),
(607,179,o),
(478,72,o),
(331,72,cs),
(184,72,o),
(93,179,o),
(123,349,cs)
);
},
{
closed = 1;
nodes = (
(360,752,l),
(369,782,o),
(388,796,o),
(410,796,cs),
(450,796,o),
(462,750,o),
(516,750,cs),
(568,750,o),
(615,786,o),
(635,854,c),
(583,854,l),
(574,825,o),
(553,811,o),
(531,811,cs),
(490,811,o),
(478,857,o),
(425,857,cs),
(373,857,o),
(329,821,o),
(307,752,c)
);
}
);
width = 786;
}
);
note = Otilde;
unicode = 213;
},
{
glyphname = Odieresis;
lastChange = "2022-10-20 15:33:47 +0000";
layers = (
{
layerId = m01;
shapes = (
{
closed = 1;
nodes = (
(765,558,o),
(638,705,o),
(441,705,cs),
(245,705,o),
(65,558,o),
(28,349,cs),
(-9,140,o),
(119,-7,o),
(315,-7,cs),
(512,-7,o),
(691,140,o),
(728,349,cs)
);
},
{
closed = 1;
nodes = (
(151,520,o),
(280,626,o),
(427,626,cs),
(574,626,o),
(665,520,o),
(635,349,cs),
(605,179,o),
(476,72,o),
(329,72,cs),
(182,72,o),
(91,179,o),
(121,349,cs)
);
},
{
closed = 1;
nodes = (
(402,767,o),
(430,790,o),
(435,819,cs),
(440,848,o),
(421,872,o),
(393,872,cs),
(363,872,o),
(335,848,o),
(330,819,cs),
(325,790,o),
(344,767,o),
(374,767,cs)
);
},
{
closed = 1;
nodes = (
(565,767,o),
(593,790,o),
(598,819,cs),
(603,848,o),
(584,872,o),
(555,872,cs),
(525,872,o),
(498,848,o),
(493,819,cs),
(488,790,o),
(506,767,o),
(536,767,cs)
);
}
);
width = 786;
}
);
note = Odieresis;
unicode = 214;
},
{
glyphname = multiply;
lastChange = "2022-10-20 15:33:47 +0000";
layers = (
{
layerId = m01;
shapes = (
{
closed = 1;
nodes = (
(125,150,l),
(312,309,l),
(443,150,l),
(511,208,l),
(381,367,l),
(566,524,l),
(516,584,l),
(332,427,l),
(202,584,l),
(134,525,l),
(262,369,l),
(75,210,l)
);
}
);
width = 643;
}
);
note = multiply;
unicode = 215;
},
{
glyphname = Oslash;
lastChange = "2022-10-20 15:33:47 +0000";
layers = (
{
layerId = m01;
shapes = (
{
closed = 1;
nodes = (
(760,447,o),
(742,531,o),
(697,593,c),
(813,698,l),
(739,698,l),
(664,630,l),
(613,678,o),
(541,705,o),
(456,705,cs),
(260,705,o),
(80,558,o),
(43,349,cs),
(26,252,o),
(45,168,o),
(89,106,c),
(-27,0,l),
(47,0,l),
(122,68,l),
(174,20,o),
(245,-7,o),
(330,-7,cs),
(527,-7,o),
(706,140,o),
(743,349,cs)
);
},
{
closed = 1;
nodes = (
(166,520,o),
(295,626,o),
(442,626,cs),
(506,626,o),
(559,606,o),
(597,569,c),
(159,169,l),
(132,215,o),
(123,276,o),
(136,349,cs)
);
},
{
closed = 1;
nodes = (
(280,72,o),
(227,92,o),
(189,129,c),
(628,529,l),
(654,483,o),
(663,422,o),
(650,349,cs),
(620,179,o),
(491,72,o),
(344,72,cs)
);
}
);
width = 786;
}
);
note = Oslash;
unicode = 216;
},
{
glyphname = Ugrave;
lastChange = "2022-10-20 15:33:47 +0000";
layers = (
{
layerId = m01;
shapes = (
{
closed = 1;
nodes = (
(39,257,ls),
(7,76,o),
(111,-7,o),
(255,-7,cs),
(399,-7,o),
(532,76,o),
(564,257,cs),
(642,697,l),
(551,697,l),
(473,256,ls),
(450,128,o),
(373,73,o),
(270,73,cs),
(167,73,o),
(107,128,o),
(130,256,cs),
(208,697,l),
(117,697,l)
);
},
{
closed = 1;
nodes = (
(290,848,l),
(483,734,l),
(495,802,l),
(304,927,l)
);
}
);
width = 675;
}
);
note = Ugrave;
unicode = 217;
},
{
glyphname = Uacute;
lastChange = "2022-10-20 15:33:47 +0000";
layers = (
{
layerId = m01;
shapes = (
{
closed = 1;
nodes = (
(39,257,ls),
(7,76,o),
(111,-7,o),
(255,-7,cs),
(399,-7,o),
(532,76,o),
(564,257,cs),
(642,697,l),
(551,697,l),
(473,256,ls),
(450,128,o),
(373,73,o),
(270,73,cs),
(167,73,o),
(107,128,o),
(130,256,cs),
(208,697,l),
(117,697,l)
);
},
{
closed = 1;
nodes = (
(282,802,l),
(270,734,l),
(503,848,l),
(517,927,l)
);
}
);
width = 675;
}
);
note = Uacute;
unicode = 218;
},
{
glyphname = Ucircumflex;
lastChange = "2022-10-20 15:33:47 +0000";
layers = (
{
layerId = m01;
shapes = (
{
closed = 1;
nodes = (
(42,257,ls),
(10,76,o),
(113,-7,o),
(257,-7,cs),
(401,-7,o),
(535,76,o),
(567,257,cs),
(644,697,l),
(553,697,l),
(476,256,ls),
(453,128,o),
(375,73,o),
(272,73,cs),
(169,73,o),
(110,128,o),
(133,256,cs),
(210,697,l),
(119,697,l)
);
},
{
closed = 1;
nodes = (
(541,814,l),
(418,897,l),
(264,814,l),
(251,742,l),
(405,827,l),
(528,742,l)
);
}
);
width = 675;
}
);
note = Ucircumflex;
unicode = 219;
},
{
glyphname = Udieresis;
lastChange = "2022-10-20 15:33:47 +0000";
layers = (
{
layerId = m01;
shapes = (
{
closed = 1;
nodes = (
(44,257,ls),
(12,76,o),
(115,-7,o),
(259,-7,cs),
(403,-7,o),
(537,76,o),
(569,257,cs),
(647,697,l),
(556,697,l),
(478,256,ls),
(455,128,o),
(378,73,o),
(275,73,cs),
(172,73,o),
(112,128,o),
(135,256,cs),
(213,697,l),
(122,697,l)
);
},
{
closed = 1;
nodes = (
(344,767,o),
(372,790,o),
(377,819,cs),
(382,848,o),
(363,872,o),
(335,872,cs),
(305,872,o),
(277,848,o),
(272,819,cs),
(267,790,o),
(286,767,o),
(316,767,cs)
);
},
{
closed = 1;
nodes = (
(507,767,o),
(535,790,o),
(540,819,cs),
(545,848,o),
(526,872,o),
(497,872,cs),
(467,872,o),
(440,848,o),
(435,819,cs),
(430,790,o),
(448,767,o),
(478,767,cs)
);
}
);
width = 675;
}
);
note = Udieresis;
unicode = 220;
},
{
glyphname = Yacute;
lastChange = "2022-10-20 15:33:47 +0000";
layers = (
{
layerId = m01;
shapes = (
{
closed = 1;
nodes = (
(212,263,l),
(165,0,l),
(256,0,l),
(303,263,l),
(606,697,l),
(505,697,l),
(271,344,l),
(161,697,l),
(60,697,l)
);
},
{
closed = 1;
nodes = (
(237,802,l),
(225,734,l),
(458,848,l),
(472,927,l)
);
}
);
width = 584;
}
);
note = Yacute;
unicode = 221;
},
{
glyphname = Thorn;
lastChange = "2022-10-20 15:33:47 +0000";
layers = (
{
layerId = m01;
shapes = (
{
closed = 1;
nodes = (
(145,219,l),
(191,481,l),
(325,481,ls),
(429,481,o),
(464,429,o),
(450,349,cs),
(436,271,o),
(383,219,o),
(279,219,cs)
);
},
{
closed = 1;
nodes = (
(563,463,o),
(502,553,o),
(338,553,cs),
(204,553,l),
(230,698,l),
(139,698,l),
(15,0,l),
(106,0,l),
(132,146,l),
(266,146,ls),
(439,146,o),
(524,242,o),
(543,349,cs)
);
}
);
width = 579;
}
);
note = Thorn;
unicode = 222;
},
{
glyphname = germandbls;
lastChange = "2022-10-20 15:33:47 +0000";
layers = (
{
layerId = m01;
shapes = (
{
closed = 1;
nodes = (
(-7,0,l),
(84,0,l),
(181,550,ls),
(197,640,o),
(247,694,o),
(349,694,cs),
(428,694,o),
(472,658,o),
(461,598,cs),
(446,510,o),
(298,477,o),
(280,375,cs),
(269,312,o),
(308,277,o),
(407,242,cs),
(476,218,o),
(497,192,o),
(488,144,cs),
(479,92,o),
(439,63,o),
(377,63,cs),
(309,63,o),
(277,106,o),
(284,170,c),
(192,170,l),
(182,57,o),
(249,-10,o),
(364,-10,cs),
(484,-10,o),
(566,56,o),
(582,151,cs),
(596,228,o),
(565,279,o),
(472,311,cs),
(388,341,o),
(369,359,o),
(374,387,cs),
(385,446,o),
(532,481,o),
(554,605,cs),
(569,691,o),
(508,771,o),
(364,771,cs),
(203,771,o),
(113,678,o),
(92,561,cs)
);
}
);
width = 681;
}
);
note = germandbls;
unicode = 223;
},
{
glyphname = agrave;
lastChange = "2022-10-20 15:33:47 +0000";
layers = (
{
layerId = m01;
shapes = (
{
closed = 1;
nodes = (
(-7,106,o),
(86,-9,o),
(232,-9,cs),
(333,-9,o),
(413,43,o),
(457,102,c),
(439,0,l),
(531,0,l),
(628,548,l),
(536,548,l),
(518,448,l),
(496,505,o),
(435,557,o),
(333,557,cs),
(186,557,o),
(54,447,o),
(23,276,cs)
);
},
{
closed = 1;
nodes = (
(465,146,o),
(365,71,o),
(265,71,cs),
(165,71,o),
(94,147,o),
(116,276,cs),
(139,405,o),
(237,478,o),
(337,478,cs),
(437,478,o),
(510,402,o),
(487,275,cs)
);
},
{
closed = 1;
nodes = (
(279,703,l),
(472,589,l),
(484,657,l),
(293,782,l)
);
}
);
width = 676;
}
);
note = agrave;
unicode = 224;
},
{
glyphname = aacute;
lastChange = "2022-10-20 15:33:47 +0000";
layers = (
{
layerId = m01;
shapes = (
{
closed = 1;
nodes = (
(-7,106,o),
(86,-9,o),
(232,-9,cs),
(333,-9,o),
(413,43,o),
(457,102,c),
(439,0,l),
(531,0,l),
(628,548,l),
(536,548,l),
(518,448,l),
(496,505,o),
(435,557,o),
(333,557,cs),
(186,557,o),
(54,447,o),
(23,276,cs)
);
},
{
closed = 1;
nodes = (
(465,146,o),
(365,71,o),
(265,71,cs),
(165,71,o),
(94,147,o),
(116,276,cs),
(139,405,o),
(237,478,o),
(337,478,cs),
(437,478,o),
(510,402,o),
(487,275,cs)
);
},
{
closed = 1;
nodes = (
(271,657,l),
(259,589,l),
(492,703,l),
(506,782,l)
);
}
);
width = 676;
}
);
note = aacute;
unicode = 225;
},
{
glyphname = acircumflex;
lastChange = "2022-10-20 15:33:47 +0000";
layers = (
{
layerId = m01;
shapes = (
{
closed = 1;
nodes = (
(-4,106,o),
(89,-9,o),
(235,-9,cs),
(336,-9,o),
(416,43,o),
(459,102,c),
(441,0,l),
(533,0,l),
(630,548,l),
(538,548,l),
(521,448,l),
(499,505,o),
(438,557,o),
(336,557,cs),
(189,557,o),
(56,447,o),
(26,276,cs)
);
},
{
closed = 1;
nodes = (
(467,146,o),
(368,71,o),
(268,71,cs),
(168,71,o),
(96,147,o),
(119,276,cs),
(142,405,o),
(240,478,o),
(340,478,cs),
(440,478,o),
(512,402,o),
(490,275,cs)
);
},
{
closed = 1;
nodes = (
(530,669,l),
(406,752,l),
(253,669,l),
(240,597,l),
(394,682,l),
(517,597,l)
);
}
);
width = 676;
}
);
note = acircumflex;
unicode = 226;
},
{
glyphname = atilde;
lastChange = "2022-10-20 15:33:47 +0000";
layers = (
{
layerId = m01;
shapes = (
{
closed = 1;
nodes = (
(0,106,o),
(92,-9,o),
(238,-9,cs),
(339,-9,o),
(420,43,o),
(463,102,c),
(445,0,l),
(537,0,l),
(634,548,l),
(542,548,l),
(524,448,l),
(502,505,o),
(441,557,o),
(339,557,cs),
(192,557,o),
(60,447,o),
(30,276,cs)
);
},
{
closed = 1;
nodes = (
(471,146,o),
(371,71,o),
(271,71,cs),
(171,71,o),
(100,147,o),
(123,276,cs),
(145,405,o),
(243,478,o),
(343,478,cs),
(443,478,o),
(516,402,o),
(493,275,cs)
);
},
{
closed = 1;
nodes = (
(290,607,l),
(299,637,o),
(319,651,o),
(341,651,cs),
(381,651,o),
(393,605,o),
(447,605,cs),
(499,605,o),
(545,641,o),
(565,709,c),
(513,709,l),
(504,680,o),
(484,666,o),
(462,666,cs),
(421,666,o),
(409,712,o),
(356,712,cs),
(304,712,o),
(259,676,o),
(237,607,c)
);
}
);
width = 676;
}
);
note = atilde;
unicode = 227;
},
{
glyphname = adieresis;
lastChange = "2022-10-20 15:33:47 +0000";
layers = (
{
layerId = m01;
shapes = (
{
closed = 1;
nodes = (
(-2,106,o),
(91,-9,o),
(237,-9,cs),
(338,-9,o),
(418,43,o),
(462,102,c),
(444,0,l),
(536,0,l),
(632,548,l),
(540,548,l),
(523,448,l),
(501,505,o),
(440,557,o),
(338,557,cs),
(191,557,o),
(59,447,o),
(28,276,cs)
);
},
{
closed = 1;
nodes = (
(469,146,o),
(370,71,o),
(270,71,cs),
(170,71,o),
(99,147,o),
(121,276,cs),
(144,405,o),
(242,478,o),
(342,478,cs),
(442,478,o),
(515,402,o),
(492,275,cs)
);
},
{
closed = 1;
nodes = (
(332,622,o),
(360,645,o),
(366,674,cs),
(371,703,o),
(351,727,o),
(323,727,cs),
(293,727,o),
(266,703,o),
(261,674,cs),
(255,645,o),
(274,622,o),
(304,622,cs)
);
},
{
closed = 1;
nodes = (
(495,622,o),
(523,645,o),
(529,674,cs),
(534,703,o),
(514,727,o),
(485,727,cs),
(455,727,o),
(429,703,o),
(424,674,cs),
(418,645,o),
(436,622,o),
(466,622,cs)
);
}
);
width = 676;
}
);
note = adieresis;
unicode = 228;
},
{
glyphname = aring;
lastChange = "2022-10-20 15:33:47 +0000";
layers = (
{
layerId = m01;
shapes = (
{
closed = 1;
nodes = (
(-10,106,o),
(83,-9,o),
(229,-9,cs),
(330,-9,o),
(410,43,o),
(454,102,c),
(436,0,l),
(528,0,l),
(624,548,l),
(532,548,l),
(515,448,l),
(493,505,o),
(432,557,o),
(330,557,cs),
(183,557,o),
(51,447,o),
(20,276,cs)
);
},
{
closed = 1;
nodes = (
(461,146,o),
(362,71,o),
(262,71,cs),
(162,71,o),
(91,147,o),
(113,276,cs),
(136,405,o),
(234,478,o),
(334,478,cs),
(434,478,o),
(507,402,o),
(484,275,cs)
);
},
{
closed = 1;
nodes = (
(354,817,o),
(298,777,o),
(286,712,cs),
(275,647,o),
(317,607,o),
(375,607,cs),
(434,607,o),
(489,647,o),
(500,712,cs),
(512,777,o),
(471,817,o),
(412,817,cs)
);
},
{
closed = 1;
nodes = (
(353,656,o),
(334,679,o),
(340,713,cs),
(346,747,o),
(373,769,o),
(403,769,cs),
(433,769,o),
(454,747,o),
(448,713,cs),
(442,679,o),
(413,656,o),
(383,656,cs)
);
}
);
width = 676;
}
);
note = aring;
unicode = 229;
},
{
glyphname = ae;
lastChange = "2022-10-20 15:33:47 +0000";
layers = (
{
layerId = m01;
shapes = (
{
closed = 1;
nodes = (
(917,480,o),
(987,418,o),
(967,309,c),
(606,309,l),
(635,417,o),
(727,480,o),
(820,480,cs)
);
},
{
closed = 1;
nodes = (
(926,169,l),
(898,109,o),
(834,68,o),
(747,68,cs),
(662,68,o),
(584,126,o),
(595,243,c),
(1046,243,l),
(1052,262,o),
(1056,278,o),
(1059,297,cs),
(1085,442,o),
(1004,557,o),
(848,557,cs),
(761,557,o),
(683,524,o),
(620,447,c),
(637,548,l),
(561,548,l),
(544,447,l),
(512,517,o),
(449,557,o),
(358,557,cs),
(206,557,o),
(74,447,o),
(43,276,cs),
(13,106,o),
(106,-9,o),
(253,-9,cs),
(349,-9,o),
(431,41,o),
(480,105,c),
(462,0,l),
(541,0,l),
(559,106,l),
(586,36,o),
(658,-9,o),
(748,-9,cs),
(879,-9,o),
(979,69,o),
(1024,169,c)
);
},
{
closed = 1;
nodes = (
(159,405,o),
(257,478,o),
(357,478,cs),
(457,478,o),
(530,402,o),
(507,275,cs),
(484,146,o),
(385,71,o),
(285,71,cs),
(185,71,o),
(114,147,o),
(136,276,cs)
);
}
);
width = 1097;
}
);
note = ae;
unicode = 230;
},
{
glyphname = ccedilla;
lastChange = "2022-10-20 15:33:47 +0000";
layers = (
{
layerId = m01;
shapes = (
{
closed = 1;
nodes = (
(37,114,o),
(114,7,o),
(250,-7,c),
(231,-114,l),
(281,-114,ls),
(324,-114,o),
(343,-126,o),
(337,-157,cs),
(331,-189,o),
(308,-201,o),
(265,-201,cs),
(168,-201,l),
(158,-260,l),
(273,-260,ls),
(344,-260,o),
(402,-220,o),
(413,-157,cs),
(425,-91,o),
(379,-57,o),
(302,-58,c),
(310,-8,l),
(432,2,o),
(524,75,o),
(568,176,c),
(470,176,l),
(438,107,o),
(377,68,o),
(296,68,cs),
(196,68,o),
(134,139,o),
(158,275,cs),
(182,409,o),
(269,480,o),
(369,480,cs),
(450,480,o),
(497,438,o),
(504,372,c),
(602,372,l),
(595,487,o),
(518,557,o),
(382,557,cs),
(226,557,o),
(96,447,o),
(65,275,cs)
);
}
);
width = 607;
}
);
note = ccedilla;
unicode = 231;
},
{
glyphname = egrave;
lastChange = "2022-10-20 15:33:47 +0000";
layers = (
{
layerId = m01;
shapes = (
{
closed = 1;
nodes = (
(421,480,o),
(490,421,o),
(470,314,c),
(124,314,l),
(153,421,o),
(238,480,o),
(327,480,cs)
);
},
{
closed = 1;
nodes = (
(430,169,l),
(399,110,o),
(340,68,o),
(258,68,cs),
(165,68,o),
(98,129,o),
(110,240,c),
(548,240,l),
(553,259,o),
(557,275,o),
(561,295,cs),
(587,445,o),
(503,557,o),
(344,557,cs),
(184,557,o),
(54,448,o),
(23,275,cs),
(-7,101,o),
(88,-9,o),
(244,-9,cs),
(380,-9,o),
(482,69,o),
(528,169,c)
);
},
{
closed = 1;
nodes = (
(251,703,l),
(444,589,l),
(456,657,l),
(265,782,l)
);
}
);
width = 620;
}
);
note = egrave;
unicode = 232;
},
{
glyphname = eacute;
lastChange = "2022-10-20 15:33:47 +0000";
layers = (
{
layerId = m01;
shapes = (
{
closed = 1;
nodes = (
(421,480,o),
(490,421,o),
(470,314,c),
(124,314,l),
(153,421,o),
(238,480,o),
(327,480,cs)
);
},
{
closed = 1;
nodes = (
(430,169,l),
(399,110,o),
(340,68,o),
(258,68,cs),
(165,68,o),
(98,129,o),
(110,240,c),
(548,240,l),
(553,259,o),
(557,275,o),
(561,295,cs),
(587,445,o),
(503,557,o),
(344,557,cs),
(184,557,o),
(54,448,o),
(23,275,cs),
(-7,101,o),
(88,-9,o),
(244,-9,cs),
(380,-9,o),
(482,69,o),
(528,169,c)
);
},
{
closed = 1;
nodes = (
(243,657,l),
(231,589,l),
(464,703,l),
(478,782,l)
);
}
);
width = 620;
}
);
note = eacute;
unicode = 233;
},
{
glyphname = ecircumflex;
lastChange = "2022-10-20 15:33:47 +0000";
layers = (
{
layerId = m01;
shapes = (
{
closed = 1;
nodes = (
(423,480,o),
(493,421,o),
(473,314,c),
(127,314,l),
(156,421,o),
(240,480,o),
(329,480,cs)
);
},
{
closed = 1;
nodes = (
(432,169,l),
(402,110,o),
(342,68,o),
(260,68,cs),
(167,68,o),
(100,129,o),
(113,240,c),
(551,240,l),
(556,259,o),
(560,275,o),
(563,295,cs),
(590,445,o),
(506,557,o),
(347,557,cs),
(187,557,o),
(57,448,o),
(26,275,cs),
(-5,101,o),
(91,-9,o),
(247,-9,cs),
(383,-9,o),
(485,69,o),
(530,169,c)
);
},
{
closed = 1;
nodes = (
(502,669,l),
(378,752,l),
(225,669,l),
(212,597,l),
(366,682,l),
(489,597,l)
);
}
);
width = 620;
}
);
note = ecircumflex;
unicode = 234;
},
{
glyphname = edieresis;
lastChange = "2022-10-20 15:33:47 +0000";
layers = (
{
layerId = m01;
shapes = (
{
closed = 1;
nodes = (
(425,480,o),
(495,421,o),
(475,314,c),
(129,314,l),
(158,421,o),
(242,480,o),
(331,480,cs)
);
},
{
closed = 1;
nodes = (
(434,169,l),
(404,110,o),
(345,68,o),
(263,68,cs),
(170,68,o),
(102,129,o),
(115,240,c),
(553,240,l),
(558,259,o),
(562,275,o),
(566,295,cs),
(592,445,o),
(508,557,o),
(349,557,cs),
(189,557,o),
(59,448,o),
(28,275,cs),
(-3,101,o),
(93,-9,o),
(249,-9,cs),
(385,-9,o),
(487,69,o),
(532,169,c)
);
},
{
closed = 1;
nodes = (
(303,622,o),
(331,645,o),
(337,674,cs),
(342,703,o),
(322,727,o),
(294,727,cs),
(264,727,o),
(237,703,o),
(232,674,cs),
(226,645,o),
(245,622,o),
(275,622,cs)
);
},
{
closed = 1;
nodes = (
(466,622,o),
(494,645,o),
(500,674,cs),
(505,703,o),
(485,727,o),
(456,727,cs),
(426,727,o),
(400,703,o),
(395,674,cs),
(389,645,o),
(407,622,o),
(437,622,cs)
);
}
);
width = 620;
}
);
note = edieresis;
unicode = 235;
},
{
glyphname = igrave;
lastChange = "2022-10-20 15:33:47 +0000";
layers = (
{
layerId = m01;
shapes = (
{
closed = 1;
nodes = (
(8,0,l),
(99,0,l),
(196,548,l),
(105,548,l)
);
},
{
closed = 1;
nodes = (
(62,703,l),
(255,589,l),
(267,657,l),
(76,782,l)
);
}
);
width = 246;
}
);
note = igrave;
unicode = 236;
},
{
glyphname = iacute;
lastChange = "2022-10-20 15:33:47 +0000";
layers = (
{
layerId = m01;
shapes = (
{
closed = 1;
nodes = (
(8,0,l),
(99,0,l),
(196,548,l),
(105,548,l)
);
},
{
closed = 1;
nodes = (
(54,657,l),
(42,589,l),
(275,703,l),
(289,782,l)
);
}
);
width = 246;
}
);
note = iacute;
unicode = 237;
},
{
glyphname = icircumflex;
lastChange = "2022-10-20 15:33:47 +0000";
layers = (
{
layerId = m01;
shapes = (
{
closed = 1;
nodes = (
(11,0,l),
(102,0,l),
(198,548,l),
(107,548,l)
);
},
{
closed = 1;
nodes = (
(313,669,l),
(189,752,l),
(36,669,l),
(23,597,l),
(177,682,l),
(300,597,l)
);
}
);
width = 246;
}
);
note = icircumflex;
unicode = 238;
},
{
glyphname = idieresis;
lastChange = "2022-10-20 15:33:47 +0000";
layers = (
{
layerId = m01;
shapes = (
{
closed = 1;
nodes = (
(13,0,l),
(104,0,l),
(201,548,l),
(110,548,l)
);
},
{
closed = 1;
nodes = (
(116,622,o),
(144,645,o),
(149,674,cs),
(154,703,o),
(134,727,o),
(106,727,cs),
(76,727,o),
(49,703,o),
(44,674,cs),
(39,645,o),
(58,622,o),
(88,622,cs)
);
},
{
closed = 1;
nodes = (
(279,622,o),
(307,645,o),
(312,674,cs),
(317,703,o),
(297,727,o),
(268,727,cs),
(238,727,o),
(212,703,o),
(207,674,cs),
(202,645,o),
(220,622,o),
(250,622,cs)
);
}
);
width = 246;
}
);
note = idieresis;
unicode = 239;
},
{
glyphname = eth;
lastChange = "2022-10-20 15:33:47 +0000";
layers = (
{
layerId = m01;
shapes = (
{
closed = 1;
nodes = (
(310,644,l),
(301,594,l),
(439,638,l),
(478,583,o),
(499,528,o),
(509,466,c),
(478,528,o),
(423,558,o),
(345,558,cs),
(193,558,o),
(57,448,o),
(27,278,cs),
(-3,105,o),
(90,-9,o),
(250,-9,cs),
(410,-9,o),
(549,100,o),
(587,315,cs),
(610,446,o),
(583,559,o),
(510,660,c),
(609,692,l),
(618,743,l),
(480,699,l),
(468,713,o),
(454,726,o),
(441,740,c),
(348,740,l),
(371,718,o),
(391,697,o),
(410,676,c)
);
},
{
closed = 1;
nodes = (
(144,412,o),
(240,481,o),
(338,481,cs),
(435,481,o),
(510,411,o),
(486,275,cs),
(462,140,o),
(361,68,o),
(263,68,cs),
(164,68,o),
(96,141,o),
(120,278,cs)
);
}
);
width = 638;
}
);
note = eth;
unicode = 240;
},
{
glyphname = ntilde;
lastChange = "2022-10-20 15:33:47 +0000";
layers = (
{
layerId = m01;
shapes = (
{
closed = 1;
nodes = (
(159,303,ls),
(179,421,o),
(254,479,o),
(347,479,cs),
(439,479,o),
(490,422,o),
(470,310,cs),
(415,0,l),
(505,0,l),
(562,323,ls),
(590,480,o),
(507,558,o),
(380,558,cs),
(306,558,o),
(234,527,o),
(188,470,c),
(202,548,l),
(111,548,l),
(14,0,l),
(105,0,l)
);
},
{
closed = 1;
nodes = (
(272,607,l),
(282,637,o),
(301,651,o),
(323,651,cs),
(363,651,o),
(375,605,o),
(429,605,cs),
(481,605,o),
(527,641,o),
(547,709,c),
(495,709,l),
(486,680,o),
(466,666,o),
(444,666,cs),
(403,666,o),
(391,712,o),
(338,712,cs),
(286,712,o),
(241,676,o),
(219,607,c)
);
}
);
width = 640;
}
);
note = ntilde;
unicode = 241;
},
{
glyphname = ograve;
lastChange = "2022-10-20 15:33:47 +0000";
layers = (
{
layerId = m01;
shapes = (
{
closed = 1;
nodes = (
(607,448,o),
(505,557,o),
(349,557,cs),
(194,557,o),
(53,448,o),
(23,275,cs),
(-8,101,o),
(91,-9,o),
(246,-9,cs),
(402,-9,o),
(546,101,o),
(577,275,cs)
);
},
{
closed = 1;
nodes = (
(140,413,o),
(239,478,o),
(335,478,cs),
(429,478,o),
(508,413,o),
(484,275,cs),
(459,136,o),
(355,71,o),
(260,71,cs),
(165,71,o),
(91,136,o),
(116,275,cs)
);
},
{
closed = 1;
nodes = (
(261,710,l),
(454,596,l),
(466,664,l),
(275,789,l)
);
}
);
width = 640;
}
);
note = ograve;
unicode = 242;
},
{
glyphname = oacute;
lastChange = "2022-10-20 15:33:47 +0000";
layers = (
{
layerId = m01;
shapes = (
{
closed = 1;
nodes = (
(607,448,o),
(505,557,o),
(349,557,cs),
(194,557,o),
(53,448,o),
(23,275,cs),
(-8,101,o),
(91,-9,o),
(246,-9,cs),
(402,-9,o),
(546,101,o),
(577,275,cs)
);
},
{
closed = 1;
nodes = (
(140,413,o),
(239,478,o),
(335,478,cs),
(429,478,o),
(508,413,o),
(484,275,cs),
(459,136,o),
(355,71,o),
(260,71,cs),
(165,71,o),
(91,136,o),
(116,275,cs)
);
},
{
closed = 1;
nodes = (
(253,664,l),
(241,596,l),
(474,710,l),
(488,789,l)
);
}
);
width = 640;
}
);
note = oacute;
unicode = 243;
},
{
glyphname = ocircumflex;
lastChange = "2022-10-20 15:33:47 +0000";
layers = (
{
layerId = m01;
shapes = (
{
closed = 1;
nodes = (
(610,448,o),
(508,557,o),
(352,557,cs),
(197,557,o),
(56,448,o),
(25,275,cs),
(-5,101,o),
(93,-9,o),
(248,-9,cs),
(404,-9,o),
(549,101,o),
(579,275,cs)
);
},
{
closed = 1;
nodes = (
(143,413,o),
(241,478,o),
(337,478,cs),
(431,478,o),
(511,413,o),
(486,275,cs),
(462,136,o),
(357,71,o),
(262,71,cs),
(167,71,o),
(94,136,o),
(118,275,cs)
);
},
{
closed = 1;
nodes = (
(512,676,l),
(389,759,l),
(235,676,l),
(222,604,l),
(376,689,l),
(499,604,l)
);
}
);
width = 640;
}
);
note = ocircumflex;
unicode = 244;
},
{
glyphname = otilde;
lastChange = "2022-10-20 15:33:47 +0000";
layers = (
{
layerId = m01;
shapes = (
{
closed = 1;
nodes = (
(613,448,o),
(512,557,o),
(356,557,cs),
(201,557,o),
(59,448,o),
(29,275,cs),
(-2,101,o),
(97,-9,o),
(252,-9,cs),
(408,-9,o),
(552,101,o),
(583,275,cs)
);
},
{
closed = 1;
nodes = (
(146,413,o),
(245,478,o),
(341,478,cs),
(435,478,o),
(514,413,o),
(490,275,cs),
(465,136,o),
(361,71,o),
(266,71,cs),
(171,71,o),
(97,136,o),
(122,275,cs)
);
},
{
closed = 1;
nodes = (
(273,614,l),
(282,644,o),
(301,658,o),
(323,658,cs),
(363,658,o),
(375,612,o),
(429,612,cs),
(481,612,o),
(528,648,o),
(548,716,c),
(496,716,l),
(487,687,o),
(466,673,o),
(444,673,cs),
(403,673,o),
(391,719,o),
(338,719,cs),
(286,719,o),
(242,683,o),
(220,614,c)
);
}
);
width = 640;
}
);
note = otilde;
unicode = 245;
},
{
glyphname = odieresis;
lastChange = "2022-10-20 15:33:47 +0000";
layers = (
{
layerId = m01;
shapes = (
{
closed = 1;
nodes = (
(612,448,o),
(510,557,o),
(354,557,cs),
(199,557,o),
(58,448,o),
(28,275,cs),
(-3,101,o),
(95,-9,o),
(250,-9,cs),
(406,-9,o),
(551,101,o),
(582,275,cs)
);
},
{
closed = 1;
nodes = (
(145,413,o),
(243,478,o),
(339,478,cs),
(433,478,o),
(513,413,o),
(489,275,cs),
(464,136,o),
(360,71,o),
(265,71,cs),
(170,71,o),
(96,136,o),
(121,275,cs)
);
},
{
closed = 1;
nodes = (
(315,629,o),
(343,652,o),
(348,681,cs),
(353,710,o),
(334,734,o),
(306,734,cs),
(276,734,o),
(248,710,o),
(243,681,cs),
(238,652,o),
(257,629,o),
(287,629,cs)
);
},
{
closed = 1;
nodes = (
(478,629,o),
(506,652,o),
(511,681,cs),
(516,710,o),
(497,734,o),
(468,734,cs),
(438,734,o),
(411,710,o),
(406,681,cs),
(401,652,o),
(419,629,o),
(449,629,cs)
);
}
);
width = 640;
}
);
note = odieresis;
unicode = 246;
},
{
glyphname = divide;
lastChange = "2022-10-20 15:33:47 +0000";
layers = (
{
layerId = m01;
shapes = (
{
closed = 1;
nodes = (
(71,328,l),
(581,328,l),
(595,405,l),
(85,405,l)
);
},
{
closed = 1;
nodes = (
(363,188,o),
(341,215,o),
(308,215,cs),
(273,215,o),
(241,188,o),
(235,153,cs),
(229,118,o),
(251,91,o),
(286,91,cs),
(319,91,o),
(351,118,o),
(357,153,cs)
);
},
{
closed = 1;
nodes = (
(439,617,o),
(417,644,o),
(384,644,cs),
(349,644,o),
(317,617,o),
(311,582,cs),
(305,547,o),
(327,520,o),
(362,520,cs),
(395,520,o),
(427,547,o),
(433,582,cs)
);
}
);
width = 657;
}
);
note = divide;
unicode = 247;
},
{
glyphname = oslash;
lastChange = "2022-10-20 15:33:47 +0000";
layers = (
{
layerId = m01;
shapes = (
{
closed = 1;
nodes = (
(611,354,o),
(598,420,o),
(564,468,c),
(651,548,l),
(586,548,l),
(535,500,l),
(493,537,o),
(437,557,o),
(370,557,cs),
(215,557,o),
(74,448,o),
(43,275,cs),
(29,195,o),
(42,128,o),
(76,79,c),
(-10,0,l),
(55,0,l),
(105,46,l),
(146,11,o),
(200,-9,o),
(266,-9,cs),
(422,-9,o),
(566,101,o),
(597,275,cs)
);
},
{
closed = 1;
nodes = (
(161,413,o),
(259,478,o),
(355,478,cs),
(398,478,o),
(438,465,o),
(466,437,c),
(148,145,l),
(132,178,o),
(127,221,o),
(136,275,cs)
);
},
{
closed = 1;
nodes = (
(238,71,o),
(200,84,o),
(174,109,c),
(491,401,l),
(508,370,o),
(514,328,o),
(504,275,cs),
(480,136,o),
(375,71,o),
(280,71,cs)
);
}
);
width = 640;
}
);
note = oslash;
unicode = 248;
},
{
glyphname = ugrave;
lastChange = "2022-10-20 15:33:47 +0000";
layers = (
{
layerId = m01;
shapes = (
{
closed = 1;
nodes = (
(591,548,l),
(500,548,l),
(447,247,ls),
(426,129,o),
(353,71,o),
(259,71,cs),
(167,71,o),
(116,128,o),
(136,239,cs),
(190,548,l),
(100,548,l),
(44,227,ls),
(16,70,o),
(101,-8,o),
(227,-8,cs),
(300,-8,o),
(373,24,o),
(418,81,c),
(404,0,l),
(495,0,l)
);
},
{
closed = 1;
nodes = (
(261,703,l),
(454,589,l),
(466,657,l),
(275,782,l)
);
}
);
width = 640;
}
);
note = ugrave;
unicode = 249;
},
{
glyphname = uacute;
lastChange = "2022-10-20 15:33:47 +0000";
layers = (
{
layerId = m01;
shapes = (
{
closed = 1;
nodes = (
(591,548,l),
(500,548,l),
(447,247,ls),
(426,129,o),
(353,71,o),
(259,71,cs),
(167,71,o),
(116,128,o),
(136,239,cs),
(190,548,l),
(100,548,l),
(44,227,ls),
(16,70,o),
(101,-8,o),
(227,-8,cs),
(300,-8,o),
(373,24,o),
(418,81,c),
(404,0,l),
(495,0,l)
);
},
{
closed = 1;
nodes = (
(253,657,l),
(241,589,l),
(474,703,l),
(488,782,l)
);
}
);
width = 640;
}
);
note = uacute;
unicode = 250;
},
{
glyphname = ucircumflex;
lastChange = "2022-10-20 15:33:47 +0000";
layers = (
{
layerId = m01;
shapes = (
{
closed = 1;
nodes = (
(594,548,l),
(503,548,l),
(450,247,ls),
(429,129,o),
(356,71,o),
(262,71,cs),
(170,71,o),
(119,128,o),
(139,239,cs),
(193,548,l),
(103,548,l),
(46,227,ls),
(19,70,o),
(104,-8,o),
(230,-8,cs),
(303,-8,o),
(376,24,o),
(421,81,c),
(406,0,l),
(497,0,l)
);
},
{
closed = 1;
nodes = (
(511,669,l),
(388,752,l),
(234,669,l),
(222,597,l),
(376,682,l),
(499,597,l)
);
}
);
width = 640;
}
);
note = ucircumflex;
unicode = 251;
},
{
glyphname = udieresis;
lastChange = "2022-10-20 15:33:47 +0000";
layers = (
{
layerId = m01;
shapes = (
{
closed = 1;
nodes = (
(596,548,l),
(505,548,l),
(452,247,ls),
(431,129,o),
(358,71,o),
(264,71,cs),
(172,71,o),
(121,128,o),
(141,239,cs),
(195,548,l),
(105,548,l),
(49,227,ls),
(21,70,o),
(106,-8,o),
(232,-8,cs),
(305,-8,o),
(378,24,o),
(423,81,c),
(409,0,l),
(500,0,l)
);
},
{
closed = 1;
nodes = (
(314,622,o),
(342,645,o),
(348,674,cs),
(353,703,o),
(333,727,o),
(305,727,cs),
(275,727,o),
(248,703,o),
(243,674,cs),
(237,645,o),
(256,622,o),
(286,622,cs)
);
},
{
closed = 1;
nodes = (
(477,622,o),
(505,645,o),
(511,674,cs),
(516,703,o),
(496,727,o),
(467,727,cs),
(437,727,o),
(411,703,o),
(406,674,cs),
(400,645,o),
(418,622,o),
(448,622,cs)
);
}
);
width = 640;
}
);
note = udieresis;
unicode = 252;
},
{
glyphname = yacute;
lastChange = "2022-10-20 15:33:47 +0000";
layers = (
{
layerId = m01;
shapes = (
{
closed = 1;
nodes = (
(257,104,l),
(163,548,l),
(62,548,l),
(188,6,l),
(33,-258,l),
(127,-258,l),
(599,548,l),
(505,548,l)
);
},
{
closed = 1;
nodes = (
(236,657,l),
(224,589,l),
(457,703,l),
(471,782,l)
);
}
);
width = 563;
}
);
note = yacute;
unicode = 253;
},
{
glyphname = thorn;
lastChange = "2022-10-20 15:33:47 +0000";
layers = (
{
layerId = m01;
shapes = (
{
closed = 1;
nodes = (
(256,740,l),
(165,740,l),
(-11,-260,l),
(80,-260,l),
(147,120,l),
(168,46,o),
(229,-9,o),
(329,-9,cs),
(476,-9,o),
(609,106,o),
(639,276,cs),
(670,447,o),
(576,557,o),
(429,557,cs),
(329,557,o),
(247,503,o),
(202,432,c)
);
},
{
closed = 1;
nodes = (
(524,147,o),
(425,71,o),
(324,71,cs),
(225,71,o),
(151,146,o),
(174,275,cs),
(197,402,o),
(297,478,o),
(396,478,cs),
(497,478,o),
(569,405,o),
(546,276,cs)
);
}
);
width = 676;
}
);
note = thorn;
unicode = 254;
},
{
glyphname = ydieresis;
lastChange = "2022-10-20 15:33:47 +0000";
layers = (
{
layerId = m01;
shapes = (
{
closed = 1;
nodes = (
(262,104,l),
(168,548,l),
(67,548,l),
(193,6,l),
(38,-258,l),
(132,-258,l),
(604,548,l),
(510,548,l)
);
},
{
closed = 1;
nodes = (
(297,622,o),
(325,645,o),
(331,674,cs),
(336,703,o),
(316,727,o),
(288,727,cs),
(258,727,o),
(231,703,o),
(226,674,cs),
(220,645,o),
(239,622,o),
(269,622,cs)
);
},
{
closed = 1;
nodes = (
(460,622,o),
(488,645,o),
(494,674,cs),
(499,703,o),
(479,727,o),
(450,727,cs),
(420,727,o),
(394,703,o),
(389,674,cs),
(383,645,o),
(401,622,o),
(431,622,cs)
);
}
);
width = 563;
}
);
note = ydieresis;
unicode = 255;
},
{
glyphname = Amacron;
lastChange = "2022-10-20 15:33:47 +0000";
layers = (
{
layerId = m01;
shapes = (
{
closed = 1;
nodes = (
(470,0,l),
(566,0,l),
(437,693,l),
(332,693,l),
(-42,0,l),
(54,0,l),
(137,155,l),
(441,155,l)
);
},
{
closed = 1;
nodes = (
(224,786,l),
(576,786,l),
(588,854,l),
(236,854,l)
);
},
{
closed = 1;
nodes = (
(428,229,l),
(176,229,l),
(364,581,l)
);
}
);
width = 674;
}
);
note = Amacron;
unicode = 256;
},
{
glyphname = amacron;
lastChange = "2022-10-20 15:33:47 +0000";
layers = (
{
layerId = m01;
shapes = (
{
closed = 1;
nodes = (
(0,106,o),
(93,-9,o),
(239,-9,cs),
(340,-9,o),
(420,43,o),
(463,102,c),
(445,0,l),
(537,0,l),
(634,548,l),
(542,548,l),
(524,448,l),
(502,505,o),
(442,557,o),
(340,557,cs),
(193,557,o),
(60,447,o),
(30,276,cs)
);
},
{
closed = 1;
nodes = (
(471,146,o),
(372,71,o),
(272,71,cs),
(172,71,o),
(100,147,o),
(123,276,cs),
(146,405,o),
(244,478,o),
(344,478,cs),
(444,478,o),
(516,402,o),
(494,275,cs)
);
},
{
closed = 1;
nodes = (
(214,641,l),
(566,641,l),
(578,709,l),
(226,709,l)
);
}
);
width = 676;
}
);
note = amacron;
unicode = 257;
},
{
glyphname = Abreve;
lastChange = "2022-10-20 15:33:47 +0000";
layers = (
{
layerId = m01;
shapes = (
{
closed = 1;
nodes = (
(466,0,l),
(562,0,l),
(433,693,l),
(328,693,l),
(-46,0,l),
(50,0,l),
(133,155,l),
(437,155,l)
);
},
{
closed = 1;
nodes = (
(559,895,l),
(505,895,l),
(497,847,o),
(467,818,o),
(403,818,cs),
(338,818,o),
(320,847,o),
(328,895,c),
(274,895,l),
(271,878,ls),
(258,803,o),
(299,747,o),
(391,747,cs),
(483,747,o),
(543,803,o),
(556,877,cs)
);
},
{
closed = 1;
nodes = (
(424,229,l),
(172,229,l),
(361,581,l)
);
}
);
width = 674;
}
);
note = Abreve;
unicode = 258;
},
{
glyphname = abreve;
lastChange = "2022-10-20 15:33:47 +0000";
layers = (
{
layerId = m01;
shapes = (
{
closed = 1;
nodes = (
(-4,106,o),
(89,-9,o),
(235,-9,cs),
(336,-9,o),
(416,43,o),
(460,102,c),
(442,0,l),
(534,0,l),
(630,548,l),
(538,548,l),
(521,448,l),
(499,505,o),
(438,557,o),
(336,557,cs),
(189,557,o),
(57,447,o),
(26,276,cs)
);
},
{
closed = 1;
nodes = (
(467,146,o),
(368,71,o),
(268,71,cs),
(168,71,o),
(97,147,o),
(119,276,cs),
(142,405,o),
(240,478,o),
(340,478,cs),
(440,478,o),
(513,402,o),
(490,275,cs)
);
},
{
closed = 1;
nodes = (
(548,750,l),
(494,750,l),
(486,702,o),
(456,673,o),
(392,673,cs),
(327,673,o),
(309,702,o),
(317,750,c),
(263,750,l),
(260,733,ls),
(247,658,o),
(288,602,o),
(380,602,cs),
(472,602,o),
(532,658,o),
(545,732,cs)
);
}
);
width = 676;
}
);
note = abreve;
unicode = 259;
},
{
glyphname = Aogonek;
lastChange = "2022-10-20 15:33:47 +0000";
layers = (
{
layerId = m01;
shapes = (
{
closed = 1;
nodes = (
(364,693,l),
(-10,0,l),
(86,0,l),
(169,155,l),
(473,155,l),
(500,12,l),
(428,-24,o),
(397,-63,o),
(389,-106,cs),
(376,-179,o),
(435,-206,o),
(495,-206,cs),
(521,-206,o),
(550,-200,o),
(573,-192,c),
(584,-132,l),
(560,-140,o),
(535,-145,o),
(516,-145,cs),
(481,-145,o),
(460,-128,o),
(466,-97,cs),
(470,-72,o),
(489,-49,o),
(539,-27,cs),
(598,0,l),
(469,693,l)
);
},
{
closed = 1;
nodes = (
(460,229,l),
(208,229,l),
(397,581,l)
);
}
);
width = 674;
}
);
note = Aogonek;
unicode = 260;
},
{
glyphname = aogonek;
lastChange = "2022-10-20 15:33:47 +0000";
layers = (
{
layerId = m01;
shapes = (
{
closed = 1;
nodes = (
(31,106,o),
(123,-9,o),
(269,-9,cs),
(370,-9,o),
(451,43,o),
(494,102,c),
(479,17,l),
(400,-21,o),
(367,-62,o),
(359,-106,cs),
(346,-179,o),
(404,-206,o),
(464,-206,cs),
(491,-206,o),
(519,-200,o),
(543,-192,c),
(554,-132,l),
(529,-140,o),
(505,-145,o),
(486,-145,cs),
(450,-145,o),
(430,-128,o),
(436,-97,cs),
(440,-72,o),
(459,-49,o),
(508,-27,cs),
(568,0,l),
(665,548,l),
(573,548,l),
(555,448,l),
(533,505,o),
(472,557,o),
(370,557,cs),
(223,557,o),
(91,447,o),
(61,276,cs)
);
},
{
closed = 1;
nodes = (
(502,146,o),
(403,71,o),
(303,71,cs),
(203,71,o),
(131,147,o),
(154,276,cs),
(177,405,o),
(274,478,o),
(374,478,cs),
(474,478,o),
(547,402,o),
(525,275,cs)
);
}
);
width = 676;
}
);
note = aogonek;
unicode = 261;
},
{
glyphname = Cacute;
lastChange = "2022-10-20 15:33:47 +0000";
layers = (
{
layerId = m01;
shapes = (
{
closed = 1;
nodes = (
(-14,140,o),
(113,-6,o),
(308,-6,cs),
(459,-6,o),
(592,69,o),
(668,203,c),
(559,203,l),
(506,120,o),
(424,73,o),
(322,73,cs),
(176,73,o),
(86,179,o),
(116,349,cs),
(146,520,o),
(274,626,o),
(420,626,cs),
(522,626,o),
(587,579,o),
(611,495,c),
(720,495,l),
(691,630,o),
(585,706,o),
(434,706,cs),
(239,706,o),
(60,558,o),
(23,349,cs)
);
},
{
closed = 1;
nodes = (
(342,808,l),
(330,740,l),
(563,854,l),
(577,933,l)
);
}
);
width = 772;
}
);
note = Cacute;
unicode = 262;
},
{
glyphname = cacute;
lastChange = "2022-10-20 15:33:47 +0000";
layers = (
{
layerId = m01;
shapes = (
{
closed = 1;
nodes = (
(-7,101,o),
(84,-9,o),
(240,-9,cs),
(376,-9,o),
(479,67,o),
(526,176,c),
(428,176,l),
(396,107,o),
(335,68,o),
(254,68,cs),
(154,68,o),
(92,139,o),
(116,275,cs),
(140,409,o),
(227,480,o),
(327,480,cs),
(408,480,o),
(455,438,o),
(462,372,c),
(560,372,l),
(553,487,o),
(476,557,o),
(340,557,cs),
(184,557,o),
(54,447,o),
(23,275,cs)
);
},
{
closed = 1;
nodes = (
(237,657,l),
(225,589,l),
(458,703,l),
(472,782,l)
);
}
);
width = 607;
}
);
note = cacute;
unicode = 263;
},
{
glyphname = Cdotaccent;
lastChange = "2022-10-20 15:33:47 +0000";
layers = (
{
layerId = m01;
shapes = (
{
closed = 1;
nodes = (
(-9,140,o),
(119,-6,o),
(314,-6,cs),
(465,-6,o),
(598,69,o),
(673,203,c),
(564,203,l),
(512,120,o),
(429,73,o),
(327,73,cs),
(181,73,o),
(91,179,o),
(121,349,cs),
(151,520,o),
(279,626,o),
(425,626,cs),
(527,626,o),
(593,579,o),
(616,495,c),
(725,495,l),
(697,630,o),
(590,706,o),
(439,706,cs),
(244,706,o),
(65,558,o),
(28,349,cs)
);
},
{
closed = 1;
nodes = (
(485,767,o),
(512,790,o),
(517,819,cs),
(522,848,o),
(503,872,o),
(474,872,cs),
(444,872,o),
(417,848,o),
(412,819,cs),
(407,790,o),
(426,767,o),
(456,767,cs)
);
}
);
width = 772;
}
);
note = Cdotaccent;
unicode = 266;
},
{
glyphname = cdotaccent;
lastChange = "2022-10-20 15:33:47 +0000";
layers = (
{
layerId = m01;
shapes = (
{
closed = 1;
nodes = (
(-2,101,o),
(89,-9,o),
(245,-9,cs),
(381,-9,o),
(484,67,o),
(531,176,c),
(433,176,l),
(401,107,o),
(340,68,o),
(259,68,cs),
(159,68,o),
(98,139,o),
(122,275,cs),
(145,409,o),
(232,480,o),
(332,480,cs),
(413,480,o),
(460,438,o),
(468,372,c),
(566,372,l),
(558,487,o),
(481,557,o),
(345,557,cs),
(189,557,o),
(59,447,o),
(29,275,cs)
);
},
{
closed = 1;
nodes = (
(379,617,o),
(406,640,o),
(411,669,cs),
(416,698,o),
(398,722,o),
(369,722,cs),
(339,722,o),
(311,698,o),
(306,669,cs),
(301,640,o),
(320,617,o),
(350,617,cs)
);
}
);
width = 607;
}
);
note = cdotaccent;
unicode = 267;
},
{
glyphname = Ccaron;
lastChange = "2022-10-20 15:33:47 +0000";
layers = (
{
layerId = m01;
shapes = (
{
closed = 1;
nodes = (
(-11,140,o),
(116,-6,o),
(311,-6,cs),
(462,-6,o),
(595,69,o),
(671,203,c),
(562,203,l),
(509,120,o),
(427,73,o),
(325,73,cs),
(179,73,o),
(89,179,o),
(119,349,cs),
(149,520,o),
(276,626,o),
(422,626,cs),
(524,626,o),
(590,579,o),
(613,495,c),
(722,495,l),
(694,630,o),
(588,706,o),
(437,706,cs),
(242,706,o),
(62,558,o),
(26,349,cs)
);
},
{
closed = 1;
nodes = (
(462,817,l),
(338,902,l),
(325,830,l),
(450,748,l),
(602,830,l),
(615,902,l)
);
}
);
width = 772;
}
);
note = Ccaron;
unicode = 268;
},
{
glyphname = ccaron;
lastChange = "2022-10-20 15:33:47 +0000";
layers = (
{
layerId = m01;
shapes = (
{
closed = 1;
nodes = (
(-5,101,o),
(87,-9,o),
(243,-9,cs),
(379,-9,o),
(481,67,o),
(529,176,c),
(431,176,l),
(398,107,o),
(338,68,o),
(257,68,cs),
(157,68,o),
(95,139,o),
(119,275,cs),
(143,409,o),
(229,480,o),
(329,480,cs),
(410,480,o),
(458,438,o),
(465,372,c),
(563,372,l),
(555,487,o),
(479,557,o),
(343,557,cs),
(187,557,o),
(56,447,o),
(26,275,cs)
);
},
{
closed = 1;
nodes = (
(356,666,l),
(232,751,l),
(219,679,l),
(344,597,l),
(496,679,l),
(509,751,l)
);
}
);
width = 607;
}
);
note = ccaron;
unicode = 269;
},
{
glyphname = Dcaron;
lastChange = "2022-10-20 15:33:47 +0000";
layers = (
{
layerId = m01;
shapes = (
{
closed = 1;
nodes = (
(121,697,l),
(-2,0,l),
(215,0,ls),
(444,0,o),
(608,131,o),
(646,347,cs),
(684,563,o),
(567,697,o),
(338,697,cs)
);
},
{
closed = 1;
nodes = (
(102,75,l),
(199,623,l),
(325,623,ls),
(507,623,o),
(583,517,o),
(553,347,cs),
(523,177,o),
(410,75,o),
(228,75,cs)
);
},
{
closed = 1;
nodes = (
(416,811,l),
(292,896,l),
(279,824,l),
(404,742,l),
(556,824,l),
(569,896,l)
);
}
);
width = 707;
}
);
note = Dcaron;
unicode = 270;
},
{
glyphname = dcaron;
lastChange = "2022-10-20 15:33:47 +0000";
layers = (
{
layerId = m01;
shapes = (
{
closed = 1;
nodes = (
(717,740,l),
(702,654,l),
(751,654,l),
(747,631,ls),
(741,596,o),
(725,578,o),
(690,578,c),
(682,535,l),
(749,535,o),
(790,570,o),
(804,648,cs),
(809,675,o),
(810,705,o),
(809,740,c)
);
},
{
closed = 1;
nodes = (
(-3,106,o),
(90,-9,o),
(237,-9,cs),
(337,-9,o),
(417,42,o),
(461,103,c),
(442,0,l),
(534,0,l),
(665,740,l),
(573,740,l),
(522,450,l),
(495,513,o),
(424,557,o),
(338,557,cs),
(190,557,o),
(57,447,o),
(27,276,cs)
);
},
{
closed = 1;
nodes = (
(468,146,o),
(369,71,o),
(269,71,cs),
(169,71,o),
(97,147,o),
(120,276,cs),
(143,405,o),
(241,478,o),
(341,478,cs),
(441,478,o),
(513,402,o),
(491,275,cs)
);
}
);
width = 754;
}
);
note = dcaron;
unicode = 271;
},
{
glyphname = Dcroat;
lastChange = "2022-10-20 15:33:47 +0000";
layers = (
{
layerId = m01;
shapes = (
{
closed = 1;
nodes = (
(158,697,l),
(103,389,l),
(16,389,l),
(1,305,l),
(88,305,l),
(34,0,l),
(251,0,ls),
(479,0,o),
(644,131,o),
(682,347,cs),
(720,563,o),
(603,697,o),
(375,697,cs)
);
},
{
closed = 1;
nodes = (
(138,70,l),
(179,305,l),
(371,305,l),
(386,389,l),
(194,389,l),
(235,623,l),
(361,623,ls),
(542,623,o),
(619,517,o),
(589,347,cs),
(559,177,o),
(445,70,o),
(264,70,cs)
);
}
);
width = 725;
}
);
note = Dcroat;
unicode = 272;
},
{
glyphname = dcroat;
lastChange = "2022-10-20 15:33:47 +0000";
layers = (
{
layerId = m01;
shapes = (
{
closed = 1;
nodes = (
(-3,106,o),
(90,-9,o),
(237,-9,cs),
(337,-9,o),
(417,42,o),
(461,103,c),
(442,0,l),
(534,0,l),
(641,605,l),
(702,605,l),
(712,659,l),
(651,659,l),
(665,740,l),
(573,740,l),
(559,659,l),
(447,659,l),
(437,605,l),
(549,605,l),
(522,450,l),
(495,513,o),
(424,557,o),
(338,557,cs),
(190,557,o),
(57,447,o),
(27,276,cs)
);
},
{
closed = 1;
nodes = (
(468,146,o),
(369,71,o),
(269,71,cs),
(169,71,o),
(97,147,o),
(120,276,cs),
(143,405,o),
(241,478,o),
(341,478,cs),
(441,478,o),
(513,402,o),
(491,275,cs)
);
}
);
width = 675;
}
);
note = dcroat;
unicode = 273;
},
{
glyphname = Emacron;
lastChange = "2022-10-20 15:33:47 +0000";
layers = (
{
layerId = m01;
shapes = (
{
closed = 1;
nodes = (
(500,698,l),
(125,698,l),
(2,0,l),
(377,0,l),
(390,75,l),
(106,75,l),
(148,315,l),
(402,315,l),
(415,390,l),
(161,390,l),
(203,623,l),
(487,623,l)
);
},
{
closed = 1;
nodes = (
(141,786,l),
(493,786,l),
(505,854,l),
(153,854,l)
);
}
);
width = 513;
}
);
note = Emacron;
unicode = 274;
},
{
glyphname = emacron;
lastChange = "2022-10-20 15:33:47 +0000";
layers = (
{
layerId = m01;
shapes = (
{
closed = 1;
nodes = (
(427,480,o),
(497,421,o),
(477,314,c),
(131,314,l),
(160,421,o),
(244,480,o),
(333,480,cs)
);
},
{
closed = 1;
nodes = (
(436,169,l),
(406,110,o),
(346,68,o),
(264,68,cs),
(171,68,o),
(104,129,o),
(117,240,c),
(555,240,l),
(560,259,o),
(564,275,o),
(567,295,cs),
(594,445,o),
(510,557,o),
(351,557,cs),
(191,557,o),
(60,448,o),
(30,275,cs),
(-1,101,o),
(95,-9,o),
(251,-9,cs),
(387,-9,o),
(488,69,o),
(534,169,c)
);
},
{
closed = 1;
nodes = (
(185,641,l),
(537,641,l),
(549,709,l),
(197,709,l)
);
}
);
width = 620;
}
);
note = emacron;
unicode = 275;
},
{
glyphname = Ebreve;
lastChange = "2022-10-20 15:33:47 +0000";
layers = (
{
layerId = m01;
shapes = (
{
closed = 1;
nodes = (
(496,698,l),
(121,698,l),
(-2,0,l),
(373,0,l),
(386,75,l),
(102,75,l),
(145,315,l),
(399,315,l),
(412,390,l),
(158,390,l),
(199,623,l),
(483,623,l)
);
},
{
closed = 1;
nodes = (
(476,895,l),
(422,895,l),
(414,847,o),
(384,818,o),
(320,818,cs),
(255,818,o),
(237,847,o),
(245,895,c),
(191,895,l),
(188,878,ls),
(175,803,o),
(216,747,o),
(308,747,cs),
(400,747,o),
(460,803,o),
(473,877,cs)
);
}
);
width = 513;
}
);
note = Ebreve;
unicode = 276;
},
{
glyphname = ebreve;
lastChange = "2022-10-20 15:33:47 +0000";
layers = (
{
layerId = m01;
shapes = (
{
closed = 1;
nodes = (
(423,480,o),
(493,421,o),
(473,314,c),
(127,314,l),
(156,421,o),
(240,480,o),
(329,480,cs)
);
},
{
closed = 1;
nodes = (
(432,169,l),
(402,110,o),
(343,68,o),
(261,68,cs),
(168,68,o),
(100,129,o),
(113,240,c),
(551,240,l),
(556,259,o),
(560,275,o),
(564,295,cs),
(590,445,o),
(506,557,o),
(347,557,cs),
(187,557,o),
(57,448,o),
(26,275,cs),
(-5,101,o),
(91,-9,o),
(247,-9,cs),
(383,-9,o),
(485,69,o),
(530,169,c)
);
},
{
closed = 1;
nodes = (
(520,750,l),
(466,750,l),
(458,702,o),
(428,673,o),
(364,673,cs),
(299,673,o),
(281,702,o),
(289,750,c),
(235,750,l),
(232,733,ls),
(219,658,o),
(260,602,o),
(352,602,cs),
(444,602,o),
(504,658,o),
(517,732,cs)
);
}
);
width = 620;
}
);
note = ebreve;
unicode = 277;
},
{
glyphname = Edotaccent;
lastChange = "2022-10-20 15:33:47 +0000";
layers = (
{
layerId = m01;
shapes = (
{
closed = 1;
nodes = (
(499,698,l),
(124,698,l),
(1,0,l),
(376,0,l),
(389,75,l),
(105,75,l),
(147,315,l),
(401,315,l),
(414,390,l),
(160,390,l),
(202,623,l),
(486,623,l)
);
},
{
closed = 1;
nodes = (
(342,761,o),
(369,784,o),
(374,813,cs),
(379,842,o),
(360,866,o),
(331,866,cs),
(301,866,o),
(274,842,o),
(269,813,cs),
(264,784,o),
(283,761,o),
(313,761,cs)
);
}
);
width = 513;
}
);
note = Edotaccent;
unicode = 278;
},
{
glyphname = edotaccent;
lastChange = "2022-10-20 15:33:47 +0000";
layers = (
{
layerId = m01;
shapes = (
{
closed = 1;
nodes = (
(426,480,o),
(495,421,o),
(475,314,c),
(129,314,l),
(158,421,o),
(243,480,o),
(332,480,cs)
);
},
{
closed = 1;
nodes = (
(435,169,l),
(404,110,o),
(345,68,o),
(263,68,cs),
(170,68,o),
(103,129,o),
(115,240,c),
(553,240,l),
(559,259,o),
(563,275,o),
(566,295,cs),
(593,445,o),
(508,557,o),
(349,557,cs),
(189,557,o),
(59,448,o),
(29,275,cs),
(-2,101,o),
(93,-9,o),
(249,-9,cs),
(385,-9,o),
(487,69,o),
(533,169,c)
);
},
{
closed = 1;
nodes = (
(386,617,o),
(413,640,o),
(418,669,cs),
(423,698,o),
(405,722,o),
(376,722,cs),
(346,722,o),
(318,698,o),
(313,669,cs),
(308,640,o),
(327,617,o),
(357,617,cs)
);
}
);
width = 620;
}
);
note = edotaccent;
unicode = 279;
},
{
glyphname = Eogonek;
lastChange = "2022-10-20 15:33:47 +0000";
layers = (
{
layerId = m01;
shapes = (
{
closed = 1;
nodes = (
(532,698,l),
(157,698,l),
(34,0,l),
(288,0,l),
(232,-33,o),
(207,-68,o),
(200,-106,cs),
(187,-179,o),
(244,-206,o),
(304,-206,cs),
(331,-206,o),
(359,-200,o),
(384,-192,c),
(394,-132,l),
(370,-140,o),
(346,-145,o),
(327,-145,cs),
(291,-145,o),
(271,-128,o),
(276,-97,cs),
(281,-72,o),
(300,-49,o),
(349,-27,cs),
(409,0,l),
(422,75,l),
(138,75,l),
(180,315,l),
(434,315,l),
(447,390,l),
(193,390,l),
(235,623,l),
(519,623,l)
);
}
);
width = 513;
}
);
note = Eogonek;
unicode = 280;
},
{
glyphname = eogonek;
lastChange = "2022-10-20 15:33:47 +0000";
layers = (
{
layerId = m01;
shapes = (
{
closed = 1;
nodes = (
(457,480,o),
(526,421,o),
(506,314,c),
(160,314,l),
(189,421,o),
(274,480,o),
(363,480,cs)
);
},
{
closed = 1;
nodes = (
(376,-118,l),
(352,-126,o),
(328,-131,o),
(309,-131,cs),
(273,-131,o),
(253,-114,o),
(258,-83,cs),
(263,-58,o),
(282,-35,o),
(330,-13,cs),
(361,1,l),
(456,25,o),
(528,90,o),
(564,169,c),
(466,169,l),
(435,110,o),
(376,68,o),
(294,68,cs),
(201,68,o),
(134,129,o),
(146,240,c),
(584,240,l),
(590,259,o),
(593,275,o),
(597,295,cs),
(623,445,o),
(539,557,o),
(380,557,cs),
(220,557,o),
(90,448,o),
(59,275,cs),
(31,117,o),
(108,11,o),
(240,-6,c),
(204,-33,o),
(187,-62,o),
(182,-92,cs),
(169,-165,o),
(226,-192,o),
(286,-192,cs),
(313,-192,o),
(341,-186,o),
(365,-178,c)
);
}
);
width = 620;
}
);
note = eogonek;
unicode = 281;
},
{
glyphname = Ecaron;
lastChange = "2022-10-20 15:33:47 +0000";
layers = (
{
layerId = m01;
shapes = (
{
closed = 1;
nodes = (
(496,698,l),
(121,698,l),
(-2,0,l),
(373,0,l),
(386,75,l),
(102,75,l),
(145,315,l),
(399,315,l),
(412,390,l),
(158,390,l),
(199,623,l),
(483,623,l)
);
},
{
closed = 1;
nodes = (
(319,811,l),
(195,896,l),
(182,824,l),
(307,742,l),
(459,824,l),
(472,896,l)
);
}
);
width = 513;
}
);
note = Ecaron;
unicode = 282;
},
{
glyphname = ecaron;
lastChange = "2022-10-20 15:33:47 +0000";
layers = (
{
layerId = m01;
shapes = (
{
closed = 1;
nodes = (
(423,480,o),
(493,421,o),
(473,314,c),
(127,314,l),
(156,421,o),
(240,480,o),
(329,480,cs)
);
},
{
closed = 1;
nodes = (
(432,169,l),
(402,110,o),
(343,68,o),
(261,68,cs),
(168,68,o),
(100,129,o),
(113,240,c),
(551,240,l),
(556,259,o),
(560,275,o),
(564,295,cs),
(590,445,o),
(506,557,o),
(347,557,cs),
(187,557,o),
(57,448,o),
(26,275,cs),
(-5,101,o),
(91,-9,o),
(247,-9,cs),
(383,-9,o),
(485,69,o),
(530,169,c)
);
},
{
closed = 1;
nodes = (
(363,666,l),
(239,751,l),
(226,679,l),
(351,597,l),
(503,679,l),
(516,751,l)
);
}
);
width = 620;
}
);
note = ecaron;
unicode = 283;
},
{
glyphname = Gbreve;
lastChange = "2022-10-20 15:33:47 +0000";
layers = (
{
layerId = m01;
shapes = (
{
closed = 1;
nodes = (
(243,705,o),
(63,558,o),
(26,349,cs),
(-11,140,o),
(117,-6,o),
(313,-6,cs),
(502,-6,o),
(664,133,o),
(711,306,c),
(723,376,l),
(348,376,l),
(335,302,l),
(613,302,l),
(574,164,o),
(465,76,o),
(328,76,cs),
(181,76,o),
(90,182,o),
(119,349,cs),
(149,517,o),
(278,623,o),
(425,623,cs),
(523,623,o),
(590,576,o),
(614,495,c),
(723,495,l),
(695,629,o),
(586,705,o),
(439,705,cs)
);
},
{
closed = 1;
nodes = (
(615,895,l),
(561,895,l),
(552,847,o),
(523,818,o),
(459,818,cs),
(394,818,o),
(375,847,o),
(384,895,c),
(330,895,l),
(327,878,ls),
(313,803,o),
(354,747,o),
(446,747,cs),
(538,747,o),
(598,803,o),
(611,877,cs)
);
}
);
width = 778;
}
);
note = Gbreve;
unicode = 286;
},
{
glyphname = gbreve;
lastChange = "2022-10-20 15:33:47 +0000";
layers = (
{
layerId = m01;
shapes = (
{
closed = 1;
nodes = (
(19,106,o),
(112,-9,o),
(259,-9,cs),
(359,-9,o),
(439,44,o),
(483,103,c),
(463,-12,ls),
(442,-129,o),
(358,-191,o),
(261,-191,cs),
(171,-191,o),
(114,-146,o),
(106,-80,c),
(16,-80,l),
(13,-197,o),
(103,-270,o),
(247,-270,cs),
(408,-270,o),
(528,-163,o),
(555,-12,cs),
(653,548,l),
(561,548,l),
(544,448,l),
(522,507,o),
(459,557,o),
(359,557,cs),
(212,557,o),
(80,447,o),
(49,276,cs)
);
},
{
closed = 1;
nodes = (
(490,146,o),
(391,71,o),
(291,71,cs),
(191,71,o),
(120,147,o),
(142,276,cs),
(165,405,o),
(263,478,o),
(363,478,cs),
(463,478,o),
(536,402,o),
(513,275,cs)
);
},
{
closed = 1;
nodes = (
(571,750,l),
(517,750,l),
(509,702,o),
(479,673,o),
(415,673,cs),
(350,673,o),
(332,702,o),
(340,750,c),
(286,750,l),
(283,733,ls),
(270,658,o),
(311,602,o),
(403,602,cs),
(495,602,o),
(555,658,o),
(568,732,cs)
);
}
);
width = 676;
}
);
note = gbreve;
unicode = 287;
},
{
glyphname = Gdotaccent;
lastChange = "2022-10-20 15:33:47 +0000";
layers = (
{
layerId = m01;
shapes = (
{
closed = 1;
nodes = (
(246,705,o),
(66,558,o),
(29,349,cs),
(-8,140,o),
(120,-6,o),
(316,-6,cs),
(505,-6,o),
(667,133,o),
(713,306,c),
(725,376,l),
(350,376,l),
(337,302,l),
(615,302,l),
(577,164,o),
(468,76,o),
(331,76,cs),
(184,76,o),
(92,182,o),
(122,349,cs),
(151,517,o),
(280,623,o),
(427,623,cs),
(525,623,o),
(593,576,o),
(616,495,c),
(725,495,l),
(697,629,o),
(589,705,o),
(442,705,cs)
);
},
{
closed = 1;
nodes = (
(479,761,o),
(506,784,o),
(512,813,cs),
(517,842,o),
(498,866,o),
(469,866,cs),
(439,866,o),
(412,842,o),
(407,813,cs),
(401,784,o),
(420,761,o),
(450,761,cs)
);
}
);
width = 778;
}
);
note = Gdotaccent;
unicode = 288;
},
{
glyphname = gdotaccent;
lastChange = "2022-10-20 15:33:47 +0000";
layers = (
{
layerId = m01;
shapes = (
{
closed = 1;
nodes = (
(22,106,o),
(115,-9,o),
(262,-9,cs),
(362,-9,o),
(442,44,o),
(485,103,c),
(465,-12,ls),
(444,-129,o),
(360,-191,o),
(263,-191,cs),
(173,-191,o),
(116,-146,o),
(108,-80,c),
(18,-80,l),
(15,-197,o),
(105,-270,o),
(249,-270,cs),
(410,-270,o),
(530,-163,o),
(557,-12,cs),
(656,548,l),
(564,548,l),
(546,448,l),
(525,507,o),
(461,557,o),
(361,557,cs),
(214,557,o),
(82,447,o),
(52,276,cs)
);
},
{
closed = 1;
nodes = (
(493,146,o),
(394,71,o),
(294,71,cs),
(194,71,o),
(122,147,o),
(145,276,cs),
(168,405,o),
(265,478,o),
(365,478,cs),
(465,478,o),
(538,402,o),
(516,275,cs)
);
},
{
closed = 1;
nodes = (
(437,617,o),
(464,640,o),
(469,669,cs),
(474,698,o),
(456,722,o),
(427,722,cs),
(397,722,o),
(369,698,o),
(364,669,cs),
(359,640,o),
(378,617,o),
(408,617,cs)
);
}
);
width = 676;
}
);
note = gdotaccent;
unicode = 289;
},
{
glyphname = uni0122;
lastChange = "2022-10-20 15:33:47 +0000";
layers = (
{
layerId = m01;
shapes = (
{
closed = 1;
nodes = (
(294,-49,l),
(279,-131,l),
(327,-131,l),
(324,-149,ls),
(318,-185,o),
(300,-205,o),
(266,-205,c),
(259,-247,l),
(324,-247,o),
(366,-212,o),
(380,-132,cs),
(385,-107,o),
(386,-79,o),
(384,-49,c)
);
},
{
closed = 1;
nodes = (
(281,705,o),
(101,558,o),
(64,349,cs),
(27,140,o),
(156,-6,o),
(352,-6,cs),
(541,-6,o),
(702,133,o),
(749,306,c),
(761,376,l),
(386,376,l),
(373,302,l),
(651,302,l),
(613,164,o),
(503,76,o),
(366,76,cs),
(219,76,o),
(128,182,o),
(157,349,cs),
(187,517,o),
(316,623,o),
(463,623,cs),
(561,623,o),
(628,576,o),
(652,495,c),
(761,495,l),
(733,629,o),
(624,705,o),
(477,705,cs)
);
}
);
width = 778;
}
);
note = uni0122;
unicode = 290;
},
{
glyphname = uni0123;
lastChange = "2022-10-20 15:33:47 +0000";
layers = (
{
layerId = m01;
shapes = (
{
closed = 1;
nodes = (
(440,596,l),
(456,682,l),
(408,682,l),
(412,705,ls),
(418,740,o),
(435,759,o),
(468,759,c),
(476,801,l),
(410,801,o),
(368,766,o),
(355,688,cs),
(350,661,o),
(348,631,o),
(349,596,c)
);
},
{
closed = 1;
nodes = (
(15,106,o),
(108,-9,o),
(255,-9,cs),
(355,-9,o),
(435,44,o),
(478,103,c),
(458,-12,ls),
(437,-129,o),
(353,-191,o),
(256,-191,cs),
(166,-191,o),
(109,-146,o),
(101,-80,c),
(11,-80,l),
(8,-197,o),
(98,-270,o),
(242,-270,cs),
(403,-270,o),
(523,-163,o),
(550,-12,cs),
(649,548,l),
(557,548,l),
(539,448,l),
(518,507,o),
(454,557,o),
(354,557,cs),
(207,557,o),
(75,447,o),
(45,276,cs)
);
},
{
closed = 1;
nodes = (
(486,146,o),
(387,71,o),
(287,71,cs),
(187,71,o),
(115,147,o),
(138,276,cs),
(161,405,o),
(259,478,o),
(359,478,cs),
(459,478,o),
(531,402,o),
(509,275,cs)
);
}
);
width = 676;
}
);
note = uni0123;
unicode = 291;
},
{
glyphname = Itilde;
lastChange = "2022-10-20 15:33:47 +0000";
layers = (
{
layerId = m01;
shapes = (
{
closed = 1;
nodes = (
(1,0,l),
(92,0,l),
(215,697,l),
(124,697,l)
);
},
{
closed = 1;
nodes = (
(86,752,l),
(95,782,o),
(115,796,o),
(137,796,cs),
(177,796,o),
(189,750,o),
(243,750,cs),
(295,750,o),
(341,786,o),
(361,854,c),
(309,854,l),
(300,825,o),
(280,811,o),
(258,811,cs),
(217,811,o),
(205,857,o),
(152,857,cs),
(100,857,o),
(55,821,o),
(33,752,c)
);
}
);
width = 246;
}
);
note = Itilde;
unicode = 296;
},
{
glyphname = itilde;
lastChange = "2022-10-20 15:33:47 +0000";
layers = (
{
layerId = m01;
shapes = (
{
closed = 1;
nodes = (
(14,0,l),
(105,0,l),
(202,548,l),
(111,548,l)
);
},
{
closed = 1;
nodes = (
(73,607,l),
(83,637,o),
(102,651,o),
(124,651,cs),
(164,651,o),
(176,605,o),
(230,605,cs),
(282,605,o),
(328,641,o),
(348,709,c),
(296,709,l),
(287,680,o),
(267,666,o),
(245,666,cs),
(204,666,o),
(192,712,o),
(139,712,cs),
(87,712,o),
(42,676,o),
(20,607,c)
);
}
);
width = 246;
}
);
note = itilde;
unicode = 297;
},
{
glyphname = Imacron;
lastChange = "2022-10-20 15:33:47 +0000";
layers = (
{
layerId = m01;
shapes = (
{
closed = 1;
nodes = (
(2,0,l),
(93,0,l),
(216,697,l),
(125,697,l)
);
},
{
closed = 1;
nodes = (
(9,786,l),
(361,786,l),
(373,854,l),
(21,854,l)
);
}
);
width = 246;
}
);
note = Imacron;
unicode = 298;
},
{
glyphname = imacron;
lastChange = "2022-10-20 15:33:47 +0000";
layers = (
{
layerId = m01;
shapes = (
{
closed = 1;
nodes = (
(14,0,l),
(105,0,l),
(202,548,l),
(111,548,l)
);
},
{
closed = 1;
nodes = (
(-3,641,l),
(349,641,l),
(361,709,l),
(9,709,l)
);
}
);
width = 246;
}
);
note = imacron;
unicode = 299;
},
{
glyphname = uni012C;
lastChange = "2022-10-20 15:33:47 +0000";
layers = (
{
layerId = m01;
shapes = (
{
closed = 1;
nodes = (
(-2,0,l),
(89,0,l),
(212,697,l),
(121,697,l)
);
},
{
closed = 1;
nodes = (
(344,895,l),
(290,895,l),
(282,847,o),
(252,818,o),
(188,818,cs),
(123,818,o),
(105,847,o),
(113,895,c),
(59,895,l),
(56,878,ls),
(43,803,o),
(84,747,o),
(176,747,cs),
(268,747,o),
(328,803,o),
(341,877,cs)
);
}
);
width = 246;
}
);
note = uni012C;
unicode = 300;
},
{
glyphname = uni012D;
lastChange = "2022-10-20 15:33:47 +0000";
layers = (
{
layerId = m01;
shapes = (
{
closed = 1;
nodes = (
(11,0,l),
(102,0,l),
(199,548,l),
(108,548,l)
);
},
{
closed = 1;
nodes = (
(331,750,l),
(277,750,l),
(269,702,o),
(240,673,o),
(176,673,cs),
(111,673,o),
(92,702,o),
(100,750,c),
(46,750,l),
(43,733,ls),
(30,658,o),
(71,602,o),
(163,602,cs),
(255,602,o),
(315,658,o),
(328,732,cs)
);
}
);
width = 246;
}
);
note = uni012D;
unicode = 301;
},
{
glyphname = Iogonek;
lastChange = "2022-10-20 15:33:47 +0000";
layers = (
{
layerId = m01;
shapes = (
{
closed = 1;
nodes = (
(110,-131,l),
(86,-139,o),
(62,-144,o),
(43,-144,cs),
(7,-144,o),
(-13,-127,o),
(-7,-96,cs),
(-3,-71,o),
(16,-48,o),
(65,-26,cs),
(123,0,l),
(125,0,l),
(248,697,l),
(157,697,l),
(37,18,l),
(-42,-19,o),
(-76,-61,o),
(-84,-105,cs),
(-97,-178,o),
(-40,-205,o),
(20,-205,cs),
(47,-205,o),
(75,-199,o),
(100,-191,c)
);
}
);
width = 246;
}
);
note = Iogonek;
unicode = 302;
},
{
glyphname = iogonek;
lastChange = "2022-10-20 15:33:47 +0000";
layers = (
{
layerId = m01;
shapes = (
{
closed = 1;
nodes = (
(105,-131,l),
(80,-139,o),
(57,-144,o),
(38,-144,cs),
(2,-144,o),
(-18,-127,o),
(-13,-96,cs),
(-9,-71,o),
(10,-48,o),
(59,-26,cs),
(117,0,l),
(119,0,l),
(216,548,l),
(125,548,l),
(31,18,l),
(-47,-19,o),
(-82,-61,o),
(-90,-105,cs),
(-102,-178,o),
(-45,-205,o),
(15,-205,cs),
(42,-205,o),
(70,-199,o),
(94,-191,c)
);
},
{
closed = 1;
nodes = (
(220,637,o),
(252,664,o),
(258,699,cs),
(264,734,o),
(242,761,o),
(209,761,cs),
(174,761,o),
(142,734,o),
(136,699,cs),
(130,664,o),
(152,637,o),
(187,637,cs)
);
}
);
width = 246;
}
);
note = iogonek;
unicode = 303;
},
{
glyphname = Idotaccent;
lastChange = "2022-10-20 15:33:47 +0000";
layers = (
{
layerId = m01;
shapes = (
{
closed = 1;
nodes = (
(1,0,l),
(92,0,l),
(215,697,l),
(124,697,l)
);
},
{
closed = 1;
nodes = (
(210,761,o),
(237,784,o),
(242,813,cs),
(247,842,o),
(228,866,o),
(199,866,cs),
(169,866,o),
(142,842,o),
(137,813,cs),
(132,784,o),
(151,761,o),
(181,761,cs)
);
}
);
width = 246;
}
);
note = Idotaccent;
unicode = 304;
},
{
glyphname = dotlessi;
lastChange = "2022-10-20 15:33:47 +0000";
layers = (
{
layerId = m01;
shapes = (
{
closed = 1;
nodes = (
(29,0,l),
(120,0,l),
(216,548,l),
(125,548,l)
);
}
);
width = 246;
}
);
note = dotlessi;
unicode = 305;
},
{
glyphname = uni0136;
lastChange = "2022-10-20 15:33:47 +0000";
layers = (
{
layerId = m01;
shapes = (
{
closed = 1;
nodes = (
(203,-49,l),
(188,-131,l),
(236,-131,l),
(233,-149,ls),
(227,-185,o),
(209,-205,o),
(176,-205,c),
(169,-247,l),
(234,-247,o),
(275,-212,o),
(289,-132,cs),
(293,-107,o),
(295,-79,o),
(293,-49,c)
);
},
{
closed = 1;
nodes = (
(415,0,l),
(534,0,l),
(277,348,l),
(654,697,l),
(539,697,l),
(194,374,l),
(251,697,l),
(160,697,l),
(37,0,l),
(128,0,l),
(184,318,l)
);
}
);
width = 599;
}
);
note = uni0136;
unicode = 310;
},
{
glyphname = uni0137;
lastChange = "2022-10-20 15:33:47 +0000";
layers = (
{
layerId = m01;
shapes = (
{
closed = 1;
nodes = (
(160,-49,l),
(145,-131,l),
(192,-131,l),
(189,-149,ls),
(183,-185,o),
(165,-205,o),
(132,-205,c),
(125,-247,l),
(190,-247,o),
(231,-212,o),
(245,-132,cs),
(250,-107,o),
(252,-79,o),
(250,-49,c)
);
},
{
closed = 1;
nodes = (
(33,0,l),
(124,0,l),
(167,242,l),
(339,0,l),
(463,0,l),
(253,275,l),
(559,548,l),
(432,548,l),
(178,305,l),
(255,740,l),
(164,740,l)
);
}
);
width = 515;
}
);
note = uni0137;
unicode = 311;
},
{
glyphname = Lacute;
lastChange = "2022-10-20 15:33:47 +0000";
layers = (
{
layerId = m01;
shapes = (
{
closed = 1;
nodes = (
(118,697,l),
(-5,0,l),
(330,0,l),
(343,74,l),
(99,74,l),
(209,697,l)
);
},
{
closed = 1;
nodes = (
(161,802,l),
(149,734,l),
(382,848,l),
(396,927,l)
);
}
);
width = 432;
}
);
note = Lacute;
unicode = 313;
},
{
glyphname = lacute;
lastChange = "2022-10-20 15:33:47 +0000";
layers = (
{
layerId = m01;
shapes = (
{
closed = 1;
nodes = (
(-9,0,l),
(82,0,l),
(213,740,l),
(122,740,l)
);
},
{
closed = 1;
nodes = (
(71,849,l),
(59,781,l),
(292,895,l),
(306,974,l)
);
}
);
width = 246;
}
);
note = lacute;
unicode = 314;
},
{
glyphname = uni013B;
lastChange = "2022-10-20 15:33:47 +0000";
layers = (
{
layerId = m01;
shapes = (
{
closed = 1;
nodes = (
(148,-49,l),
(133,-131,l),
(181,-131,l),
(178,-149,ls),
(172,-185,o),
(154,-205,o),
(121,-205,c),
(114,-247,l),
(179,-247,o),
(221,-212,o),
(235,-132,cs),
(239,-107,o),
(241,-79,o),
(239,-49,c)
);
},
{
closed = 1;
nodes = (
(160,697,l),
(37,0,l),
(372,0,l),
(385,74,l),
(141,74,l),
(251,697,l)
);
}
);
width = 432;
}
);
note = uni013B;
unicode = 315;
},
{
glyphname = uni013C;
lastChange = "2022-10-20 15:33:47 +0000";
layers = (
{
layerId = m01;
shapes = (
{
closed = 1;
nodes = (
(23,-49,l),
(8,-131,l),
(56,-131,l),
(53,-149,ls),
(47,-185,o),
(29,-205,o),
(-5,-205,c),
(-12,-247,l),
(53,-247,o),
(96,-212,o),
(110,-132,cs),
(115,-107,o),
(116,-79,o),
(114,-49,c)
);
},
{
closed = 1;
nodes = (
(33,0,l),
(124,0,l),
(255,740,l),
(164,740,l)
);
}
);
width = 246;
}
);
note = uni013C;
unicode = 316;
},
{
glyphname = Lcaron;
lastChange = "2022-10-20 15:33:47 +0000";
layers = (
{
layerId = m01;
shapes = (
{
closed = 1;
nodes = (
(343,697,l),
(328,612,l),
(377,612,l),
(372,589,ls),
(366,553,o),
(350,535,o),
(316,535,c),
(308,492,l),
(374,492,o),
(416,527,o),
(429,606,cs),
(434,632,o),
(436,662,o),
(435,697,c)
);
},
{
closed = 1;
nodes = (
(139,697,l),
(15,0,l),
(350,0,l),
(364,74,l),
(120,74,l),
(230,697,l)
);
}
);
width = 446;
}
);
note = Lcaron;
unicode = 317;
},
{
glyphname = lcaron;
lastChange = "2022-10-20 15:33:47 +0000";
layers = (
{
layerId = m01;
shapes = (
{
closed = 1;
nodes = (
(306,740,l),
(291,654,l),
(341,654,l),
(337,631,ls),
(331,596,o),
(314,578,o),
(280,578,c),
(272,535,l),
(338,535,o),
(379,570,o),
(393,648,cs),
(398,675,o),
(400,705,o),
(398,740,c)
);
},
{
closed = 1;
nodes = (
(12,0,l),
(103,0,l),
(233,740,l),
(142,740,l)
);
}
);
width = 369;
}
);
note = lcaron;
unicode = 318;
},
{
glyphname = Ldot;
lastChange = "2022-10-20 15:33:47 +0000";
layers = (
{
layerId = m01;
shapes = (
{
closed = 1;
nodes = (
(124,697,l),
(1,0,l),
(336,0,l),
(349,74,l),
(105,74,l),
(215,697,l)
);
},
{
closed = 1;
nodes = (
(304,761,o),
(331,784,o),
(336,813,cs),
(341,842,o),
(322,866,o),
(293,866,cs),
(263,866,o),
(236,842,o),
(231,813,cs),
(226,784,o),
(245,761,o),
(275,761,cs)
);
}
);
width = 432;
}
);
note = Ldot;
unicode = 319;
},
{
glyphname = ldot;
lastChange = "2022-10-20 15:33:47 +0000";
layers = (
{
layerId = m01;
shapes = (
{
closed = 1;
nodes = (
(211,775,o),
(239,798,o),
(244,827,cs),
(249,856,o),
(230,880,o),
(201,880,cs),
(171,880,o),
(143,856,o),
(138,827,cs),
(133,798,o),
(152,775,o),
(182,775,cs)
);
},
{
closed = 1;
nodes = (
(-1,0,l),
(90,0,l),
(221,740,l),
(130,740,l)
);
}
);
width = 246;
}
);
note = ldot;
unicode = 320;
},
{
glyphname = Lslash;
lastChange = "2022-10-20 15:33:47 +0000";
layers = (
{
layerId = m01;
shapes = (
{
closed = 1;
nodes = (
(153,697,l),
(96,378,l),
(9,348,l),
(-3,279,l),
(84,308,l),
(29,0,l),
(363,0,l),
(376,70,l),
(133,70,l),
(181,341,l),
(297,380,l),
(309,450,l),
(193,411,l),
(244,697,l)
);
}
);
width = 437;
}
);
note = Lslash;
unicode = 321;
},
{
glyphname = lslash;
lastChange = "2022-10-20 15:33:47 +0000";
layers = (
{
layerId = m01;
shapes = (
{
closed = 1;
nodes = (
(15,0,l),
(106,0,l),
(171,372,l),
(247,400,l),
(260,471,l),
(184,444,l),
(236,740,l),
(145,740,l),
(87,408,l),
(11,381,l),
(-2,309,l),
(74,337,l)
);
}
);
width = 251;
}
);
note = lslash;
unicode = 322;
},
{
glyphname = Nacute;
lastChange = "2022-10-20 15:33:47 +0000";
layers = (
{
layerId = m01;
shapes = (
{
closed = 1;
nodes = (
(575,698,l),
(478,144,l),
(209,698,l),
(118,698,l),
(-5,0,l),
(86,0,l),
(184,555,l),
(452,0,l),
(543,0,l),
(666,698,l)
);
},
{
closed = 1;
nodes = (
(296,802,l),
(284,734,l),
(517,848,l),
(531,927,l)
);
}
);
width = 703;
}
);
note = Nacute;
unicode = 323;
},
{
glyphname = nacute;
lastChange = "2022-10-20 15:33:47 +0000";
layers = (
{
layerId = m01;
shapes = (
{
closed = 1;
nodes = (
(253,657,l),
(241,589,l),
(474,703,l),
(488,782,l)
);
},
{
closed = 1;
nodes = (
(409,0,l),
(499,0,l),
(556,323,ls),
(584,480,o),
(500,558,o),
(373,558,cs),
(299,558,o),
(228,527,o),
(182,470,c),
(196,548,l),
(105,548,l),
(8,0,l),
(99,0,l),
(152,303,ls),
(173,421,o),
(248,479,o),
(341,479,cs),
(433,479,o),
(483,422,o),
(464,310,cs)
);
}
);
width = 640;
}
);
note = nacute;
unicode = 324;
},
{
glyphname = uni0145;
lastChange = "2022-10-20 15:33:47 +0000";
layers = (
{
layerId = m01;
shapes = (
{
closed = 1;
nodes = (
(256,-49,l),
(241,-131,l),
(288,-131,l),
(285,-149,ls),
(279,-185,o),
(261,-205,o),
(229,-205,c),
(222,-247,l),
(286,-247,o),
(328,-212,o),
(342,-132,cs),
(346,-107,o),
(348,-79,o),
(346,-49,c)
);
},
{
closed = 1;
nodes = (
(617,698,l),
(520,144,l),
(251,698,l),
(160,698,l),
(37,0,l),
(128,0,l),
(226,555,l),
(494,0,l),
(585,0,l),
(708,698,l)
);
}
);
width = 703;
}
);
note = uni0145;
unicode = 325;
},
{
glyphname = uni0146;
lastChange = "2022-10-20 15:33:47 +0000";
layers = (
{
layerId = m01;
shapes = (
{
closed = 1;
nodes = (
(238,-49,l),
(223,-131,l),
(271,-131,l),
(268,-149,ls),
(262,-185,o),
(244,-205,o),
(211,-205,c),
(204,-247,l),
(269,-247,o),
(311,-212,o),
(325,-132,cs),
(330,-107,o),
(331,-79,o),
(328,-49,c)
);
},
{
closed = 1;
nodes = (
(451,0,l),
(541,0,l),
(598,323,ls),
(625,480,o),
(542,558,o),
(415,558,cs),
(341,558,o),
(270,527,o),
(224,470,c),
(237,548,l),
(146,548,l),
(50,0,l),
(141,0,l),
(194,303,ls),
(215,421,o),
(289,479,o),
(382,479,cs),
(474,479,o),
(525,422,o),
(505,310,cs)
);
}
);
width = 640;
}
);
note = uni0146;
unicode = 326;
},
{
glyphname = Ncaron;
lastChange = "2022-10-20 15:33:47 +0000";
layers = (
{
layerId = m01;
shapes = (
{
closed = 1;
nodes = (
(578,698,l),
(480,144,l),
(212,698,l),
(121,698,l),
(-2,0,l),
(89,0,l),
(187,555,l),
(455,0,l),
(546,0,l),
(669,698,l)
);
},
{
closed = 1;
nodes = (
(416,811,l),
(292,896,l),
(279,824,l),
(404,742,l),
(556,824,l),
(569,896,l)
);
}
);
width = 703;
}
);
note = Ncaron;
unicode = 327;
},
{
glyphname = ncaron;
lastChange = "2022-10-20 15:33:47 +0000";
layers = (
{
layerId = m01;
shapes = (
{
closed = 1;
nodes = (
(412,0,l),
(502,0,l),
(559,323,ls),
(586,480,o),
(503,558,o),
(376,558,cs),
(302,558,o),
(231,527,o),
(185,470,c),
(198,548,l),
(107,548,l),
(11,0,l),
(102,0,l),
(155,303,ls),
(176,421,o),
(250,479,o),
(343,479,cs),
(435,479,o),
(486,422,o),
(466,310,cs)
);
},
{
closed = 1;
nodes = (
(373,666,l),
(249,751,l),
(237,679,l),
(361,597,l),
(514,679,l),
(526,751,l)
);
}
);
width = 640;
}
);
note = ncaron;
unicode = 328;
},
{
glyphname = Omacron;
lastChange = "2022-10-20 15:33:47 +0000";
layers = (
{
layerId = m01;
shapes = (
{
closed = 1;
nodes = (
(767,558,o),
(640,705,o),
(443,705,cs),
(247,705,o),
(67,558,o),
(30,349,cs),
(-7,140,o),
(121,-7,o),
(317,-7,cs),
(514,-7,o),
(693,140,o),
(730,349,cs)
);
},
{
closed = 1;
nodes = (
(153,520,o),
(282,626,o),
(429,626,cs),
(576,626,o),
(667,520,o),
(637,349,cs),
(607,179,o),
(478,72,o),
(331,72,cs),
(184,72,o),
(93,179,o),
(123,349,cs)
);
},
{
closed = 1;
nodes = (
(283,786,l),
(635,786,l),
(647,854,l),
(295,854,l)
);
}
);
width = 786;
}
);
note = Omacron;
unicode = 332;
},
{
glyphname = omacron;
lastChange = "2022-10-20 15:33:47 +0000";
layers = (
{
layerId = m01;
shapes = (
{
closed = 1;
nodes = (
(614,448,o),
(512,557,o),
(356,557,cs),
(201,557,o),
(60,448,o),
(29,275,cs),
(-2,101,o),
(97,-9,o),
(252,-9,cs),
(408,-9,o),
(552,101,o),
(583,275,cs)
);
},
{
closed = 1;
nodes = (
(147,413,o),
(245,478,o),
(341,478,cs),
(435,478,o),
(515,413,o),
(490,275,cs),
(466,136,o),
(361,71,o),
(266,71,cs),
(171,71,o),
(98,136,o),
(122,275,cs)
);
},
{
closed = 1;
nodes = (
(196,648,l),
(548,648,l),
(560,716,l),
(208,716,l)
);
}
);
width = 640;
}
);
note = omacron;
unicode = 333;
},
{
glyphname = uni014E;
lastChange = "2022-10-20 15:33:47 +0000";
layers = (
{
layerId = m01;
shapes = (
{
closed = 1;
nodes = (
(763,558,o),
(636,705,o),
(439,705,cs),
(243,705,o),
(63,558,o),
(26,349,cs),
(-11,140,o),
(117,-7,o),
(313,-7,cs),
(510,-7,o),
(689,140,o),
(726,349,cs)
);
},
{
closed = 1;
nodes = (
(149,520,o),
(278,626,o),
(425,626,cs),
(572,626,o),
(663,520,o),
(633,349,cs),
(603,179,o),
(474,72,o),
(327,72,cs),
(180,72,o),
(89,179,o),
(119,349,cs)
);
},
{
closed = 1;
nodes = (
(618,895,l),
(564,895,l),
(555,847,o),
(526,818,o),
(462,818,cs),
(397,818,o),
(378,847,o),
(387,895,c),
(333,895,l),
(330,878,ls),
(316,803,o),
(357,747,o),
(449,747,cs),
(541,747,o),
(601,803,o),
(614,877,cs)
);
}
);
width = 786;
}
);
note = uni014E;
unicode = 334;
},
{
glyphname = uni014F;
lastChange = "2022-10-20 15:33:47 +0000";
layers = (
{
layerId = m01;
shapes = (
{
closed = 1;
nodes = (
(610,448,o),
(508,557,o),
(352,557,cs),
(197,557,o),
(56,448,o),
(26,275,cs),
(-5,101,o),
(93,-9,o),
(248,-9,cs),
(404,-9,o),
(549,101,o),
(580,275,cs)
);
},
{
closed = 1;
nodes = (
(143,413,o),
(241,478,o),
(337,478,cs),
(431,478,o),
(511,413,o),
(487,275,cs),
(462,136,o),
(358,71,o),
(263,71,cs),
(168,71,o),
(94,136,o),
(119,275,cs)
);
},
{
closed = 1;
nodes = (
(531,757,l),
(477,757,l),
(468,709,o),
(439,680,o),
(375,680,cs),
(310,680,o),
(291,709,o),
(300,757,c),
(246,757,l),
(243,740,ls),
(229,665,o),
(270,609,o),
(362,609,cs),
(454,609,o),
(514,665,o),
(527,739,cs)
);
}
);
width = 640;
}
);
note = uni014F;
unicode = 335;
},
{
glyphname = Ohungarumlaut;
lastChange = "2022-10-20 15:33:47 +0000";
layers = (
{
layerId = m01;
shapes = (
{
closed = 1;
nodes = (
(763,558,o),
(636,705,o),
(439,705,cs),
(243,705,o),
(63,558,o),
(26,349,cs),
(-11,140,o),
(117,-7,o),
(313,-7,cs),
(510,-7,o),
(689,140,o),
(726,349,cs)
);
},
{
closed = 1;
nodes = (
(149,520,o),
(278,626,o),
(425,626,cs),
(572,626,o),
(663,520,o),
(633,349,cs),
(603,179,o),
(474,72,o),
(327,72,cs),
(180,72,o),
(89,179,o),
(119,349,cs)
);
},
{
closed = 1;
nodes = (
(428,900,l),
(334,746,l),
(395,746,l),
(509,900,l)
);
},
{
closed = 1;
nodes = (
(582,900,l),
(483,746,l),
(543,746,l),
(662,900,l)
);
}
);
width = 786;
}
);
note = Ohungarumlaut;
unicode = 336;
},
{
glyphname = ohungarumlaut;
lastChange = "2022-10-20 15:33:47 +0000";
layers = (
{
layerId = m01;
shapes = (
{
closed = 1;
nodes = (
(610,448,o),
(508,557,o),
(352,557,cs),
(197,557,o),
(56,448,o),
(25,275,cs),
(-6,101,o),
(93,-9,o),
(248,-9,cs),
(404,-9,o),
(548,101,o),
(579,275,cs)
);
},
{
closed = 1;
nodes = (
(142,413,o),
(241,478,o),
(337,478,cs),
(431,478,o),
(510,413,o),
(486,275,cs),
(462,136,o),
(357,71,o),
(262,71,cs),
(167,71,o),
(94,136,o),
(118,275,cs)
);
},
{
closed = 1;
nodes = (
(341,762,l),
(247,608,l),
(308,608,l),
(422,762,l)
);
},
{
closed = 1;
nodes = (
(495,762,l),
(396,608,l),
(456,608,l),
(575,762,l)
);
}
);
width = 640;
}
);
note = ohungarumlaut;
unicode = 337;
},
{
glyphname = OE;
lastChange = "2022-10-20 15:33:47 +0000";
layers = (
{
layerId = m01;
shapes = (
{
closed = 1;
nodes = (
(1073,626,l),
(1085,697,l),
(711,697,l),
(687,558,l),
(651,652,o),
(566,705,o),
(448,705,cs),
(261,705,o),
(80,560,o),
(43,349,cs),
(6,140,o),
(134,-7,o),
(323,-7,cs),
(440,-7,o),
(545,46,o),
(614,143,c),
(588,0,l),
(962,0,l),
(975,72,l),
(692,72,l),
(735,316,l),
(988,316,l),
(1001,387,l),
(748,387,l),
(790,626,l)
);
},
{
closed = 1;
nodes = (
(588,623,o),
(680,517,o),
(650,349,cs),
(621,182,o),
(492,75,o),
(345,75,cs),
(198,75,o),
(107,182,o),
(136,349,cs),
(166,517,o),
(294,623,o),
(441,623,cs)
);
}
);
width = 1086;
}
);
note = OE;
unicode = 338;
},
{
glyphname = oe;
lastChange = "2022-10-20 15:33:47 +0000";
layers = (
{
layerId = m01;
shapes = (
{
closed = 1;
nodes = (
(479,136,o),
(375,68,o),
(280,68,cs),
(185,68,o),
(112,136,o),
(136,275,cs),
(161,413,o),
(259,480,o),
(354,480,cs),
(449,480,o),
(528,413,o),
(503,275,cs)
);
},
{
closed = 1;
nodes = (
(900,480,o),
(969,418,o),
(949,306,c),
(603,306,l),
(629,418,o),
(715,480,o),
(806,480,cs)
);
},
{
closed = 1;
nodes = (
(12,101,o),
(110,-9,o),
(266,-9,cs),
(366,-9,o),
(461,40,o),
(522,126,c),
(549,40,o),
(621,-9,o),
(720,-9,cs),
(857,-9,o),
(959,69,o),
(1004,169,c),
(906,169,l),
(876,110,o),
(817,68,o),
(734,68,cs),
(640,68,o),
(577,130,o),
(592,243,c),
(1028,243,l),
(1034,262,o),
(1038,278,o),
(1041,297,cs),
(1067,445,o),
(983,557,o),
(824,557,cs),
(722,557,o),
(631,508,o),
(574,424,c),
(545,508,o),
(469,557,o),
(370,557,cs),
(215,557,o),
(74,448,o),
(43,275,cs)
);
}
);
width = 1080;
}
);
note = oe;
unicode = 339;
},
{
glyphname = Racute;
lastChange = "2022-10-20 15:33:47 +0000";
layers = (
{
layerId = m01;
shapes = (
{
closed = 1;
nodes = (
(441,414,o),
(386,358,o),
(283,358,cs),
(149,358,l),
(196,622,l),
(330,622,ls),
(434,622,o),
(469,571,o),
(455,492,cs)
);
},
{
closed = 1;
nodes = (
(118,697,l),
(-5,0,l),
(86,0,l),
(136,285,l),
(246,285,l),
(362,0,l),
(471,0,l),
(348,292,l),
(469,318,o),
(533,403,o),
(549,492,cs),
(569,606,o),
(507,697,o),
(343,697,cs)
);
},
{
closed = 1;
nodes = (
(255,802,l),
(243,734,l),
(476,848,l),
(490,927,l)
);
}
);
width = 608;
}
);
note = Racute;
unicode = 340;
},
{
glyphname = racute;
lastChange = "2022-10-20 15:33:47 +0000";
layers = (
{
layerId = m01;
shapes = (
{
closed = 1;
nodes = (
(152,298,ls),
(174,425,o),
(247,464,o),
(334,464,cs),
(358,464,l),
(374,558,l),
(287,558,o),
(222,520,o),
(180,459,c),
(196,548,l),
(105,548,l),
(8,0,l),
(99,0,l)
);
},
{
closed = 1;
nodes = (
(162,657,l),
(150,589,l),
(383,703,l),
(397,782,l)
);
}
);
width = 373;
}
);
note = racute;
unicode = 341;
},
{
glyphname = uni0156;
lastChange = "2022-10-20 15:33:47 +0000";
layers = (
{
layerId = m01;
shapes = (
{
closed = 1;
nodes = (
(208,-49,l),
(193,-131,l),
(240,-131,l),
(237,-149,ls),
(231,-185,o),
(213,-205,o),
(180,-205,c),
(173,-247,l),
(238,-247,o),
(279,-212,o),
(293,-132,cs),
(297,-107,o),
(299,-79,o),
(298,-49,c)
);
},
{
closed = 1;
nodes = (
(128,0,l),
(179,285,l),
(289,285,l),
(404,0,l),
(513,0,l),
(390,292,l),
(511,318,o),
(575,403,o),
(591,492,cs),
(611,606,o),
(549,697,o),
(385,697,cs),
(160,697,l),
(37,0,l)
);
},
{
closed = 1;
nodes = (
(483,414,o),
(428,358,o),
(325,358,cs),
(191,358,l),
(238,622,l),
(372,622,ls),
(476,622,o),
(511,571,o),
(497,492,cs)
);
}
);
width = 608;
}
);
note = uni0156;
unicode = 342;
},
{
glyphname = uni0157;
lastChange = "2022-10-20 15:33:47 +0000";
layers = (
{
layerId = m01;
shapes = (
{
closed = 1;
nodes = (
(39,-49,l),
(24,-131,l),
(71,-131,l),
(68,-149,ls),
(62,-185,o),
(44,-205,o),
(11,-205,c),
(4,-247,l),
(69,-247,o),
(111,-212,o),
(125,-132,cs),
(130,-107,o),
(132,-79,o),
(129,-49,c)
);
},
{
closed = 1;
nodes = (
(193,298,ls),
(216,425,o),
(288,464,o),
(375,464,cs),
(399,464,l),
(416,558,l),
(329,558,o),
(263,520,o),
(222,459,c),
(237,548,l),
(146,548,l),
(50,0,l),
(141,0,l)
);
}
);
width = 373;
}
);
note = uni0157;
unicode = 343;
},
{
glyphname = Rcaron;
lastChange = "2022-10-20 15:33:47 +0000";
layers = (
{
layerId = m01;
shapes = (
{
closed = 1;
nodes = (
(444,414,o),
(389,358,o),
(286,358,cs),
(152,358,l),
(199,622,l),
(333,622,ls),
(437,622,o),
(472,571,o),
(458,492,cs)
);
},
{
closed = 1;
nodes = (
(121,697,l),
(-2,0,l),
(89,0,l),
(139,285,l),
(249,285,l),
(365,0,l),
(474,0,l),
(350,292,l),
(472,318,o),
(536,403,o),
(552,492,cs),
(572,606,o),
(510,697,o),
(346,697,cs)
);
},
{
closed = 1;
nodes = (
(375,811,l),
(251,896,l),
(238,824,l),
(363,742,l),
(515,824,l),
(528,896,l)
);
}
);
width = 608;
}
);
note = Rcaron;
unicode = 344;
},
{
glyphname = rcaron;
lastChange = "2022-10-20 15:33:47 +0000";
layers = (
{
layerId = m01;
shapes = (
{
closed = 1;
nodes = (
(154,298,ls),
(177,425,o),
(250,464,o),
(337,464,cs),
(361,464,l),
(377,558,l),
(290,558,o),
(225,520,o),
(183,459,c),
(198,548,l),
(107,548,l),
(11,0,l),
(102,0,l)
);
},
{
closed = 1;
nodes = (
(282,666,l),
(158,751,l),
(146,679,l),
(270,597,l),
(423,679,l),
(435,751,l)
);
}
);
width = 373;
}
);
note = rcaron;
unicode = 345;
},
{
glyphname = Sacute;
lastChange = "2022-10-20 15:33:47 +0000";
layers = (
{
layerId = m01;
shapes = (
{
closed = 1;
nodes = (
(527,448,o),
(132,336,o),
(163,516,cs),
(177,591,o),
(242,630,o),
(317,628,cs),
(402,627,o),
(437,574,o),
(434,527,c),
(534,527,l),
(542,633,o),
(468,706,o),
(335,706,cs),
(197,706,o),
(90,628,o),
(70,513,cs),
(24,254,o),
(422,374,o),
(389,186,cs),
(377,120,o),
(317,70,o),
(229,70,cs),
(132,70,o),
(101,128,o),
(105,186,c),
(8,186,l),
(-10,71,o),
(75,-7,o),
(215,-7,cs),
(366,-7,o),
(464,91,o),
(482,190,cs)
);
},
{
closed = 1;
nodes = (
(237,808,l),
(225,740,l),
(458,854,l),
(472,933,l)
);
}
);
width = 587;
}
);
note = Sacute;
unicode = 346;
},
{
glyphname = sacute;
lastChange = "2022-10-20 15:33:47 +0000";
layers = (
{
layerId = m01;
shapes = (
{
closed = 1;
nodes = (
(459,345,o),
(129,274,o),
(151,404,cs),
(159,448,o),
(205,480,o),
(272,480,cs),
(345,480,o),
(380,440,o),
(374,385,c),
(465,385,l),
(478,492,o),
(409,557,o),
(288,557,cs),
(166,557,o),
(75,488,o),
(60,404,cs),
(24,200,o),
(361,271,o),
(339,149,cs),
(332,104,o),
(285,68,o),
(213,68,cs),
(136,68,o),
(96,108,o),
(101,161,c),
(7,161,l),
(-5,61,o),
(73,-9,o),
(201,-9,cs),
(322,-9,o),
(413,59,o),
(428,149,cs)
);
},
{
closed = 1;
nodes = (
(193,664,l),
(181,596,l),
(414,710,l),
(428,789,l)
);
}
);
width = 522;
}
);
note = sacute;
unicode = 347;
},
{
glyphname = uni015E;
lastChange = "2022-10-20 15:33:47 +0000";
layers = (
{
layerId = m01;
shapes = (
{
closed = 1;
nodes = (
(570,448,o),
(174,336,o),
(206,516,cs),
(219,591,o),
(285,630,o),
(360,628,cs),
(445,627,o),
(479,574,o),
(477,527,c),
(577,527,l),
(585,633,o),
(511,706,o),
(378,706,cs),
(240,706,o),
(133,628,o),
(113,513,cs),
(67,254,o),
(465,374,o),
(432,186,cs),
(420,120,o),
(359,70,o),
(271,70,cs),
(174,70,o),
(144,128,o),
(148,186,c),
(51,186,l),
(34,79,o),
(106,5,o),
(228,-6,c),
(208,-119,l),
(258,-119,ls),
(301,-119,o),
(320,-131,o),
(314,-162,cs),
(309,-194,o),
(286,-206,o),
(243,-206,cs),
(146,-206,l),
(135,-265,l),
(250,-265,ls),
(321,-265,o),
(379,-225,o),
(390,-162,cs),
(402,-96,o),
(356,-62,o),
(279,-63,c),
(289,-6,l),
(422,7,o),
(508,98,o),
(525,190,cs)
);
}
);
width = 587;
}
);
note = uni015E;
unicode = 350;
},
{
glyphname = uni015F;
lastChange = "2022-10-20 15:33:47 +0000";
layers = (
{
layerId = m01;
shapes = (
{
closed = 1;
nodes = (
(502,345,o),
(171,274,o),
(194,404,cs),
(202,448,o),
(248,480,o),
(315,480,cs),
(388,480,o),
(422,440,o),
(417,385,c),
(508,385,l),
(521,492,o),
(452,557,o),
(331,557,cs),
(209,557,o),
(118,488,o),
(103,404,cs),
(67,200,o),
(404,271,o),
(382,149,cs),
(374,104,o),
(328,68,o),
(256,68,cs),
(179,68,o),
(139,108,o),
(143,161,c),
(49,161,l),
(38,71,o),
(101,5,o),
(207,-7,c),
(188,-114,l),
(238,-114,ls),
(281,-114,o),
(300,-126,o),
(294,-157,cs),
(288,-189,o),
(265,-201,o),
(222,-201,cs),
(125,-201,l),
(115,-260,l),
(230,-260,ls),
(301,-260,o),
(359,-220,o),
(370,-157,cs),
(382,-91,o),
(336,-57,o),
(259,-58,c),
(267,-8,l),
(376,0,o),
(456,65,o),
(471,149,cs)
);
}
);
width = 522;
}
);
note = uni015F;
unicode = 351;
},
{
glyphname = Scaron;
lastChange = "2022-10-20 15:33:47 +0000";
layers = (
{
layerId = m01;
shapes = (
{
closed = 1;
nodes = (
(530,448,o),
(134,336,o),
(166,516,cs),
(179,591,o),
(245,630,o),
(320,628,cs),
(405,627,o),
(439,574,o),
(437,527,c),
(537,527,l),
(545,633,o),
(471,706,o),
(338,706,cs),
(200,706,o),
(93,628,o),
(73,513,cs),
(27,254,o),
(425,374,o),
(392,186,cs),
(380,120,o),
(319,70,o),
(231,70,cs),
(134,70,o),
(104,128,o),
(108,186,c),
(11,186,l),
(-7,71,o),
(78,-7,o),
(218,-7,cs),
(369,-7,o),
(467,91,o),
(485,190,cs)
);
},
{
closed = 1;
nodes = (
(356,817,l),
(232,902,l),
(220,830,l),
(344,748,l),
(497,830,l),
(509,902,l)
);
}
);
width = 587;
}
);
note = Scaron;
unicode = 352;
},
{
glyphname = scaron;
lastChange = "2022-10-20 15:33:47 +0000";
layers = (
{
layerId = m01;
shapes = (
{
closed = 1;
nodes = (
(462,345,o),
(131,274,o),
(154,404,cs),
(162,448,o),
(208,480,o),
(275,480,cs),
(348,480,o),
(383,440,o),
(377,385,c),
(468,385,l),
(481,492,o),
(412,557,o),
(291,557,cs),
(169,557,o),
(78,488,o),
(63,404,cs),
(27,200,o),
(364,271,o),
(342,149,cs),
(334,104,o),
(288,68,o),
(216,68,cs),
(139,68,o),
(99,108,o),
(103,161,c),
(9,161,l),
(-2,61,o),
(75,-9,o),
(203,-9,cs),
(324,-9,o),
(415,59,o),
(431,149,cs)
);
},
{
closed = 1;
nodes = (
(314,673,l),
(190,758,l),
(177,686,l),
(302,604,l),
(454,686,l),
(467,758,l)
);
}
);
width = 522;
}
);
note = scaron;
unicode = 353;
},
{
glyphname = uni0162;
lastChange = "2022-10-20 15:33:47 +0000";
layers = (
{
layerId = m01;
shapes = (
{
closed = 1;
nodes = (
(105,623,l),
(296,623,l),
(186,0,l),
(202,0,l),
(182,-114,l),
(232,-114,ls),
(275,-114,o),
(294,-126,o),
(289,-157,cs),
(283,-189,o),
(260,-201,o),
(217,-201,cs),
(120,-201,l),
(110,-260,l),
(225,-260,ls),
(296,-260,o),
(354,-220,o),
(365,-157,cs),
(376,-91,o),
(330,-57,o),
(253,-58,c),
(263,0,l),
(277,0,l),
(387,623,l),
(577,623,l),
(590,697,l),
(118,697,l)
);
}
);
width = 541;
}
);
note = uni0162;
unicode = 354;
},
{
glyphname = uni0163;
lastChange = "2022-10-20 15:33:47 +0000";
layers = (
{
layerId = m01;
shapes = (
{
closed = 1;
nodes = (
(86,150,ls),
(73,77,o),
(90,35,o),
(130,15,c),
(107,-114,l),
(158,-114,ls),
(201,-114,o),
(220,-126,o),
(215,-157,cs),
(209,-189,o),
(186,-201,o),
(143,-201,cs),
(46,-201,l),
(36,-260,l),
(151,-260,ls),
(222,-260,o),
(280,-220,o),
(291,-157,cs),
(302,-91,o),
(255,-57,o),
(179,-58,c),
(190,1,l),
(196,0,o),
(203,0,o),
(211,0,cs),
(293,0,l),
(307,77,l),
(240,77,ls),
(184,77,o),
(167,96,o),
(177,150,cs),
(234,473,l),
(377,473,l),
(390,548,l),
(247,548,l),
(271,686,l),
(180,686,l),
(156,548,l),
(85,548,l),
(72,473,l),
(143,473,l)
);
}
);
width = 364;
}
);
note = uni0163;
unicode = 355;
},
{
glyphname = Tcaron;
lastChange = "2022-10-20 15:33:47 +0000";
layers = (
{
layerId = m01;
shapes = (
{
closed = 1;
nodes = (
(65,623,l),
(256,623,l),
(146,0,l),
(237,0,l),
(347,623,l),
(537,623,l),
(550,697,l),
(78,697,l)
);
},
{
closed = 1;
nodes = (
(335,811,l),
(211,896,l),
(198,824,l),
(323,742,l),
(475,824,l),
(488,896,l)
);
}
);
width = 541;
}
);
note = Tcaron;
unicode = 356;
},
{
glyphname = tcaron;
lastChange = "2022-10-20 15:33:47 +0000";
layers = (
{
layerId = m01;
shapes = (
{
closed = 1;
nodes = (
(330,773,l),
(315,687,l),
(364,687,l),
(361,669,ls),
(356,644,o),
(340,633,o),
(307,633,c),
(299,591,l),
(365,591,o),
(406,619,o),
(418,688,cs),
(423,715,o),
(423,738,o),
(421,773,c)
);
},
{
closed = 1;
nodes = (
(55,150,ls),
(36,40,o),
(84,0,o),
(181,0,cs),
(263,0,l),
(276,77,l),
(209,77,ls),
(153,77,o),
(137,96,o),
(146,150,cs),
(203,473,l),
(346,473,l),
(360,548,l),
(217,548,l),
(241,686,l),
(150,686,l),
(126,548,l),
(55,548,l),
(41,473,l),
(112,473,l)
);
}
);
width = 367;
}
);
note = tcaron;
unicode = 357;
},
{
glyphname = Utilde;
lastChange = "2022-10-20 15:33:47 +0000";
layers = (
{
layerId = m01;
shapes = (
{
closed = 1;
nodes = (
(45,257,ls),
(13,76,o),
(117,-7,o),
(261,-7,cs),
(405,-7,o),
(538,76,o),
(570,257,cs),
(648,697,l),
(557,697,l),
(479,256,ls),
(457,128,o),
(379,73,o),
(276,73,cs),
(173,73,o),
(114,128,o),
(136,256,cs),
(214,697,l),
(123,697,l)
);
},
{
closed = 1;
nodes = (
(301,752,l),
(310,782,o),
(329,796,o),
(351,796,cs),
(391,796,o),
(403,750,o),
(457,750,cs),
(509,750,o),
(556,786,o),
(576,854,c),
(524,854,l),
(515,825,o),
(494,811,o),
(472,811,cs),
(431,811,o),
(419,857,o),
(366,857,cs),
(314,857,o),
(270,821,o),
(248,752,c)
);
}
);
width = 675;
}
);
note = Utilde;
unicode = 360;
},
{
glyphname = utilde;
lastChange = "2022-10-20 15:33:47 +0000";
layers = (
{
layerId = m01;
shapes = (
{
closed = 1;
nodes = (
(410,0,l),
(501,0,l),
(598,548,l),
(507,548,l),
(453,247,ls),
(433,129,o),
(359,71,o),
(265,71,cs),
(173,71,o),
(122,128,o),
(142,239,cs),
(197,548,l),
(107,548,l),
(50,227,ls),
(22,70,o),
(107,-8,o),
(233,-8,cs),
(306,-8,o),
(379,24,o),
(424,81,c)
);
},
{
closed = 1;
nodes = (
(272,607,l),
(281,637,o),
(301,651,o),
(323,651,cs),
(363,651,o),
(375,605,o),
(429,605,cs),
(481,605,o),
(527,641,o),
(547,709,c),
(495,709,l),
(486,680,o),
(465,666,o),
(443,666,cs),
(402,666,o),
(391,712,o),
(338,712,cs),
(286,712,o),
(241,676,o),
(219,607,c)
);
}
);
width = 640;
}
);
note = utilde;
unicode = 361;
},
{
glyphname = Umacron;
lastChange = "2022-10-20 15:33:47 +0000";
layers = (
{
layerId = m01;
shapes = (
{
closed = 1;
nodes = (
(46,257,ls),
(14,76,o),
(117,-7,o),
(261,-7,cs),
(405,-7,o),
(539,76,o),
(571,257,cs),
(648,697,l),
(557,697,l),
(479,256,ls),
(457,128,o),
(379,73,o),
(276,73,cs),
(173,73,o),
(114,128,o),
(136,256,cs),
(214,697,l),
(123,697,l)
);
},
{
closed = 1;
nodes = (
(225,786,l),
(577,786,l),
(589,854,l),
(237,854,l)
);
}
);
width = 675;
}
);
note = Umacron;
unicode = 362;
},
{
glyphname = umacron;
lastChange = "2022-10-20 15:33:47 +0000";
layers = (
{
layerId = m01;
shapes = (
{
closed = 1;
nodes = (
(598,548,l),
(507,548,l),
(454,247,ls),
(433,129,o),
(360,71,o),
(266,71,cs),
(174,71,o),
(123,128,o),
(142,239,cs),
(197,548,l),
(107,548,l),
(50,227,ls),
(22,70,o),
(108,-8,o),
(234,-8,cs),
(307,-8,o),
(379,24,o),
(424,81,c),
(410,0,l),
(501,0,l)
);
},
{
closed = 1;
nodes = (
(195,641,l),
(547,641,l),
(559,709,l),
(207,709,l)
);
}
);
width = 640;
}
);
note = umacron;
unicode = 363;
},
{
glyphname = Ubreve;
lastChange = "2022-10-20 15:33:47 +0000";
layers = (
{
layerId = m01;
shapes = (
{
closed = 1;
nodes = (
(42,257,ls),
(10,76,o),
(113,-7,o),
(257,-7,cs),
(401,-7,o),
(535,76,o),
(567,257,cs),
(645,697,l),
(554,697,l),
(476,256,ls),
(453,128,o),
(376,73,o),
(273,73,cs),
(170,73,o),
(110,128,o),
(133,256,cs),
(211,697,l),
(120,697,l)
);
},
{
closed = 1;
nodes = (
(560,895,l),
(506,895,l),
(497,847,o),
(468,818,o),
(404,818,cs),
(339,818,o),
(320,847,o),
(329,895,c),
(275,895,l),
(272,878,ls),
(258,803,o),
(299,747,o),
(391,747,cs),
(483,747,o),
(543,803,o),
(556,877,cs)
);
}
);
width = 675;
}
);
note = Ubreve;
unicode = 364;
},
{
glyphname = ubreve;
lastChange = "2022-10-20 15:33:47 +0000";
layers = (
{
layerId = m01;
shapes = (
{
closed = 1;
nodes = (
(594,548,l),
(503,548,l),
(450,247,ls),
(429,129,o),
(356,71,o),
(262,71,cs),
(170,71,o),
(119,128,o),
(139,239,cs),
(193,548,l),
(103,548,l),
(47,227,ls),
(19,70,o),
(104,-8,o),
(230,-8,cs),
(303,-8,o),
(376,24,o),
(421,81,c),
(407,0,l),
(498,0,l)
);
},
{
closed = 1;
nodes = (
(530,750,l),
(476,750,l),
(467,702,o),
(438,673,o),
(374,673,cs),
(309,673,o),
(290,702,o),
(299,750,c),
(245,750,l),
(242,733,ls),
(229,658,o),
(270,602,o),
(362,602,cs),
(454,602,o),
(514,658,o),
(527,732,cs)
);
}
);
width = 640;
}
);
note = ubreve;
unicode = 365;
},
{
glyphname = Uring;
lastChange = "2022-10-20 15:33:47 +0000";
layers = (
{
layerId = m01;
shapes = (
{
closed = 1;
nodes = (
(36,257,ls),
(4,76,o),
(107,-7,o),
(251,-7,cs),
(395,-7,o),
(529,76,o),
(561,257,cs),
(639,697,l),
(548,697,l),
(470,256,ls),
(447,128,o),
(370,73,o),
(267,73,cs),
(164,73,o),
(104,128,o),
(127,256,cs),
(205,697,l),
(114,697,l)
);
},
{
closed = 1;
nodes = (
(366,962,o),
(309,922,o),
(298,857,cs),
(287,792,o),
(328,752,o),
(386,752,cs),
(445,752,o),
(501,792,o),
(512,857,cs),
(523,922,o),
(483,962,o),
(424,962,cs)
);
},
{
closed = 1;
nodes = (
(365,801,o),
(345,824,o),
(351,858,cs),
(357,892,o),
(385,914,o),
(415,914,cs),
(445,914,o),
(465,892,o),
(459,858,cs),
(453,824,o),
(425,801,o),
(395,801,cs)
);
}
);
width = 675;
}
);
note = Uring;
unicode = 366;
},
{
glyphname = uring;
lastChange = "2022-10-20 15:33:47 +0000";
layers = (
{
layerId = m01;
shapes = (
{
closed = 1;
nodes = (
(588,548,l),
(497,548,l),
(444,247,ls),
(423,129,o),
(350,71,o),
(256,71,cs),
(164,71,o),
(113,128,o),
(133,239,cs),
(187,548,l),
(97,548,l),
(41,227,ls),
(13,70,o),
(98,-8,o),
(224,-8,cs),
(297,-8,o),
(370,24,o),
(415,81,c),
(401,0,l),
(492,0,l)
);
},
{
closed = 1;
nodes = (
(335,656,o),
(315,679,o),
(321,713,cs),
(327,747,o),
(355,769,o),
(385,769,cs),
(415,769,o),
(435,747,o),
(429,713,cs),
(423,679,o),
(395,656,o),
(365,656,cs)
);
},
{
closed = 1;
nodes = (
(336,817,o),
(280,777,o),
(268,712,cs),
(257,647,o),
(299,607,o),
(357,607,cs),
(416,607,o),
(471,647,o),
(482,712,cs),
(494,777,o),
(453,817,o),
(394,817,cs)
);
}
);
width = 640;
}
);
note = uring;
unicode = 367;
},
{
glyphname = Uhungarumlaut;
lastChange = "2022-10-20 15:33:47 +0000";
layers = (
{
layerId = m01;
shapes = (
{
closed = 1;
nodes = (
(42,257,ls),
(10,76,o),
(113,-7,o),
(257,-7,cs),
(401,-7,o),
(535,76,o),
(567,257,cs),
(644,697,l),
(553,697,l),
(475,256,ls),
(453,128,o),
(375,73,o),
(272,73,cs),
(169,73,o),
(110,128,o),
(132,256,cs),
(210,697,l),
(119,697,l)
);
},
{
closed = 1;
nodes = (
(370,900,l),
(276,746,l),
(337,746,l),
(451,900,l)
);
},
{
closed = 1;
nodes = (
(524,900,l),
(425,746,l),
(485,746,l),
(604,900,l)
);
}
);
width = 675;
}
);
note = Uhungarumlaut;
unicode = 368;
},
{
glyphname = uhungarumlaut;
lastChange = "2022-10-20 15:33:47 +0000";
layers = (
{
layerId = m01;
shapes = (
{
closed = 1;
nodes = (
(594,548,l),
(503,548,l),
(450,247,ls),
(429,129,o),
(356,71,o),
(262,71,cs),
(170,71,o),
(119,128,o),
(138,239,cs),
(193,548,l),
(103,548,l),
(46,227,ls),
(18,70,o),
(104,-8,o),
(230,-8,cs),
(303,-8,o),
(375,24,o),
(420,81,c),
(406,0,l),
(497,0,l)
);
},
{
closed = 1;
nodes = (
(340,755,l),
(246,601,l),
(307,601,l),
(421,755,l)
);
},
{
closed = 1;
nodes = (
(494,755,l),
(395,601,l),
(455,601,l),
(574,755,l)
);
}
);
width = 640;
}
);
note = uhungarumlaut;
unicode = 369;
},
{
glyphname = Uogonek;
lastChange = "2022-10-20 15:33:47 +0000";
layers = (
{
layerId = m01;
shapes = (
{
closed = 1;
nodes = (
(77,257,ls),
(49,99,o),
(124,16,o),
(239,-3,c),
(186,-35,o),
(162,-69,o),
(156,-106,cs),
(143,-179,o),
(200,-206,o),
(260,-206,cs),
(287,-206,o),
(315,-200,o),
(340,-192,c),
(350,-132,l),
(326,-140,o),
(302,-145,o),
(283,-145,cs),
(247,-145,o),
(227,-128,o),
(233,-97,cs),
(237,-72,o),
(256,-49,o),
(305,-27,cs),
(365,0,l),
(365,0,l),
(479,24,o),
(576,107,o),
(602,257,cs),
(680,697,l),
(589,697,l),
(511,256,ls),
(488,128,o),
(411,73,o),
(308,73,cs),
(205,73,o),
(145,128,o),
(168,256,cs),
(246,697,l),
(155,697,l)
);
}
);
width = 675;
}
);
note = Uogonek;
unicode = 370;
},
{
glyphname = uogonek;
lastChange = "2022-10-20 15:33:47 +0000";
layers = (
{
layerId = m01;
shapes = (
{
closed = 1;
nodes = (
(630,548,l),
(539,548,l),
(486,247,ls),
(465,129,o),
(391,71,o),
(297,71,cs),
(205,71,o),
(154,128,o),
(174,239,cs),
(229,548,l),
(139,548,l),
(82,227,ls),
(54,70,o),
(139,-8,o),
(265,-8,cs),
(338,-8,o),
(411,24,o),
(456,81,c),
(445,16,l),
(366,-21,o),
(332,-63,o),
(324,-107,cs),
(311,-180,o),
(368,-207,o),
(428,-207,cs),
(455,-207,o),
(483,-201,o),
(508,-193,c),
(518,-133,l),
(494,-141,o),
(470,-146,o),
(451,-146,cs),
(415,-146,o),
(395,-129,o),
(401,-98,cs),
(405,-73,o),
(424,-50,o),
(473,-28,cs),
(533,-1,l),
(532,0,l),
(533,0,l)
);
}
);
width = 640;
}
);
note = uogonek;
unicode = 371;
},
{
glyphname = Wcircumflex;
lastChange = "2022-10-20 15:33:47 +0000";
layers = (
{
layerId = m01;
shapes = (
{
closed = 1;
nodes = (
(138,-1,l),
(239,0,l),
(506,561,l),
(569,0,l),
(671,0,l),
(996,697,l),
(898,697,l),
(641,108,l),
(585,697,l),
(483,697,l),
(211,106,l),
(163,697,l),
(66,697,l)
);
},
{
closed = 1;
nodes = (
(688,822,l),
(565,905,l),
(411,822,l),
(399,750,l),
(553,835,l),
(676,750,l)
);
}
);
width = 976;
}
);
note = Wcircumflex;
unicode = 372;
},
{
glyphname = wcircumflex;
lastChange = "2022-10-20 15:33:47 +0000";
layers = (
{
layerId = m01;
shapes = (
{
closed = 1;
nodes = (
(118,0,l),
(212,0,l),
(420,435,l),
(476,0,l),
(570,0,l),
(837,548,l),
(747,548,l),
(542,87,l),
(490,548,l),
(397,548,l),
(180,88,l),
(135,548,l),
(42,548,l)
);
},
{
closed = 1;
nodes = (
(601,669,l),
(477,752,l),
(324,669,l),
(311,597,l),
(465,682,l),
(588,597,l)
);
}
);
width = 820;
}
);
note = wcircumflex;
unicode = 373;
},
{
glyphname = Ycircumflex;
lastChange = "2022-10-20 15:33:47 +0000";
layers = (
{
layerId = m01;
shapes = (
{
closed = 1;
nodes = (
(214,263,l),
(168,0,l),
(259,0,l),
(305,263,l),
(609,697,l),
(508,697,l),
(274,344,l),
(164,697,l),
(63,697,l)
);
},
{
closed = 1;
nodes = (
(496,814,l),
(372,897,l),
(219,814,l),
(206,742,l),
(360,827,l),
(483,742,l)
);
}
);
width = 584;
}
);
note = Ycircumflex;
unicode = 374;
},
{
glyphname = ycircumflex;
lastChange = "2022-10-20 15:33:47 +0000";
layers = (
{
layerId = m01;
shapes = (
{
closed = 1;
nodes = (
(260,104,l),
(166,548,l),
(65,548,l),
(190,6,l),
(36,-258,l),
(130,-258,l),
(602,548,l),
(508,548,l)
);
},
{
closed = 1;
nodes = (
(494,669,l),
(371,752,l),
(217,669,l),
(205,597,l),
(359,682,l),
(482,597,l)
);
}
);
width = 563;
}
);
note = ycircumflex;
unicode = 375;
},
{
glyphname = Ydieresis;
lastChange = "2022-10-20 15:33:47 +0000";
layers = (
{
layerId = m01;
shapes = (
{
closed = 1;
nodes = (
(216,263,l),
(170,0,l),
(261,0,l),
(307,263,l),
(611,697,l),
(510,697,l),
(276,344,l),
(166,697,l),
(65,697,l)
);
},
{
closed = 1;
nodes = (
(298,767,o),
(326,790,o),
(332,819,cs),
(337,848,o),
(317,872,o),
(289,872,cs),
(259,872,o),
(232,848,o),
(227,819,cs),
(221,790,o),
(240,767,o),
(270,767,cs)
);
},
{
closed = 1;
nodes = (
(461,767,o),
(489,790,o),
(495,819,cs),
(500,848,o),
(480,872,o),
(451,872,cs),
(421,872,o),
(395,848,o),
(390,819,cs),
(384,790,o),
(402,767,o),
(432,767,cs)
);
}
);
width = 584;
}
);
note = Ydieresis;
unicode = 376;
},
{
glyphname = Zacute;
lastChange = "2022-10-20 15:33:47 +0000";
layers = (
{
layerId = m01;
shapes = (
{
closed = 1;
nodes = (
(533,697,l),
(91,697,l),
(77,618,l),
(411,618,l),
(-23,72,l),
(-36,0,l),
(412,0,l),
(426,79,l),
(86,79,l),
(521,625,l)
);
},
{
closed = 1;
nodes = (
(215,802,l),
(203,734,l),
(436,848,l),
(450,927,l)
);
}
);
width = 541;
}
);
note = Zacute;
unicode = 377;
},
{
glyphname = zacute;
lastChange = "2022-10-20 15:33:47 +0000";
layers = (
{
layerId = m01;
shapes = (
{
closed = 1;
nodes = (
(440,548,l),
(71,548,l),
(58,474,l),
(322,474,l),
(-15,75,l),
(-28,0,l),
(345,0,l),
(358,75,l),
(89,75,l),
(427,474,l)
);
},
{
closed = 1;
nodes = (
(160,657,l),
(148,589,l),
(381,703,l),
(395,782,l)
);
}
);
width = 455;
}
);
note = zacute;
unicode = 378;
},
{
glyphname = Zdotaccent;
lastChange = "2022-10-20 15:33:47 +0000";
layers = (
{
layerId = m01;
shapes = (
{
closed = 1;
nodes = (
(539,697,l),
(97,697,l),
(83,618,l),
(417,618,l),
(-18,72,l),
(-30,0,l),
(418,0,l),
(432,79,l),
(92,79,l),
(526,625,l)
);
},
{
closed = 1;
nodes = (
(358,761,o),
(385,784,o),
(390,813,cs),
(395,842,o),
(376,866,o),
(347,866,cs),
(317,866,o),
(290,842,o),
(285,813,cs),
(280,784,o),
(299,761,o),
(329,761,cs)
);
}
);
width = 541;
}
);
note = Zdotaccent;
unicode = 379;
},
{
glyphname = zdotaccent;
lastChange = "2022-10-20 15:33:47 +0000";
layers = (
{
layerId = m01;
shapes = (
{
closed = 1;
nodes = (
(445,548,l),
(76,548,l),
(63,474,l),
(327,474,l),
(-9,75,l),
(-23,0,l),
(350,0,l),
(364,75,l),
(95,75,l),
(432,474,l)
);
},
{
closed = 1;
nodes = (
(303,617,o),
(330,640,o),
(335,669,cs),
(340,698,o),
(322,722,o),
(293,722,cs),
(263,722,o),
(235,698,o),
(230,669,cs),
(225,640,o),
(244,617,o),
(274,617,cs)
);
}
);
width = 455;
}
);
note = zdotaccent;
unicode = 380;
},
{
glyphname = Zcaron;
lastChange = "2022-10-20 15:33:47 +0000";
layers = (
{
layerId = m01;
shapes = (
{
closed = 1;
nodes = (
(536,697,l),
(94,697,l),
(80,618,l),
(414,618,l),
(-20,72,l),
(-33,0,l),
(415,0,l),
(429,79,l),
(89,79,l),
(523,625,l)
);
},
{
closed = 1;
nodes = (
(335,811,l),
(211,896,l),
(198,824,l),
(323,742,l),
(475,824,l),
(488,896,l)
);
}
);
width = 541;
}
);
note = Zcaron;
unicode = 381;
},
{
glyphname = zcaron;
lastChange = "2022-10-20 15:33:47 +0000";
layers = (
{
layerId = m01;
shapes = (
{
closed = 1;
nodes = (
(442,548,l),
(73,548,l),
(60,474,l),
(324,474,l),
(-12,75,l),
(-25,0,l),
(348,0,l),
(361,75,l),
(92,75,l),
(429,474,l)
);
},
{
closed = 1;
nodes = (
(280,666,l),
(156,751,l),
(144,679,l),
(268,597,l),
(421,679,l),
(433,751,l)
);
}
);
width = 455;
}
);
note = zcaron;
unicode = 382;
},
{
glyphname = uni018F;
lastChange = "2022-10-20 15:33:47 +0000";
layers = (
{
layerId = m01;
shapes = (
{
closed = 1;
nodes = (
(208,75,o),
(130,164,o),
(154,298,c),
(620,298,l),
(587,157,o),
(474,75,o),
(346,75,cs)
);
},
{
closed = 1;
nodes = (
(532,-7,o),
(691,138,o),
(728,349,cs),
(765,560,o),
(655,705,o),
(458,705,cs),
(300,705,o),
(165,618,o),
(97,480,c),
(202,480,l),
(249,569,o),
(339,623,o),
(443,623,cs),
(574,623,o),
(654,528,o),
(635,383,c),
(77,383,l),
(71,361,o),
(66,340,o),
(63,321,cs),
(26,112,o),
(139,-7,o),
(331,-7,cs)
);
}
);
width = 786;
}
);
note = uni018F;
unicode = 399;
},
{
glyphname = florin;
lastChange = "2022-10-20 15:33:47 +0000";
layers = (
{
layerId = m01;
shapes = (
{
closed = 1;
nodes = (
(149,548,l),
(78,548,l),
(58,474,l),
(128,474,l),
(-21,-57,ls),
(-35,-106,o),
(-57,-122,o),
(-94,-122,cs),
(-113,-122,l),
(-133,-197,l),
(-109,-197,ls),
(-16,-197,o),
(42,-157,o),
(70,-57,cs),
(219,474,l),
(335,474,l),
(355,548,l),
(240,548,l),
(254,595,ls),
(273,664,o),
(312,691,o),
(389,691,c),
(409,767,l),
(275,767,o),
(197,716,o),
(163,595,cs)
);
}
);
width = 332;
}
);
note = florin;
unicode = 402;
},
{
glyphname = uni01FC;
lastChange = "2022-10-20 15:33:47 +0000";
layers = (
{
layerId = m01;
shapes = (
{
closed = 1;
nodes = (
(504,808,l),
(492,740,l),
(725,854,l),
(739,933,l)
);
},
{
closed = 1;
nodes = (
(494,629,l),
(423,226,l),
(196,226,l)
);
},
{
closed = 1;
nodes = (
(866,626,l),
(879,698,l),
(448,698,l),
(-70,0,l),
(29,0,l),
(143,155,l),
(410,155,l),
(383,0,l),
(756,0,l),
(768,72,l),
(486,72,l),
(530,317,l),
(782,317,l),
(794,387,l),
(542,387,l),
(584,626,l)
);
}
);
width = 900;
}
);
note = uni01FC;
unicode = 508;
},
{
glyphname = uni01FD;
lastChange = "2022-10-20 15:33:47 +0000";
layers = (
{
layerId = m01;
shapes = (
{
closed = 1;
nodes = (
(898,480,o),
(968,418,o),
(947,309,c),
(586,309,l),
(615,417,o),
(708,480,o),
(801,480,cs)
);
},
{
closed = 1;
nodes = (
(907,169,l),
(878,109,o),
(814,68,o),
(727,68,cs),
(642,68,o),
(564,126,o),
(575,243,c),
(1026,243,l),
(1032,262,o),
(1036,278,o),
(1039,297,cs),
(1065,442,o),
(984,557,o),
(828,557,cs),
(741,557,o),
(663,524,o),
(600,447,c),
(618,548,l),
(542,548,l),
(524,447,l),
(492,517,o),
(429,557,o),
(338,557,cs),
(186,557,o),
(54,447,o),
(23,276,cs),
(-7,106,o),
(86,-9,o),
(233,-9,cs),
(329,-9,o),
(411,41,o),
(460,105,c),
(442,0,l),
(521,0,l),
(539,106,l),
(566,36,o),
(638,-9,o),
(728,-9,cs),
(859,-9,o),
(959,69,o),
(1005,169,c)
);
},
{
closed = 1;
nodes = (
(139,405,o),
(237,478,o),
(337,478,cs),
(437,478,o),
(510,402,o),
(487,275,cs),
(465,146,o),
(365,71,o),
(265,71,cs),
(165,71,o),
(94,147,o),
(116,276,cs)
);
},
{
closed = 1;
nodes = (
(556,657,l),
(544,589,l),
(777,703,l),
(791,782,l)
);
}
);
width = 1100;
}
);
note = uni01FD;
unicode = 509;
},
{
glyphname = uni0218;
lastChange = "2022-10-20 15:33:47 +0000";
layers = (
{
layerId = m01;
shapes = (
{
closed = 1;
nodes = (
(204,-49,l),
(189,-131,l),
(236,-131,l),
(233,-149,ls),
(227,-185,o),
(209,-205,o),
(176,-205,c),
(169,-247,l),
(234,-247,o),
(276,-212,o),
(290,-132,cs),
(295,-107,o),
(297,-79,o),
(294,-49,c)
);
},
{
closed = 1;
nodes = (
(569,448,o),
(173,336,o),
(205,516,cs),
(218,591,o),
(284,630,o),
(358,628,cs),
(443,627,o),
(478,574,o),
(476,527,c),
(576,527,l),
(583,633,o),
(509,706,o),
(376,706,cs),
(238,706,o),
(131,628,o),
(111,513,cs),
(65,254,o),
(464,374,o),
(430,186,cs),
(419,120,o),
(358,70,o),
(270,70,cs),
(173,70,o),
(142,128,o),
(146,186,c),
(49,186,l),
(31,71,o),
(116,-7,o),
(256,-7,cs),
(407,-7,o),
(506,91,o),
(523,190,cs)
);
}
);
width = 587;
}
);
note = uni0218;
unicode = 536;
},
{
glyphname = uni0219;
lastChange = "2022-10-20 15:33:47 +0000";
layers = (
{
layerId = m01;
shapes = (
{
closed = 1;
nodes = (
(183,-49,l),
(169,-131,l),
(216,-131,l),
(212,-149,ls),
(206,-185,o),
(188,-205,o),
(155,-205,c),
(148,-247,l),
(213,-247,o),
(255,-212,o),
(269,-132,cs),
(274,-107,o),
(275,-79,o),
(273,-49,c)
);
},
{
closed = 1;
nodes = (
(501,345,o),
(170,274,o),
(193,404,cs),
(201,448,o),
(246,480,o),
(313,480,cs),
(386,480,o),
(421,440,o),
(416,385,c),
(507,385,l),
(519,492,o),
(451,557,o),
(330,557,cs),
(208,557,o),
(117,488,o),
(102,404,cs),
(66,200,o),
(402,271,o),
(381,149,cs),
(373,104,o),
(327,68,o),
(255,68,cs),
(178,68,o),
(138,108,o),
(142,161,c),
(48,161,l),
(36,61,o),
(114,-9,o),
(242,-9,cs),
(363,-9,o),
(454,59,o),
(470,149,cs)
);
}
);
width = 522;
}
);
note = uni0219;
unicode = 537;
},
{
glyphname = uni021A;
lastChange = "2022-10-20 15:33:47 +0000";
layers = (
{
layerId = m01;
shapes = (
{
closed = 1;
nodes = (
(175,-49,l),
(160,-131,l),
(207,-131,l),
(204,-149,ls),
(198,-185,o),
(180,-205,o),
(147,-205,c),
(140,-247,l),
(205,-247,o),
(246,-212,o),
(260,-132,cs),
(264,-107,o),
(266,-79,o),
(265,-49,c)
);
},
{
closed = 1;
nodes = (
(104,623,l),
(295,623,l),
(185,0,l),
(276,0,l),
(386,623,l),
(576,623,l),
(589,697,l),
(117,697,l)
);
}
);
width = 541;
}
);
note = uni021A;
unicode = 538;
},
{
glyphname = uni021B;
lastChange = "2022-10-20 15:33:47 +0000";
layers = (
{
layerId = m01;
shapes = (
{
closed = 1;
nodes = (
(96,-49,l),
(81,-131,l),
(129,-131,l),
(126,-149,ls),
(120,-185,o),
(102,-205,o),
(68,-205,c),
(61,-247,l),
(127,-247,o),
(168,-212,o),
(182,-132,cs),
(186,-107,o),
(188,-79,o),
(186,-49,c)
);
},
{
closed = 1;
nodes = (
(85,150,ls),
(65,40,o),
(113,0,o),
(210,0,cs),
(292,0,l),
(306,77,l),
(239,77,ls),
(183,77,o),
(166,96,o),
(176,150,cs),
(233,473,l),
(376,473,l),
(389,548,l),
(246,548,l),
(270,686,l),
(179,686,l),
(155,548,l),
(84,548,l),
(71,473,l),
(142,473,l)
);
}
);
width = 364;
}
);
note = uni021B;
unicode = 539;
},
{
glyphname = uni0259;
lastChange = "2022-10-20 15:33:47 +0000";
layers = (
{
layerId = m01;
shapes = (
{
closed = 1;
nodes = (
(180,68,o),
(110,127,o),
(130,234,c),
(476,234,l),
(447,127,o),
(363,68,o),
(274,68,cs)
);
},
{
closed = 1;
nodes = (
(416,-9,o),
(546,100,o),
(577,273,cs),
(608,447,o),
(512,557,o),
(356,557,cs),
(220,557,o),
(118,479,o),
(73,379,c),
(171,379,l),
(201,438,o),
(260,480,o),
(342,480,cs),
(435,480,o),
(503,419,o),
(490,308,c),
(52,308,l),
(47,289,o),
(43,273,o),
(39,253,cs),
(13,103,o),
(97,-9,o),
(256,-9,cs)
);
}
);
width = 620;
}
);
note = uni0259;
unicode = 601;
},
{
glyphname = uni02BC;
lastChange = "2022-10-20 15:33:47 +0000";
layers = (
{
layerId = m01;
shapes = (
{
closed = 1;
nodes = (
(76,470,l),
(212,697,l),
(111,697,l),
(12,470,l)
);
}
);
width = 219;
}
);
note = uni02BC;
unicode = 700;
},
{
glyphname = circumflex;
lastChange = "2022-10-20 15:33:47 +0000";
layers = (
{
layerId = m01;
shapes = (
{
closed = 1;
nodes = (
(293,669,l),
(170,752,l),
(16,669,l),
(3,597,l),
(157,682,l),
(280,597,l)
);
}
);
width = 311;
}
);
note = circumflex;
unicode = 710;
},
{
glyphname = caron;
lastChange = "2022-10-20 15:33:47 +0000";
layers = (
{
layerId = m01;
shapes = (
{
closed = 1;
nodes = (
(155,666,l),
(31,751,l),
(18,679,l),
(142,597,l),
(295,679,l),
(308,751,l)
);
}
);
width = 311;
}
);
note = caron;
unicode = 711;
},
{
glyphname = uni02C9;
lastChange = "2022-10-20 15:33:47 +0000";
layers = (
{
layerId = m01;
shapes = (
{
closed = 1;
nodes = (
(11,641,l),
(363,641,l),
(375,709,l),
(23,709,l)
);
}
);
width = 387;
}
);
note = uni02C9;
unicode = 713;
},
{
glyphname = breve;
lastChange = "2022-10-20 15:33:47 +0000";
layers = (
{
layerId = m01;
shapes = (
{
closed = 1;
nodes = (
(315,750,l),
(261,750,l),
(253,702,o),
(223,673,o),
(159,673,cs),
(94,673,o),
(76,702,o),
(84,750,c),
(30,750,l),
(27,733,ls),
(14,658,o),
(55,602,o),
(147,602,cs),
(239,602,o),
(299,658,o),
(312,732,cs)
);
}
);
width = 320;
}
);
note = breve;
unicode = 728;
},
{
glyphname = dotaccent;
lastChange = "2022-10-20 15:33:47 +0000";
layers = (
{
layerId = m01;
shapes = (
{
closed = 1;
nodes = (
(92,622,o),
(119,645,o),
(124,674,cs),
(129,703,o),
(110,727,o),
(81,727,cs),
(51,727,o),
(24,703,o),
(19,674,cs),
(14,645,o),
(33,622,o),
(63,622,cs)
);
}
);
width = 143;
}
);
note = dotaccent;
unicode = 729;
},
{
glyphname = ring;
lastChange = "2022-10-20 15:33:47 +0000";
layers = (
{
layerId = m01;
shapes = (
{
closed = 1;
nodes = (
(83,817,o),
(26,777,o),
(15,712,cs),
(4,647,o),
(45,607,o),
(103,607,cs),
(162,607,o),
(218,647,o),
(229,712,cs),
(240,777,o),
(200,817,o),
(141,817,cs)
);
},
{
closed = 1;
nodes = (
(82,656,o),
(62,679,o),
(68,713,cs),
(74,747,o),
(102,769,o),
(132,769,cs),
(162,769,o),
(182,747,o),
(176,713,cs),
(170,679,o),
(142,656,o),
(112,656,cs)
);
}
);
width = 243;
}
);
note = ring;
unicode = 730;
},
{
glyphname = ogonek;
lastChange = "2022-10-20 15:33:47 +0000";
layers = (
{
layerId = m01;
shapes = (
{
closed = 1;
nodes = (
(156,26,ls),
(63,-14,o),
(24,-58,o),
(15,-106,cs),
(2,-179,o),
(60,-206,o),
(120,-206,cs),
(147,-206,o),
(175,-200,o),
(199,-192,c),
(210,-132,l),
(185,-140,o),
(161,-145,o),
(142,-145,cs),
(106,-145,o),
(86,-128,o),
(92,-97,cs),
(96,-72,o),
(115,-49,o),
(164,-27,cs),
(224,0,l),
(208,47,l)
);
}
);
width = 241;
}
);
note = ogonek;
unicode = 731;
},
{
glyphname = tilde;
lastChange = "2022-10-20 15:33:47 +0000";
layers = (
{
layerId = m01;
shapes = (
{
closed = 1;
nodes = (
(61,607,l),
(70,637,o),
(90,651,o),
(112,651,cs),
(152,651,o),
(164,605,o),
(218,605,cs),
(270,605,o),
(316,641,o),
(336,709,c),
(284,709,l),
(275,680,o),
(254,666,o),
(232,666,cs),
(191,666,o),
(179,712,o),
(126,712,cs),
(74,712,o),
(30,676,o),
(8,607,c)
);
}
);
width = 345;
}
);
note = tilde;
unicode = 732;
},
{
glyphname = hungarumlaut;
lastChange = "2022-10-20 15:33:47 +0000";
layers = (
{
layerId = m01;
shapes = (
{
closed = 1;
nodes = (
(98,755,l),
(3,601,l),
(64,601,l),
(179,755,l)
);
},
{
closed = 1;
nodes = (
(252,755,l),
(152,601,l),
(212,601,l),
(332,755,l)
);
}
);
width = 344;
}
);
note = hungarumlaut;
unicode = 733;
},
{
glyphname = pi;
lastChange = "2022-10-20 15:33:47 +0000";
layers = (
{
layerId = m01;
shapes = (
{
closed = 1;
nodes = (
(75,477,l),
(154,477,l),
(70,0,l),
(161,0,l),
(245,477,l),
(533,477,l),
(449,0,l),
(539,0,l),
(623,477,l),
(703,477,l),
(715,548,l),
(87,548,l)
);
}
);
width = 710;
}
);
note = pi;
unicode = 960;
},
{
glyphname = Wgrave;
lastChange = "2022-10-20 15:33:47 +0000";
layers = (
{
layerId = m01;
shapes = (
{
closed = 1;
nodes = (
(136,-1,l),
(237,0,l),
(504,561,l),
(567,0,l),
(669,0,l),
(994,697,l),
(896,697,l),
(639,108,l),
(583,697,l),
(481,697,l),
(209,106,l),
(161,697,l),
(64,697,l)
);
},
{
closed = 1;
nodes = (
(395,853,l),
(588,739,l),
(600,807,l),
(409,932,l)
);
}
);
width = 976;
}
);
note = Wgrave;
unicode = 7808;
},
{
glyphname = wgrave;
lastChange = "2022-10-20 15:33:47 +0000";
layers = (
{
layerId = m01;
shapes = (
{
closed = 1;
nodes = (
(115,0,l),
(209,0,l),
(418,435,l),
(473,0,l),
(567,0,l),
(835,548,l),
(745,548,l),
(539,87,l),
(488,548,l),
(395,548,l),
(178,88,l),
(133,548,l),
(40,548,l)
);
},
{
closed = 1;
nodes = (
(297,703,l),
(490,589,l),
(502,657,l),
(311,782,l)
);
}
);
width = 820;
}
);
note = wgrave;
unicode = 7809;
},
{
glyphname = Wacute;
lastChange = "2022-10-20 15:33:47 +0000";
layers = (
{
layerId = m01;
shapes = (
{
closed = 1;
nodes = (
(135,-1,l),
(237,0,l),
(504,561,l),
(567,0,l),
(669,0,l),
(994,697,l),
(896,697,l),
(639,108,l),
(583,697,l),
(481,697,l),
(208,106,l),
(161,697,l),
(64,697,l)
);
},
{
closed = 1;
nodes = (
(503,810,l),
(491,742,l),
(724,856,l),
(738,935,l)
);
}
);
width = 976;
}
);
note = Wacute;
unicode = 7810;
},
{
glyphname = wacute;
lastChange = "2022-10-20 15:33:47 +0000";
layers = (
{
layerId = m01;
shapes = (
{
closed = 1;
nodes = (
(115,0,l),
(209,0,l),
(418,435,l),
(473,0,l),
(567,0,l),
(835,548,l),
(745,548,l),
(539,87,l),
(488,548,l),
(395,548,l),
(178,88,l),
(133,548,l),
(40,548,l)
);
},
{
closed = 1;
nodes = (
(413,657,l),
(401,589,l),
(634,703,l),
(648,782,l)
);
}
);
width = 820;
}
);
note = wacute;
unicode = 7811;
},
